<svg width="16" height="16" viewBox="0 0 16 16" fill="none" xmlns="http://www.w3.org/2000/svg">
<g clip-path="url(#clip0_606_3014)">
<path d="M15.7656 9.00436C14.024 10.6998 11.012 11.5478 8 11.5478C4.988 11.5478 1.976 10.6998 0.2344 9.00436L0 8.77618V13.7751C0 14.1882 0.168571 14.5844 0.468629 14.8765C0.768687 15.1686 1.17565 15.3327 1.6 15.3327H14.4C14.8243 15.3327 15.2313 15.1686 15.5314 14.8765C15.8314 14.5844 16 14.1882 16 13.7751V8.77618L15.7656 9.00436Z" fill="#788596"/>
<path d="M14.4 3.78111H12V3.00234C12 2.38271 11.7471 1.78846 11.2971 1.35031C10.847 0.912163 10.2365 0.666016 9.6 0.666016H6.4C5.76348 0.666016 5.15303 0.912163 4.70294 1.35031C4.25286 1.78846 4 2.38271 4 3.00234V3.78111H1.6C1.17565 3.78111 0.768687 3.94521 0.468629 4.23731C0.168571 4.52941 0 4.92558 0 5.33867V6.5738L1.3656 7.90317C4.28 10.7379 11.72 10.7379 14.6344 7.90317L16 6.5738V5.33867C16 4.92558 15.8314 4.52941 15.5314 4.23731C15.2313 3.94521 14.8243 3.78111 14.4 3.78111ZM8 8.45376C7.84177 8.45376 7.6871 8.40809 7.55554 8.32252C7.42398 8.23694 7.32145 8.11532 7.2609 7.97301C7.20035 7.83071 7.1845 7.67413 7.21537 7.52306C7.24624 7.37199 7.32243 7.23323 7.43431 7.12431C7.5462 7.0154 7.68874 6.94123 7.84393 6.91118C7.99911 6.88113 8.15997 6.89655 8.30615 6.9555C8.45233 7.01444 8.57727 7.11426 8.66518 7.24233C8.75308 7.37039 8.8 7.52096 8.8 7.67499C8.8 7.88153 8.71571 8.07962 8.56569 8.22567C8.41566 8.37171 8.21217 8.45376 8 8.45376ZM10.4 3.78111H5.6V3.00234C5.6 2.7958 5.68429 2.59771 5.83431 2.45166C5.98434 2.30561 6.18783 2.22357 6.4 2.22357H9.6C9.81217 2.22357 10.0157 2.30561 10.1657 2.45166C10.3157 2.59771 10.4 2.7958 10.4 3.00234V3.78111Z" fill="#788596"/>
</g>
<defs>
<clipPath id="clip0_606_3014">
<rect width="16" height="16" fill="white"/>
</clipPath>
</defs>
</svg>
