<svg width="16" height="16" viewBox="0 0 16 16" fill="none" xmlns="http://www.w3.org/2000/svg">
<path d="M13.8936 14.6673H1.26305C0.92807 14.6673 0.606808 14.5356 0.36994 14.3012C0.133071 14.0668 0 13.7488 0 13.4173V2.58398C0 2.25246 0.133071 1.93452 0.36994 1.7001C0.606808 1.46568 0.92807 1.33398 1.26305 1.33398C1.59804 1.33398 1.9193 1.46568 2.15617 1.7001C2.39303 1.93452 2.52611 2.25246 2.52611 2.58398V12.1673H13.8936C14.2286 12.1673 14.5498 12.299 14.7867 12.5334C15.0236 12.7679 15.1566 13.0858 15.1566 13.4173C15.1566 13.7488 15.0236 14.0668 14.7867 14.3012C14.5498 14.5356 14.2286 14.6673 13.8936 14.6673Z" fill="#788596"/>
<path d="M4.63119 11.334C4.39663 11.334 4.1667 11.2693 3.96717 11.1473C3.76764 11.0253 3.60638 10.8506 3.50148 10.643C3.39658 10.4354 3.35218 10.2029 3.37324 9.97173C3.39431 9.74053 3.48001 9.5197 3.62075 9.33398L6.14686 6.00065C6.34058 5.74506 6.62584 5.57258 6.94405 5.51865C7.26226 5.46472 7.58925 5.53342 7.85787 5.71065L9.28175 6.64982L11.1267 3.60815C11.2145 3.46309 11.3313 3.33719 11.4698 3.23807C11.6083 3.13896 11.7656 3.06869 11.9324 3.03153C12.0991 2.99437 12.2717 2.99108 12.4398 3.02187C12.6078 3.05266 12.7678 3.11688 12.9101 3.21065L15.4362 4.87732C15.7153 5.0612 15.9092 5.3473 15.9753 5.67268C16.0413 5.99805 15.974 6.33605 15.7882 6.61232C15.6024 6.88858 15.3133 7.08049 14.9845 7.14581C14.6557 7.21114 14.3142 7.14453 14.035 6.96065L12.6112 6.02148L10.7663 9.06315C10.6784 9.20821 10.5616 9.33411 10.4231 9.43323C10.2847 9.53234 10.1273 9.60261 9.96054 9.63977C9.7938 9.67693 9.62118 9.68022 9.45312 9.64943C9.28507 9.61864 9.12508 9.55442 8.98283 9.46065L7.45117 8.44982L5.64164 10.834C5.52399 10.9892 5.37143 11.1152 5.19605 11.202C5.02067 11.2888 4.82728 11.334 4.63119 11.334Z" fill="#788596"/>
</svg>
