<svg width="16" height="16" viewBox="0 0 16 16" fill="none" xmlns="http://www.w3.org/2000/svg">
<g clip-path="url(#clip0_799_4802)">
<path d="M8.9128 3.50554L0.3632 11.9125C0.0503999 12.2201 0.0503999 12.7173 0.3632 13.0249L2.6256 15.2495C2.7816 15.4029 2.9864 15.48 3.1912 15.48C3.396 15.48 3.6008 15.4029 3.7568 15.2495L12.3064 6.84253L8.9128 3.50554Z" fill="#788596"/>
<path d="M15.6368 3.56768C15.9496 3.2601 15.9496 2.76293 15.6368 2.45535L13.3744 0.230687C13.0616 -0.0768957 12.556 -0.0768957 12.2432 0.230687L10.044 2.39321L13.4376 5.7302L15.6368 3.56768Z" fill="#788596"/>
<path d="M12.8 12.8534H12V12.0667C12 11.6317 11.6424 11.2801 11.2 11.2801C10.7576 11.2801 10.4 11.6317 10.4 12.0667V12.8534H9.6C9.1576 12.8534 8.8 13.205 8.8 13.64C8.8 14.0751 9.1576 14.4267 9.6 14.4267H10.4V15.2133C10.4 15.6484 10.7576 16 11.2 16C11.6424 16 12 15.6484 12 15.2133V14.4267H12.8C13.2424 14.4267 13.6 14.0751 13.6 13.64C13.6 13.205 13.2424 12.8534 12.8 12.8534Z" fill="#788596"/>
<path d="M0.8 6.56012H1.6V7.34678C1.6 7.7818 1.9576 8.13344 2.4 8.13344C2.8424 8.13344 3.2 7.7818 3.2 7.34678V6.56012H4C4.4424 6.56012 4.8 6.20849 4.8 5.77347C4.8 5.33845 4.4424 4.98681 4 4.98681H3.2V4.20015C3.2 3.76513 2.8424 3.4135 2.4 3.4135C1.9576 3.4135 1.6 3.76513 1.6 4.20015V4.98681H0.8C0.3576 4.98681 0 5.33845 0 5.77347C0 6.20849 0.3576 6.56012 0.8 6.56012Z" fill="#788596"/>
<path d="M13.6 8.92009H12V10.4934H13.6V8.92009Z" fill="#788596"/>
<path d="M8.8 0.266873H7.2V1.84019H8.8V0.266873Z" fill="#788596"/>
<path d="M6.4 1.84019H4.8V3.4135H6.4V1.84019Z" fill="#788596"/>
<path d="M4 0.266873H2.4V1.84019H4V0.266873Z" fill="#788596"/>
<path d="M16 6.56012H14.4V8.13344H16V6.56012Z" fill="#788596"/>
<path d="M16 10.4934H14.4V12.0667H16V10.4934Z" fill="#788596"/>
</g>
<defs>
<clipPath id="clip0_799_4802">
<rect width="16" height="16" fill="white"/>
</clipPath>
</defs>
</svg>
