<svg width="20" height="21" viewBox="0 0 20 21" fill="none" xmlns="http://www.w3.org/2000/svg">
<path d="M18.5715 9.01723H4.87799L8.15352 5.57842C8.28996 5.44007 8.39878 5.27459 8.47365 5.09162C8.54852 4.90865 8.58792 4.71186 8.58957 4.51273C8.59122 4.3136 8.55508 4.11612 8.48325 3.93181C8.41142 3.74751 8.30535 3.58006 8.17123 3.43925C8.0371 3.29844 7.87761 3.18708 7.70205 3.11168C7.5265 3.03627 7.3384 2.99833 7.14872 3.00006C6.95905 3.00179 6.7716 3.04316 6.59732 3.12176C6.42304 3.20035 6.26541 3.3146 6.13364 3.45784L0.419673 9.45664C0.286643 9.59595 0.181098 9.76144 0.109083 9.94364C0.0370689 10.1258 0 10.3212 0 10.5184C0 10.7157 0.0370689 10.911 0.109083 11.0932C0.181098 11.2754 0.286643 11.4409 0.419673 11.5802L6.13364 17.579C6.40305 17.8522 6.76389 18.0034 7.13844 17.9999C7.51298 17.9965 7.87127 17.8388 8.13612 17.5607C8.40098 17.2827 8.55121 16.9065 8.55446 16.5133C8.55772 16.1201 8.41373 15.7413 8.15352 15.4584L4.87799 12.0166H18.5715C18.9504 12.0166 19.3137 11.8586 19.5816 11.5774C19.8495 11.2961 20 10.9147 20 10.5169C20 10.1192 19.8495 9.73773 19.5816 9.45648C19.3137 9.17523 18.9504 9.01723 18.5715 9.01723Z" fill="#FF6800"/>
</svg>
