<svg width="15" height="14" viewBox="0 0 15 14" fill="none" xmlns="http://www.w3.org/2000/svg">
<g clip-path="url(#clip0_39_554)">
<path d="M13.1 1.75H1.9C1.5287 1.75 1.1726 1.90804 0.91005 2.18934C0.6475 2.47064 0.5 2.85218 0.5 3.25V10.75C0.5 11.1478 0.6475 11.5294 0.91005 11.8107C1.1726 12.092 1.5287 12.25 1.9 12.25H13.1C13.4713 12.25 13.8274 12.092 14.0899 11.8107C14.3525 11.5294 14.5 11.1478 14.5 10.75V3.25C14.5 2.85218 14.3525 2.47064 14.0899 2.18934C13.8274 1.90804 13.4713 1.75 13.1 1.75ZM1.9 10.75V6.25H13.1V10.75H1.9Z" fill="#1D2939"/>
<path d="M4.7 7.75H3.3C3.11435 7.75 2.9363 7.82902 2.80503 7.96967C2.67375 8.11032 2.6 8.30109 2.6 8.5C2.6 8.69891 2.67375 8.88968 2.80503 9.03033C2.9363 9.17098 3.11435 9.25 3.3 9.25H4.7C4.88565 9.25 5.0637 9.17098 5.19497 9.03033C5.32625 8.88968 5.4 8.69891 5.4 8.5C5.4 8.30109 5.32625 8.11032 5.19497 7.96967C5.0637 7.82902 4.88565 7.75 4.7 7.75Z" fill="#1D2939"/>
<path d="M10.3 7.75H6.8C6.61435 7.75 6.4363 7.82902 6.30503 7.96967C6.17375 8.11032 6.1 8.30109 6.1 8.5C6.1 8.69891 6.17375 8.88968 6.30503 9.03033C6.4363 9.17098 6.61435 9.25 6.8 9.25H10.3C10.4857 9.25 10.6637 9.17098 10.795 9.03033C10.9263 8.88968 11 8.69891 11 8.5C11 8.30109 10.9263 8.11032 10.795 7.96967C10.6637 7.82902 10.4857 7.75 10.3 7.75Z" fill="#1D2939"/>
</g>
<defs>
<clipPath id="clip0_39_554">
<rect width="14" height="14" fill="white" transform="translate(0.5)"/>
</clipPath>
</defs>
</svg>
