<svg version="1.1" id="Layer_1" xmlns="http://www.w3.org/2000/svg" xmlns:xlink="http://www.w3.org/1999/xlink" x="0px" y="0px"
	 width="100%" viewBox="0 0 686 446" enable-background="new 0 0 686 446" xml:space="preserve">
<path fill="#FEFEFE" opacity="1.000000" stroke="none" 
	d="
M496.000000,447.000000 
	C330.666656,447.000000 165.833328,447.000000 1.000000,447.000000 
	C1.000000,298.333344 1.000000,149.666672 1.000000,1.000000 
	C229.666672,1.000000 458.333344,1.000000 687.000000,1.000000 
	C687.000000,149.666672 687.000000,298.333344 687.000000,447.000000 
	C623.500000,447.000000 560.000000,447.000000 496.000000,447.000000 
M284.683716,430.063599 
	C285.456482,429.421906 288.938049,431.697205 286.991425,427.145477 
	C287.016327,424.818054 287.041199,422.490631 287.729797,419.757294 
	C290.508514,417.831512 291.808197,419.385834 291.903229,421.942200 
	C291.999878,424.541809 291.401917,427.167267 291.116913,429.703217 
	C292.320404,429.703217 293.996033,429.703217 295.232330,429.703217 
	C295.094574,427.238403 294.915009,425.139648 294.871582,423.038086 
	C294.740387,416.688538 292.760437,415.413239 287.000916,418.001129 
	C287.000916,418.001129 286.979218,418.006866 286.748932,417.371124 
	C285.761658,417.605347 284.774414,417.839569 283.945404,418.748291 
	C284.077759,419.190063 284.210114,419.631805 284.175018,420.830231 
	C284.239716,421.855438 284.304413,422.880646 284.194397,424.624146 
	C284.254547,425.109619 284.314728,425.595123 284.167908,426.693451 
	C284.107452,427.120392 284.046967,427.547333 283.429657,428.186493 
	C283.040833,428.630157 282.652039,429.073853 282.057953,429.751770 
	C282.874084,429.791321 283.437073,429.818604 284.683716,430.063599 
M217.455765,420.863586 
	C217.340912,421.468506 217.226059,422.073395 216.371490,422.673157 
	C213.309723,423.119690 209.223633,423.145660 210.027664,427.539612 
	C210.929382,432.467499 214.792099,429.599609 217.555634,429.292877 
	C217.708527,429.275879 217.873077,429.363708 218.532547,429.944000 
	C219.321045,429.944000 220.109543,429.944000 220.582275,429.944000 
	C220.427109,427.017944 220.262772,424.329041 220.146591,421.638000 
	C219.941696,416.891937 219.016449,416.256409 213.943146,417.589081 
	C215.043991,418.092377 216.030716,418.543488 217.122360,419.519287 
	C217.233978,419.658417 217.345581,419.797516 217.455765,420.863586 
M119.650681,428.992554 
	C120.801712,429.385406 121.952744,429.778259 122.753120,430.051422 
	C122.556549,426.903442 122.496964,424.355530 122.209000,421.833679 
	C121.971382,419.752747 123.622879,416.012970 119.823265,416.962708 
	C119.487480,420.936584 119.196663,424.378204 118.033966,427.918732 
	C116.890076,427.006836 115.174538,426.305695 114.741600,425.131622 
	C114.150780,423.529388 114.840706,421.488678 114.402260,419.785034 
	C114.087357,418.561462 112.824722,417.581757 111.984879,416.493256 
	C111.611237,416.793365 111.237595,417.093445 110.863953,417.393555 
	C111.131813,417.936279 111.588913,418.464020 111.633316,419.024445 
	C111.788628,420.984161 111.801849,422.955200 111.868378,424.921936 
	C112.053261,430.388153 114.107430,431.470459 119.650681,428.992554 
M489.626953,429.072693 
	C490.694702,429.492615 491.762482,429.912537 492.779846,430.312653 
	C492.574402,427.169556 492.539062,424.585175 492.197174,422.041992 
	C491.921082,419.988007 493.882935,416.153320 489.847687,416.917847 
	C489.490295,420.814270 489.174652,424.255646 488.001801,427.881805 
	C486.862823,427.130188 485.058502,426.593903 484.730347,425.579865 
	C484.138672,423.751770 484.716278,421.567017 484.247070,419.669312 
	C483.961853,418.515717 482.630280,417.620819 481.417999,416.198120 
	C481.618347,419.983032 481.795319,422.412079 481.865875,424.844208 
	C482.029388,430.478668 483.899384,431.514099 489.626953,429.072693 
M66.019028,417.723419 
	C65.171188,418.351166 64.323349,418.978912 63.256542,419.768768 
	C62.295197,416.833527 61.454437,414.266449 60.475075,411.276215 
	C59.418797,411.363037 57.925823,411.485748 56.169392,411.630127 
	C59.334431,417.712860 64.463982,422.691681 60.935627,430.152557 
	C63.035156,430.039276 64.639526,429.952667 65.173973,429.923828 
	C65.443710,425.334778 65.688805,421.165070 66.137505,416.471649 
	C66.712051,416.354187 67.286598,416.236725 67.433449,416.206726 
	C67.190010,416.345154 66.585747,416.688843 66.019028,417.723419 
M305.362488,182.990494 
	C280.659027,216.976883 275.680939,252.333832 297.623291,289.665588 
	C280.948914,293.733307 273.807800,302.395782 275.868347,316.377777 
	C277.520721,327.590363 288.396637,335.689972 301.000275,333.790436 
	C305.710510,333.080475 310.589844,330.060547 314.289703,326.830994 
	C320.892517,321.067505 320.830353,312.912720 319.402435,304.477539 
	C345.339264,312.903412 367.489868,308.189667 386.433807,287.781250 
	C382.673981,286.622101 379.705872,285.776337 376.783234,284.795166 
	C349.971954,275.794403 329.932617,258.892181 316.850494,233.718491 
	C308.566864,217.778442 305.911316,200.713684 306.109009,182.917496 
	C306.109009,182.917496 306.103821,182.788422 306.103821,182.788422 
	C306.103821,182.788422 306.061890,183.083832 305.362488,182.990494 
M263.908844,247.630539 
	C266.999756,249.151016 270.090637,250.671509 273.029541,252.117203 
	C272.403748,196.990112 298.216095,161.344513 349.860870,144.042770 
	C324.692383,131.433258 266.821838,135.131683 244.356995,169.579453 
	C235.657623,155.407761 224.597488,150.738815 212.722412,156.225143 
	C202.359802,161.012726 197.250183,172.626633 200.767029,183.380905 
	C202.554688,188.847458 205.941544,193.042633 210.942780,195.838776 
	C219.367340,200.548920 227.745316,199.268616 236.315582,194.647934 
	C235.826782,217.580093 244.441147,235.096771 263.908844,247.630539 
M429.864075,287.017700 
	C432.895782,299.284760 441.898499,306.003174 454.210876,305.186920 
	C464.808105,304.484314 473.858063,295.969147 474.448181,284.700104 
	C474.683350,280.209839 472.922943,275.144592 470.693848,271.100128 
	C466.836060,264.100647 459.678131,261.544525 451.478912,260.493591 
	C467.785004,238.548584 469.530090,216.237106 456.027924,192.672913 
	C423.646149,237.674942 381.585327,251.667068 329.216614,236.052765 
	C354.958984,268.656464 386.758881,286.320892 429.740234,276.659515 
	C429.740234,279.569580 429.740234,282.849823 429.864075,287.017700 
M379.974976,108.553764 
	C370.266876,96.172264 358.572418,86.534729 342.611633,82.590401 
	C353.812469,70.797546 355.078003,58.885677 346.702789,49.180923 
	C339.428619,40.751991 325.830322,39.134335 316.789246,45.568707 
	C311.636566,49.235786 308.588348,54.206326 307.502258,60.371021 
	C305.904022,69.442902 310.392212,76.218086 316.547241,82.298515 
	C286.983978,95.320686 271.064026,114.720596 273.441315,134.235504 
	C325.034729,117.013237 367.525543,129.687103 400.776062,173.353790 
	C402.093384,150.996948 394.997406,128.859833 379.974976,108.553764 
M410.894470,168.382599 
	C410.331329,191.240387 402.205444,211.336609 387.423065,230.152710 
	C404.932098,225.420090 419.109070,217.394638 430.964294,205.608871 
	C446.957672,189.709229 458.582855,171.580566 457.395355,147.672028 
	C476.871948,153.603287 487.003571,150.775482 492.395874,138.153488 
	C496.766998,127.921928 492.797089,116.190491 483.051941,110.541252 
	C471.413147,103.794250 460.549530,107.789452 449.559875,122.858276 
	C427.956879,99.165970 405.319305,90.483871 385.903564,98.785019 
	C402.641449,118.640724 411.604706,141.303589 410.894470,168.382599 
M300.733185,368.234650 
	C298.264099,361.323639 294.464478,360.529022 287.752838,365.084503 
	C285.359772,364.103760 282.674866,361.982880 281.309143,362.632965 
	C277.026703,364.671692 273.077057,362.471436 269.029938,362.797668 
	C268.029816,362.878296 267.055817,363.282623 265.647247,363.647644 
	C270.490784,366.948669 270.035431,381.460663 266.288208,385.746948 
	C270.104034,385.746948 273.516815,385.746948 275.590668,385.746948 
	C275.196045,380.695587 274.420013,375.999207 274.691315,371.364105 
	C274.784912,369.764893 277.486298,368.318329 278.996429,366.802032 
	C280.025116,368.379517 281.892059,369.940063 281.924438,371.537720 
	C282.019318,376.223145 281.384491,380.923401 281.036407,385.605408 
	C283.417755,385.605408 286.779694,385.605408 290.742218,385.605408 
	C285.934601,380.292938 287.824341,374.760468 288.337067,369.554932 
	C288.440918,368.500824 291.008423,367.200775 292.567871,366.998352 
	C293.276733,366.906342 295.043457,369.212769 295.045776,370.433716 
	C295.055359,375.457306 294.571777,380.481781 294.259583,385.671143 
	C296.476562,385.671143 299.854675,385.671143 302.585510,385.671143 
	C301.969788,382.678589 301.234436,380.154572 300.979584,377.582886 
	C300.701569,374.777405 300.868744,371.927795 300.733185,368.234650 
M227.718216,372.086639 
	C228.532806,370.916504 229.242157,369.653137 230.181046,368.593079 
	C233.439789,364.913818 233.480820,358.909515 230.184509,355.898895 
	C226.737808,352.751007 213.232437,352.006683 209.075851,354.735565 
	C212.918671,358.950195 213.026016,378.907654 209.091278,385.731354 
	C212.847641,385.731354 216.446457,385.731354 219.102890,385.731354 
	C218.364960,381.344849 217.677719,377.259674 216.990479,373.174530 
	C217.550842,372.822479 218.111206,372.470459 218.671555,372.118408 
	C220.218872,373.206268 222.134064,374.014038 223.226257,375.448456 
	C224.816574,377.537079 225.779892,380.096008 227.072174,382.420135 
	C229.518829,386.820435 231.953491,387.443390 236.946732,385.023712 
	C235.389954,383.209076 233.687958,381.494568 232.312057,379.549377 
	C230.785126,377.390594 229.555862,375.021271 227.718216,372.086639 
M399.684631,378.309753 
	C398.997681,380.662415 398.310699,383.015045 397.546448,385.632324 
	C400.720825,385.632324 404.363220,385.632324 406.980774,385.632324 
	C406.251648,381.289032 405.588806,377.340515 404.925995,373.391998 
	C405.419586,373.005188 405.913177,372.618378 406.406769,372.231598 
	C407.975708,373.188171 409.990570,373.810303 411.014648,375.175629 
	C412.786774,377.538239 413.895813,380.389374 415.371399,382.985321 
	C417.593719,386.894958 420.626282,387.455597 424.415283,385.137939 
	C421.295715,380.505554 418.163696,375.854675 415.055573,371.239288 
	C421.493469,365.803894 422.672424,358.588348 417.468628,355.496307 
	C411.030823,351.671082 403.945435,353.252930 397.811005,353.668304 
	C398.540955,357.063904 399.465302,359.706787 399.609070,362.391479 
	C399.875397,367.364532 399.685242,372.362091 399.684631,378.309753 
M613.598083,373.765472 
	C616.411743,378.249359 613.739685,382.781189 612.831604,386.843994 
	C611.756348,391.655151 611.966919,394.910583 616.843628,395.895081 
	C619.868286,396.505707 623.140930,396.602356 626.198242,396.178833 
	C631.609253,395.429199 634.537231,391.985779 633.965881,387.621460 
	C633.267334,382.285919 629.278992,381.923737 625.051331,381.898682 
	C622.678528,381.884583 620.307251,381.625031 617.935242,381.476074 
	C617.727722,380.823730 617.520203,380.171387 617.312622,379.519043 
	C625.652344,379.081451 633.959778,378.610504 631.620239,368.070801 
	C632.959290,366.401642 633.848450,365.293243 634.737671,364.184845 
	C633.469421,363.749420 632.229858,363.100189 630.926697,362.925781 
	C628.633179,362.618805 626.296997,362.648407 623.985596,362.455139 
	C616.482300,361.827667 612.891907,365.354553 613.598083,373.765472 
M64.922058,383.496033 
	C70.246376,377.618744 70.602982,370.677429 69.110992,363.404724 
	C67.776680,356.900574 63.748978,353.339874 57.582752,352.987396 
	C51.211060,352.623138 45.985050,355.784882 44.252083,361.908966 
	C43.235832,365.500275 42.876099,369.457153 43.117661,373.191589 
	C43.906124,385.380798 53.727097,390.249390 64.922058,383.496033 
M154.233780,386.205872 
	C157.043640,386.205872 159.853516,386.205872 162.051727,386.205872 
	C161.236877,382.621155 160.427689,380.146301 160.163162,377.614563 
	C159.853531,374.651184 160.164246,371.627258 159.941116,368.649445 
	C159.650787,364.774536 157.080643,361.571289 153.590927,362.673706 
	C149.251205,364.044556 145.392578,362.404144 141.353210,362.794189 
	C140.332764,362.892700 139.337631,363.253510 139.648163,363.179413 
	C140.215332,367.469757 141.061386,371.084045 141.068558,374.699982 
	C141.075897,378.387207 140.258591,382.076111 139.802460,385.763184 
	C142.460007,385.763184 145.775162,385.763184 149.906433,385.763184 
	C144.901657,380.821686 146.842056,375.390289 147.121567,370.354553 
	C147.191315,369.098175 149.650848,367.475952 151.285095,367.035675 
	C151.998230,366.843597 154.323517,369.204254 154.324905,370.407471 
	C154.330399,375.126556 156.896545,380.363770 152.258820,384.451294 
	C152.194199,384.508240 153.014603,385.569397 154.233780,386.205872 
M86.887482,363.690887 
	C86.155472,363.870575 84.996391,364.436401 84.756523,364.171082 
	C81.889046,360.999542 79.085678,363.032776 75.771484,363.614380 
	C79.934494,367.883606 80.248230,379.636932 76.624619,385.713501 
	C80.225853,385.713501 83.614799,385.713501 87.599663,385.713501 
	C82.843559,380.758728 84.434998,375.345551 84.975121,370.318268 
	C85.117790,368.990326 87.984512,367.955078 89.600403,366.785461 
	C90.503929,368.167419 92.158417,369.540405 92.174973,370.932922 
	C92.232468,375.769318 91.721512,380.612457 91.413391,385.672974 
	C93.590523,385.672974 96.978424,385.672974 99.568535,385.672974 
	C98.969551,382.554565 98.302132,379.901459 97.992683,377.207214 
	C97.747887,375.075989 97.993469,372.892853 97.932884,370.735260 
	C97.733994,363.651855 94.662544,361.441437 86.887482,363.690887 
M598.213501,362.441040 
	C593.276733,365.244415 587.657166,361.226044 582.226501,363.563995 
	C586.693726,367.465851 586.457336,380.711731 582.814026,385.720734 
	C586.465149,385.720734 589.861450,385.720734 594.367493,385.720734 
	C588.763367,380.793427 591.270630,375.280731 591.259094,370.254974 
	C591.256470,369.098236 593.846252,367.596649 595.513000,366.955414 
	C596.111511,366.725098 598.357910,368.527130 598.394836,369.459351 
	C598.607971,374.837433 600.880127,380.563568 595.785706,385.519745 
	C599.919678,385.519745 603.395142,385.519745 606.142517,385.519745 
	C605.380371,382.646576 604.479126,380.334473 604.209778,377.950958 
	C603.894531,375.159821 604.167725,372.305756 604.115906,369.480286 
	C604.051697,365.976105 602.756897,363.342468 598.213501,362.441040 
M503.730957,362.887482 
	C502.775177,363.149689 501.819427,363.411865 501.651428,363.457947 
	C502.392273,366.445343 503.233002,368.811951 503.513336,371.243134 
	C503.815948,373.867767 503.483612,376.558716 503.623779,379.210419 
	C503.973145,385.821991 508.154327,388.327942 514.184570,385.666931 
	C515.052368,385.283966 516.072205,384.769012 516.922241,384.910858 
	C519.561951,385.351410 522.153809,386.078888 524.764221,386.695038 
	C524.900391,386.223328 525.036560,385.751617 525.172729,385.279907 
	C519.229736,378.632324 524.206909,370.369751 521.640869,362.811798 
	C519.242249,362.957947 516.786621,363.107544 513.696960,363.295807 
	C518.867065,368.583374 516.819946,374.158386 516.394165,379.323578 
	C516.302856,380.431488 513.480042,381.851562 511.790405,382.047119 
	C511.028992,382.135223 509.254547,379.617249 509.159241,378.199738 
	C508.828186,373.274719 509.031403,368.313782 509.031403,363.136383 
	C507.202789,363.032623 505.918304,362.959747 503.730957,362.887482 
M359.885742,365.349060 
	C359.091522,366.605042 358.087677,367.776184 357.539154,369.131592 
	C355.096619,375.167755 356.952667,382.861023 361.334290,385.370026 
	C366.284363,388.204529 372.177277,386.656586 375.899323,380.773621 
	C374.446289,380.533142 372.991211,380.602234 371.795502,381.194702 
	C366.100403,384.016663 362.766113,381.913696 362.593292,374.799500 
	C367.185516,374.799500 371.771942,374.799500 376.560547,374.799500 
	C376.705292,370.223083 376.445251,366.179016 372.524719,363.825897 
	C368.411346,361.357117 364.243774,361.914520 359.885742,365.349060 
M326.441376,363.916840 
	C324.702515,363.406799 322.983521,362.556152 321.220917,362.453522 
	C316.783234,362.195251 312.861969,363.521179 310.874084,367.864960 
	C308.523102,373.002228 308.347504,378.343048 311.718201,383.052002 
	C314.432373,386.843811 318.649994,387.325012 322.990112,386.268677 
	C331.828979,384.117371 334.062622,372.069458 326.441376,363.916840 
M171.527252,383.976501 
	C176.796524,387.611389 181.804062,387.714081 186.055832,384.003784 
	C186.915054,383.253967 187.092438,381.722839 187.584167,380.551941 
	C186.441864,380.675262 185.147629,380.492523 184.182007,380.971802 
	C178.061234,384.009857 174.796982,382.101776 174.617081,374.830414 
	C179.206131,374.830414 183.790268,374.830414 188.321396,374.830414 
	C189.002106,367.160095 186.320801,363.051178 180.542496,362.430756 
	C174.264664,361.756683 169.158920,365.784851 168.934616,372.500519 
	C168.813919,376.114716 170.271652,379.781586 171.527252,383.976501 
M440.243469,382.267822 
	C435.201630,382.507690 434.156158,379.413147 434.206085,374.780762 
	C438.961884,374.780762 443.541382,374.780762 448.064819,374.780762 
	C448.501404,367.272430 446.558105,363.820801 441.550781,362.691040 
	C436.239746,361.492767 431.325256,363.998444 429.342041,368.915802 
	C426.963806,374.812592 428.699036,382.659363 432.953064,385.245178 
	C437.788727,388.184418 443.338287,386.871429 448.051666,381.580933 
	C445.337769,377.270874 443.389160,382.835144 440.243469,382.267822 
M246.083771,376.109589 
	C250.764603,375.521973 255.445419,374.934387 260.118744,374.347717 
	C260.554779,367.355438 258.555878,363.806244 253.577225,362.689636 
	C248.275269,361.500519 243.342651,364.019806 241.369049,368.924866 
	C239.013535,374.779114 240.766647,382.692932 244.989777,385.269409 
	C249.776001,388.189423 255.378754,386.855072 259.857025,380.955475 
	C258.445007,380.601776 256.974915,380.526733 255.822571,381.095459 
	C250.717056,383.615479 248.038376,382.537262 246.083771,376.109589 
M559.583679,381.820587 
	C556.735779,382.809601 554.961853,382.045288 554.912231,378.800781 
	C554.851562,374.840210 554.897766,370.878052 554.897766,367.433289 
	C557.108582,365.143066 562.053711,368.978882 561.997131,363.117004 
	C559.518372,362.945374 557.256470,362.788788 554.963867,362.630066 
	C554.654968,359.601959 555.594238,355.669281 551.164673,357.059204 
	C549.321838,360.238220 547.776062,362.904755 545.951904,366.051514 
	C550.296265,365.692291 549.033691,368.954468 549.129211,371.463226 
	C549.249695,374.623352 548.781250,377.923981 549.566956,380.900055 
	C550.109863,382.956543 552.118652,385.747498 553.880737,386.086243 
	C556.261719,386.544006 559.372681,385.494354 561.544373,384.109650 
	C563.726501,382.718292 562.627258,381.373199 559.583679,381.820587 
M469.958099,380.579651 
	C465.186249,383.210052 461.897552,382.749451 461.179535,378.865143 
	C460.595032,375.703247 460.668274,372.184296 461.437347,369.067322 
	C462.392731,365.195374 465.539032,364.948700 468.401245,367.830750 
	C469.400513,368.837006 471.046234,369.201263 472.891113,370.099365 
	C472.891113,367.092529 472.891113,365.316162 472.891113,363.601715 
	C459.919708,360.232391 452.498718,366.663483 455.071991,378.858124 
	C455.835754,382.477539 457.647217,385.965118 461.586151,386.085480 
	C464.952362,386.188324 468.621765,385.141052 471.684601,383.639038 
	C474.161591,382.424347 473.774200,380.454346 469.958099,380.579651 
M481.052582,377.268982 
	C480.540070,380.001953 480.027588,382.734924 479.454224,385.792511 
	C482.324341,385.792511 485.757629,385.792511 490.555817,385.792511 
	C484.317078,381.062561 486.874603,375.500549 487.047546,370.535950 
	C487.129730,368.177643 488.973511,365.140717 492.510010,368.436005 
	C493.327881,369.198090 495.100800,368.935242 496.395081,369.137878 
	C496.395081,366.570312 496.395081,364.670776 496.395081,361.483063 
	C490.197449,365.028229 484.087708,361.602814 479.548126,362.832062 
	C480.105499,367.842865 480.579071,372.100220 481.052582,377.268982 
M344.993164,375.281525 
	C344.993164,372.480499 344.993164,369.679474 344.993164,367.752747 
	C347.096069,364.987762 352.179382,368.735046 352.489197,362.800934 
	C349.629761,362.800934 347.526184,362.800934 345.328735,362.800934 
	C345.070618,360.778839 344.848450,359.038635 344.620575,357.253418 
	C337.220825,355.653046 341.574280,365.444977 337.156067,364.791473 
	C338.093079,367.198547 339.178406,369.039795 339.479767,371.001495 
	C339.853271,373.432739 339.491608,375.967590 339.602600,378.450775 
	C339.752838,381.812744 339.894623,385.280823 344.099854,386.336365 
	C347.915283,387.294098 350.748871,385.810333 354.036438,381.669525 
	C350.946747,381.905029 348.386597,382.850830 347.421234,381.995880 
	C346.011383,380.747406 345.746826,378.205658 344.993164,375.281525 
M110.562309,386.210205 
	C112.460472,386.210205 114.358627,386.210205 115.593933,386.210205 
	C114.953156,382.303101 114.069756,379.135803 113.982437,375.946686 
	C113.765305,368.015717 113.911003,360.074799 113.911003,351.702423 
	C110.634125,351.976898 108.035553,352.194580 104.841385,352.462158 
	C109.486664,357.706482 109.846382,378.799683 105.861198,385.812378 
	C107.272453,385.956573 108.514214,386.083466 110.562309,386.210205 
M537.147644,362.598267 
	C534.945862,362.725769 532.744019,362.853271 530.529358,362.981537 
	C534.713379,370.974762 533.991760,378.290527 531.150696,385.810303 
	C534.529785,385.810303 537.840088,385.810303 540.446228,385.810303 
	C539.877197,382.292908 539.211792,379.128876 538.885193,375.930298 
	C538.440552,371.575989 538.254517,367.195282 537.147644,362.598267 
M572.293762,362.641571 
	C570.240051,362.780670 568.186279,362.919739 565.909058,363.073975 
	C570.874939,370.812592 569.581482,378.108673 567.133667,385.597046 
	C570.203613,385.597046 573.544678,385.597046 576.079651,385.597046 
	C575.452393,382.407043 574.752441,379.718994 574.424438,376.986359 
	C573.853821,372.231873 573.512695,367.449860 572.293762,362.641571 
M130.181122,371.517700 
	C130.181122,368.725189 130.181122,365.932678 130.181122,362.602264 
	C127.150558,362.803864 124.564629,362.975891 122.110611,363.139099 
	C126.465981,371.030731 125.914658,378.284851 122.684944,385.538574 
	C126.053658,385.538574 129.435532,385.538574 131.383743,385.538574 
	C130.950012,380.827026 130.565582,376.650848 130.181122,371.517700 
M186.772339,411.253662 
	C185.518219,411.346771 184.264099,411.439880 183.381866,411.505402 
	C183.381866,417.791656 183.381866,423.730560 183.381866,429.884369 
	C184.631058,429.884369 186.210373,429.884369 187.550079,429.884369 
	C187.259293,427.435394 186.985031,425.125610 186.687958,422.623779 
	C188.644608,422.355774 190.142059,422.315399 191.543259,421.927399 
	C195.485947,420.835663 197.220871,415.177032 194.099808,412.929688 
	C192.404953,411.709290 189.786575,411.771484 186.772339,411.253662 
M563.620972,423.431183 
	C565.694946,423.431183 567.768860,423.431183 570.061646,423.431183 
	C570.106384,419.653137 569.314270,417.217285 565.727905,416.783447 
	C562.218384,416.358978 559.843201,418.012146 559.142273,421.356750 
	C558.447144,424.673615 558.364563,428.489807 562.260803,429.750641 
	C564.300659,430.410767 566.963135,429.146759 569.344421,428.751740 
	C569.262756,428.259338 569.181030,427.766937 569.099365,427.274536 
	C563.139587,429.004822 561.920105,428.301392 563.620972,423.431183 
M319.729248,423.393921 
	C320.549316,422.566010 322.193390,421.205658 322.057526,420.995392 
	C321.075043,419.474884 319.963928,417.458191 318.455414,416.979614 
	C315.483398,416.036743 312.840546,417.271881 311.729004,420.469269 
	C310.562347,423.825348 310.473694,427.352692 313.766693,429.399231 
	C316.639252,431.184479 319.733887,430.799530 321.996826,427.347870 
	C315.141174,428.763580 314.806580,428.596252 314.570129,423.597107 
	C316.018463,423.527039 317.477692,423.456451 319.729248,423.393921 
M389.121338,420.443054 
	C389.121338,418.029816 389.121338,415.616547 389.121338,411.802094 
	C391.694702,413.825867 393.158417,414.976959 394.901672,416.347931 
	C394.901672,414.518219 394.901672,413.098389 394.901672,411.588379 
	C389.896027,411.588379 385.164520,411.588379 379.970459,411.588379 
	C380.152802,413.422363 380.291901,414.821625 380.457611,416.488464 
	C382.446289,414.891205 383.810150,413.795776 385.516052,412.425629 
	C385.516052,418.820679 385.516052,424.303986 385.516052,429.805420 
	C386.998138,429.805420 388.737183,429.805420 389.682648,429.805420 
	C389.483429,426.806183 389.302368,424.079742 389.121338,420.443054 
M463.477325,421.021057 
	C460.688354,418.799866 455.759949,418.366943 457.378296,412.485748 
	C453.002228,415.975769 453.673096,418.207245 458.805328,421.631866 
	C460.385223,422.686127 461.458588,424.624878 462.428131,426.347534 
	C462.593964,426.642181 460.788696,428.701508 460.364685,428.557739 
	C458.658081,427.979004 457.147034,426.835693 455.533112,425.957214 
	C455.319244,425.840759 454.929230,426.047882 453.641998,426.286774 
	C454.521790,427.713684 455.215118,429.813751 455.927582,429.820251 
	C458.626617,429.845001 461.912537,429.955414 463.818604,428.506927 
	C464.975922,427.627411 464.004333,423.946472 463.477325,421.021057 
M410.833893,417.323914 
	C407.281189,419.672882 407.113281,423.216980 408.296234,426.612854 
	C408.818451,428.111969 411.006012,429.887695 412.524384,429.971924 
	C414.542419,430.083862 417.859131,429.178772 418.444946,427.792480 
	C419.485046,425.331024 419.858978,421.642334 418.665863,419.490479 
	C417.756226,417.849823 413.992615,417.791534 410.833893,417.323914 
M83.184502,423.532410 
	C83.328987,426.723419 84.067917,429.586334 87.828117,430.134277 
	C91.582756,430.681366 94.523766,429.518463 95.154594,425.356781 
	C95.698242,421.770233 95.635223,418.165466 91.185547,416.924866 
	C87.078888,415.779907 84.767380,417.556885 83.184502,423.532410 
M591.340393,419.133484 
	C592.177856,419.225311 593.015381,419.317139 593.852844,419.408997 
	C593.859497,418.764526 593.947632,417.569580 593.860840,417.556763 
	C592.092346,417.295197 590.169617,416.702026 588.562317,417.164459 
	C587.296143,417.528748 585.900452,419.080750 585.529541,420.381042 
	C585.251709,421.354889 586.255310,423.027893 587.154236,423.920410 
	C588.318237,425.076111 589.945374,425.765320 591.373108,426.655365 
	C591.230652,427.065399 591.088135,427.475403 590.945679,427.885437 
	C589.057190,427.709198 587.168701,427.532959 585.280212,427.356720 
	C585.891541,429.003632 587.061096,430.175964 588.136597,430.095184 
	C590.138611,429.944855 593.149841,429.666412 593.874084,428.385590 
	C597.239136,422.434570 588.522827,423.579498 588.021118,419.303680 
	C588.972412,419.210083 589.755005,419.133118 591.340393,419.133484 
M613.062988,420.309143 
	C614.401245,414.836487 616.974487,420.670776 618.799561,419.737091 
	C618.924377,419.386108 619.151794,418.833832 619.121460,418.819305 
	C617.601624,418.090973 615.944092,416.687439 614.550781,416.911011 
	C612.950867,417.167725 611.066284,418.606293 610.326965,420.053406 
	C609.943848,420.803497 611.443665,423.256866 612.656006,423.937347 
	C615.884705,425.749542 617.454590,427.359344 614.158386,430.854767 
	C615.841858,429.686310 617.525330,428.517822 619.208801,427.349335 
	C617.834167,425.577972 616.494873,423.777222 615.062256,422.054108 
	C614.661255,421.571838 613.984985,421.318481 613.062988,420.309143 
M542.026611,419.731873 
	C542.716003,419.646271 543.405396,419.560638 544.094849,419.475037 
	C543.929871,418.703186 543.658020,417.250061 543.615173,417.256775 
	C540.849670,417.690613 537.544617,417.475891 535.489807,418.971039 
	C532.671387,421.021881 533.281677,427.480194 536.014587,429.209473 
	C538.952209,431.068329 541.819214,430.941467 544.275696,427.075348 
	C542.600281,427.536926 541.474243,428.188416 540.474365,428.032104 
	C539.346680,427.855804 537.472839,427.015961 537.423950,426.354034 
	C537.249878,423.992432 537.604126,421.561127 538.093994,419.226593 
	C538.145569,418.980438 540.412598,419.199097 542.026611,419.731873 
M509.555786,427.437683 
	C513.118774,431.373810 515.976624,431.368225 517.944641,428.213745 
	C516.195984,427.703186 512.874084,427.523438 512.580017,426.485687 
	C511.935242,424.210358 512.824463,421.500336 513.087341,418.967834 
	C514.917664,419.205231 516.748047,419.442657 520.061646,419.872437 
	C518.522217,418.405701 517.780701,417.076141 516.802368,416.869843 
	C511.143250,415.676636 508.432495,419.277344 509.555786,427.437683 
M262.270386,414.159576 
	C259.686890,417.926819 262.446045,421.877747 261.958405,425.756866 
	C261.794739,427.058594 262.813751,429.243958 263.900696,429.771362 
	C265.104675,430.355560 267.005463,429.503723 267.589111,429.420959 
	C266.356873,427.487457 264.852997,426.050232 264.496094,424.369476 
	C263.819824,421.184845 263.939606,417.944183 268.288208,417.999176 
	C266.405243,416.543365 264.607758,415.153656 262.270386,414.159576 
M337.816223,417.195526 
	C338.203094,421.404541 338.589996,425.613525 339.003265,430.109467 
	C339.889099,430.036652 341.298462,429.920807 341.725250,429.885712 
	C341.725250,426.876068 341.037628,424.023468 341.941833,421.825836 
	C342.670868,420.054016 345.322266,419.073181 347.964325,417.116760 
	C345.791443,417.236206 344.435120,417.410309 343.087433,417.358704 
	C341.531738,417.299194 339.983612,417.040680 337.816223,417.195526 
M140.100067,422.607086 
	C139.968582,424.984070 139.837082,427.361023 139.688187,430.052521 
	C141.100967,429.977570 142.499481,429.903412 143.992508,429.824219 
	C141.670197,422.254883 142.507462,419.978180 149.160751,418.105743 
	C145.081879,417.634216 142.190399,417.299957 139.475876,416.986145 
	C139.726410,418.888336 139.913132,420.306122 140.100067,422.607086 
M240.372986,424.551300 
	C240.497757,417.110718 240.497757,417.110718 237.235718,417.356903 
	C237.442917,419.373016 237.804047,421.382904 237.814392,423.394592 
	C237.825562,425.565918 237.508636,427.738953 237.321960,430.072296 
	C238.698181,429.996185 239.953201,429.926819 241.209961,429.857330 
	C240.887512,428.159302 240.623428,426.768677 240.372986,424.551300 
M124.807060,358.040894 
	C126.396729,358.731842 127.986397,359.422760 129.992249,360.294556 
	C129.992249,357.377533 129.992249,355.675293 129.992249,353.991547 
	C127.086967,353.695679 124.126266,352.854340 124.807060,358.040894 
M574.314514,354.399994 
	C572.618347,354.171356 570.922119,353.942688 568.855164,353.664062 
	C568.969666,356.005463 569.054138,357.731720 569.130920,359.301819 
	C573.619446,360.685699 575.257385,359.249420 574.314514,354.399994 
M534.014099,359.509399 
	C535.562683,359.509399 537.111267,359.509399 538.828613,359.509399 
	C538.828613,357.445038 538.828613,355.860321 538.828613,354.016571 
	C536.923096,354.016571 535.199036,354.016571 533.043640,354.016571 
	C533.173462,355.851685 533.284668,357.423553 534.014099,359.509399 
z"/>
<path fill="#87227D" opacity="1.000000" stroke="none" 
	d="
M263.602295,247.430038 
	C244.441147,235.096771 235.826782,217.580093 236.315582,194.647934 
	C227.745316,199.268616 219.367340,200.548920 210.942780,195.838776 
	C205.941544,193.042633 202.554688,188.847458 200.767029,183.380905 
	C197.250183,172.626633 202.359802,161.012726 212.722412,156.225143 
	C224.597488,150.738815 235.657623,155.407761 244.356995,169.579453 
	C266.821838,135.131683 324.692383,131.433258 349.863220,144.044434 
	C298.216095,161.344513 272.403748,196.990112 273.029541,252.117203 
	C270.090637,250.671509 266.999756,249.151016 263.602295,247.430038 
z"/>
<path fill="#F14285" opacity="1.000000" stroke="none" 
	d="
M429.802155,286.573914 
	C429.740234,282.849823 429.740234,279.569580 429.740234,276.659515 
	C386.758881,286.320892 354.958984,268.656464 329.216614,236.052765 
	C381.585327,251.667068 423.646149,237.674942 456.027924,192.672913 
	C469.530090,216.237106 467.785004,238.548584 451.478912,260.493591 
	C459.678131,261.544525 466.836060,264.100647 470.693848,271.100128 
	C472.922943,275.144592 474.683350,280.209839 474.448181,284.700104 
	C473.858063,295.969147 464.808105,304.484314 454.210876,305.186920 
	C441.898499,306.003174 432.895782,299.284760 429.802155,286.573914 
z"/>
<path fill="#FC6904" opacity="1.000000" stroke="none" 
	d="
M305.996063,183.022919 
	C305.911316,200.713684 308.566864,217.778442 316.850494,233.718491 
	C329.932617,258.892181 349.971954,275.794403 376.783234,284.795166 
	C379.705872,285.776337 382.673981,286.622101 386.433807,287.781250 
	C367.489868,308.189667 345.339264,312.903412 319.402435,304.477539 
	C320.830353,312.912720 320.892517,321.067505 314.289703,326.830994 
	C310.589844,330.060547 305.710510,333.080475 301.000275,333.790436 
	C288.396637,335.689972 277.520721,327.590363 275.868347,316.377777 
	C273.807800,302.395782 280.948914,293.733307 297.623291,289.665588 
	C275.680939,252.333832 280.659027,216.976883 305.698517,183.018372 
	C306.034546,183.046265 305.996063,183.022919 305.996063,183.022919 
z"/>
<path fill="#F1594E" opacity="1.000000" stroke="none" 
	d="
M380.176147,108.846313 
	C394.997406,128.859833 402.093384,150.996948 400.776062,173.353790 
	C367.525543,129.687103 325.034729,117.013237 273.441315,134.235504 
	C271.064026,114.720596 286.983978,95.320686 316.547241,82.298515 
	C310.392212,76.218086 305.904022,69.442902 307.502258,60.371021 
	C308.588348,54.206326 311.636566,49.235786 316.789246,45.568707 
	C325.830322,39.134335 339.428619,40.751991 346.702789,49.180923 
	C355.078003,58.885677 353.812469,70.797546 342.611633,82.590401 
	C358.572418,86.534729 370.266876,96.172264 380.176147,108.846313 
z"/>
<path fill="#FDA111" opacity="1.000000" stroke="none" 
	d="
M410.901337,167.900116 
	C411.604706,141.303589 402.641449,118.640724 385.903564,98.785019 
	C405.319305,90.483871 427.956879,99.165970 449.559875,122.858276 
	C460.549530,107.789452 471.413147,103.794250 483.051941,110.541252 
	C492.797089,116.190491 496.766998,127.921928 492.395874,138.153488 
	C487.003571,150.775482 476.871948,153.603287 457.395355,147.672028 
	C458.582855,171.580566 446.957672,189.709229 430.964294,205.608871 
	C419.109070,217.394638 404.932098,225.420090 387.423065,230.152710 
	C402.205444,211.336609 410.331329,191.240387 410.901337,167.900116 
z"/>
<path fill="#111111" opacity="1.000000" stroke="none" 
	d="
M300.787537,368.666046 
	C300.868744,371.927795 300.701569,374.777405 300.979584,377.582886 
	C301.234436,380.154572 301.969788,382.678589 302.585510,385.671143 
	C299.854675,385.671143 296.476562,385.671143 294.259583,385.671143 
	C294.571777,380.481781 295.055359,375.457306 295.045776,370.433716 
	C295.043457,369.212769 293.276733,366.906342 292.567871,366.998352 
	C291.008423,367.200775 288.440918,368.500824 288.337067,369.554932 
	C287.824341,374.760468 285.934601,380.292938 290.742218,385.605408 
	C286.779694,385.605408 283.417755,385.605408 281.036407,385.605408 
	C281.384491,380.923401 282.019318,376.223145 281.924438,371.537720 
	C281.892059,369.940063 280.025116,368.379517 278.996429,366.802032 
	C277.486298,368.318329 274.784912,369.764893 274.691315,371.364105 
	C274.420013,375.999207 275.196045,380.695587 275.590668,385.746948 
	C273.516815,385.746948 270.104034,385.746948 266.288208,385.746948 
	C270.035431,381.460663 270.490784,366.948669 265.647247,363.647644 
	C267.055817,363.282623 268.029816,362.878296 269.029938,362.797668 
	C273.077057,362.471436 277.026703,364.671692 281.309143,362.632965 
	C282.674866,361.982880 285.359772,364.103760 287.752838,365.084503 
	C294.464478,360.529022 298.264099,361.323639 300.787537,368.666046 
z"/>
<path fill="#0C0C0C" opacity="1.000000" stroke="none" 
	d="
M227.957611,372.415131 
	C229.555862,375.021271 230.785126,377.390594 232.312057,379.549377 
	C233.687958,381.494568 235.389954,383.209076 236.946732,385.023712 
	C231.953491,387.443390 229.518829,386.820435 227.072174,382.420135 
	C225.779892,380.096008 224.816574,377.537079 223.226257,375.448456 
	C222.134064,374.014038 220.218872,373.206268 218.671555,372.118408 
	C218.111206,372.470459 217.550842,372.822479 216.990479,373.174530 
	C217.677719,377.259674 218.364960,381.344849 219.102890,385.731354 
	C216.446457,385.731354 212.847641,385.731354 209.091278,385.731354 
	C213.026016,378.907654 212.918671,358.950195 209.075851,354.735565 
	C213.232437,352.006683 226.737808,352.751007 230.184509,355.898895 
	C233.480820,358.909515 233.439789,364.913818 230.181046,368.593079 
	C229.242157,369.653137 228.532806,370.916504 227.957611,372.415131 
M224.894226,367.592072 
	C225.080231,364.660248 226.223602,361.276001 225.125031,358.951172 
	C224.357040,357.325958 220.522934,357.149567 217.718781,356.212646 
	C217.718781,361.195831 217.718781,365.045227 217.718781,369.553802 
	C220.215607,368.988953 222.233536,368.532440 224.894226,367.592072 
z"/>
<path fill="#0C0C0C" opacity="1.000000" stroke="none" 
	d="
M399.684937,377.829590 
	C399.685242,372.362091 399.875397,367.364532 399.609070,362.391479 
	C399.465302,359.706787 398.540955,357.063904 397.811005,353.668304 
	C403.945435,353.252930 411.030823,351.671082 417.468628,355.496307 
	C422.672424,358.588348 421.493469,365.803894 415.055573,371.239288 
	C418.163696,375.854675 421.295715,380.505554 424.415283,385.137939 
	C420.626282,387.455597 417.593719,386.894958 415.371399,382.985321 
	C413.895813,380.389374 412.786774,377.538239 411.014648,375.175629 
	C409.990570,373.810303 407.975708,373.188171 406.406769,372.231598 
	C405.913177,372.618378 405.419586,373.005188 404.925995,373.391998 
	C405.588806,377.340515 406.251648,381.289032 406.980774,385.632324 
	C404.363220,385.632324 400.720825,385.632324 397.546448,385.632324 
	C398.310699,383.015045 398.997681,380.662415 399.684937,377.829590 
M405.387024,367.965759 
	C407.872070,367.847382 411.430481,368.673798 412.574036,367.374603 
	C414.047272,365.700806 414.732605,361.622375 413.656982,359.865540 
	C412.417480,357.841095 408.887024,357.219269 406.302307,355.964447 
	C405.631012,357.572693 405.400635,357.871704 405.396484,358.173828 
	C405.355988,361.139221 405.353149,364.105164 405.387024,367.965759 
z"/>
<path fill="#101010" opacity="1.000000" stroke="none" 
	d="
M613.447754,373.383240 
	C612.891907,365.354553 616.482300,361.827667 623.985596,362.455139 
	C626.296997,362.648407 628.633179,362.618805 630.926697,362.925781 
	C632.229858,363.100189 633.469421,363.749420 634.737671,364.184845 
	C633.848450,365.293243 632.959290,366.401642 631.620239,368.070801 
	C633.959778,378.610504 625.652344,379.081451 617.312622,379.519043 
	C617.520203,380.171387 617.727722,380.823730 617.935242,381.476074 
	C620.307251,381.625031 622.678528,381.884583 625.051331,381.898682 
	C629.278992,381.923737 633.267334,382.285919 633.965881,387.621460 
	C634.537231,391.985779 631.609253,395.429199 626.198242,396.178833 
	C623.140930,396.602356 619.868286,396.505707 616.843628,395.895081 
	C611.966919,394.910583 611.756348,391.655151 612.831604,386.843994 
	C613.739685,382.781189 616.411743,378.249359 613.447754,373.383240 
M627.640381,387.264679 
	C625.000122,387.128571 622.265015,386.540527 619.763611,387.065674 
	C618.672974,387.294678 618.061584,389.806091 617.232544,391.280914 
	C619.996582,391.854675 622.789856,392.981995 625.515869,392.837708 
	C627.963684,392.708160 629.764954,390.881866 627.640381,387.264679 
M620.279053,374.983215 
	C621.979675,374.718811 624.962952,374.800354 625.144714,374.126343 
	C625.733643,371.942841 625.641418,369.389526 625.051880,367.181488 
	C624.861450,366.468323 621.368347,365.681122 621.034668,366.136353 
	C619.909546,367.671112 619.359558,369.712708 618.936646,371.636780 
	C618.757507,372.451996 619.440796,373.456757 620.279053,374.983215 
z"/>
<path fill="#101010" opacity="1.000000" stroke="none" 
	d="
M64.635689,383.731049 
	C53.727097,390.249390 43.906124,385.380798 43.117661,373.191589 
	C42.876099,369.457153 43.235832,365.500275 44.252083,361.908966 
	C45.985050,355.784882 51.211060,352.623138 57.582752,352.987396 
	C63.748978,353.339874 67.776680,356.900574 69.110992,363.404724 
	C70.602982,370.677429 70.246376,377.618744 64.635689,383.731049 
M59.586380,357.469666 
	C54.599186,355.860107 51.141918,356.704071 50.575554,361.037994 
	C49.804165,366.940826 50.253948,373.102600 51.032700,379.041534 
	C51.237583,380.604034 54.591553,382.810181 56.485676,382.796631 
	C58.370251,382.783203 61.267849,380.726440 61.930393,378.911774 
	C64.514015,371.835663 64.780846,364.647919 59.586380,357.469666 
z"/>
<path fill="#111111" opacity="1.000000" stroke="none" 
	d="
M153.827866,386.183868 
	C153.014603,385.569397 152.194199,384.508240 152.258820,384.451294 
	C156.896545,380.363770 154.330399,375.126556 154.324905,370.407471 
	C154.323517,369.204254 151.998230,366.843597 151.285095,367.035675 
	C149.650848,367.475952 147.191315,369.098175 147.121567,370.354553 
	C146.842056,375.390289 144.901657,380.821686 149.906433,385.763184 
	C145.775162,385.763184 142.460007,385.763184 139.802460,385.763184 
	C140.258591,382.076111 141.075897,378.387207 141.068558,374.699982 
	C141.061386,371.084045 140.215332,367.469757 139.648163,363.179413 
	C139.337631,363.253510 140.332764,362.892700 141.353210,362.794189 
	C145.392578,362.404144 149.251205,364.044556 153.590927,362.673706 
	C157.080643,361.571289 159.650787,364.774536 159.941116,368.649445 
	C160.164246,371.627258 159.853531,374.651184 160.163162,377.614563 
	C160.427689,380.146301 161.236877,382.621155 162.051727,386.205872 
	C159.853516,386.205872 157.043640,386.205872 153.827866,386.183868 
z"/>
<path fill="#0E0E0E" opacity="1.000000" stroke="none" 
	d="
M87.224533,363.458008 
	C94.662544,361.441437 97.733994,363.651855 97.932884,370.735260 
	C97.993469,372.892853 97.747887,375.075989 97.992683,377.207214 
	C98.302132,379.901459 98.969551,382.554565 99.568535,385.672974 
	C96.978424,385.672974 93.590523,385.672974 91.413391,385.672974 
	C91.721512,380.612457 92.232468,375.769318 92.174973,370.932922 
	C92.158417,369.540405 90.503929,368.167419 89.600403,366.785461 
	C87.984512,367.955078 85.117790,368.990326 84.975121,370.318268 
	C84.434998,375.345551 82.843559,380.758728 87.599663,385.713501 
	C83.614799,385.713501 80.225853,385.713501 76.624619,385.713501 
	C80.248230,379.636932 79.934494,367.883606 75.771484,363.614380 
	C79.085678,363.032776 81.889046,360.999542 84.756523,364.171082 
	C84.996391,364.436401 86.155472,363.870575 87.224533,363.458008 
z"/>
<path fill="#101010" opacity="1.000000" stroke="none" 
	d="
M598.590637,362.521484 
	C602.756897,363.342468 604.051697,365.976105 604.115906,369.480286 
	C604.167725,372.305756 603.894531,375.159821 604.209778,377.950958 
	C604.479126,380.334473 605.380371,382.646576 606.142517,385.519745 
	C603.395142,385.519745 599.919678,385.519745 595.785706,385.519745 
	C600.880127,380.563568 598.607971,374.837433 598.394836,369.459351 
	C598.357910,368.527130 596.111511,366.725098 595.513000,366.955414 
	C593.846252,367.596649 591.256470,369.098236 591.259094,370.254974 
	C591.270630,375.280731 588.763367,380.793427 594.367493,385.720734 
	C589.861450,385.720734 586.465149,385.720734 582.814026,385.720734 
	C586.457336,380.711731 586.693726,367.465851 582.226501,363.563995 
	C587.657166,361.226044 593.276733,365.244415 598.590637,362.521484 
z"/>
<path fill="#0B0B0B" opacity="1.000000" stroke="none" 
	d="
M504.182373,362.887177 
	C505.918304,362.959747 507.202789,363.032623 509.031403,363.136383 
	C509.031403,368.313782 508.828186,373.274719 509.159241,378.199738 
	C509.254547,379.617249 511.028992,382.135223 511.790405,382.047119 
	C513.480042,381.851562 516.302856,380.431488 516.394165,379.323578 
	C516.819946,374.158386 518.867065,368.583374 513.696960,363.295807 
	C516.786621,363.107544 519.242249,362.957947 521.640869,362.811798 
	C524.206909,370.369751 519.229736,378.632324 525.172729,385.279907 
	C525.036560,385.751617 524.900391,386.223328 524.764221,386.695038 
	C522.153809,386.078888 519.561951,385.351410 516.922241,384.910858 
	C516.072205,384.769012 515.052368,385.283966 514.184570,385.666931 
	C508.154327,388.327942 503.973145,385.821991 503.623779,379.210419 
	C503.483612,376.558716 503.815948,373.867767 503.513336,371.243134 
	C503.233002,368.811951 502.392273,366.445343 501.651428,363.457947 
	C501.819427,363.411865 502.775177,363.149689 504.182373,362.887177 
z"/>
<path fill="#111111" opacity="1.000000" stroke="none" 
	d="
M360.154602,365.091156 
	C364.243774,361.914520 368.411346,361.357117 372.524719,363.825897 
	C376.445251,366.179016 376.705292,370.223083 376.560547,374.799500 
	C371.771942,374.799500 367.185516,374.799500 362.593292,374.799500 
	C362.766113,381.913696 366.100403,384.016663 371.795502,381.194702 
	C372.991211,380.602234 374.446289,380.533142 375.899323,380.773621 
	C372.177277,386.656586 366.284363,388.204529 361.334290,385.370026 
	C356.952667,382.861023 355.096619,375.167755 357.539154,369.131592 
	C358.087677,367.776184 359.091522,366.605042 360.154602,365.091156 
M370.541901,371.295013 
	C370.892059,368.395813 370.259918,365.551483 366.886444,365.951599 
	C365.107666,366.162598 363.603638,368.689911 361.975555,370.171356 
	C362.321686,370.644928 362.667847,371.118530 363.013977,371.592133 
	C365.267853,371.592133 367.521698,371.592133 370.541901,371.295013 
z"/>
<path fill="#111111" opacity="1.000000" stroke="none" 
	d="
M326.762939,364.120850 
	C334.062622,372.069458 331.828979,384.117371 322.990112,386.268677 
	C318.649994,387.325012 314.432373,386.843811 311.718201,383.052002 
	C308.347504,378.343048 308.523102,373.002228 310.874084,367.864960 
	C312.861969,363.521179 316.783234,362.195251 321.220917,362.453522 
	C322.983521,362.556152 324.702515,363.406799 326.762939,364.120850 
M322.734833,366.631836 
	C318.912018,364.637054 316.452728,366.201691 315.808655,369.993805 
	C315.296997,373.006439 315.311218,376.308777 316.035126,379.250397 
	C316.425842,380.838196 319.053253,383.201599 320.212219,382.964996 
	C321.972534,382.605652 324.538086,380.356079 324.624908,378.790894 
	C324.836517,374.976471 323.820465,371.093933 322.734833,366.631836 
z"/>
<path fill="#131313" opacity="1.000000" stroke="none" 
	d="
M171.272217,383.700623 
	C170.271652,379.781586 168.813919,376.114716 168.934616,372.500519 
	C169.158920,365.784851 174.264664,361.756683 180.542496,362.430756 
	C186.320801,363.051178 189.002106,367.160095 188.321396,374.830414 
	C183.790268,374.830414 179.206131,374.830414 174.617081,374.830414 
	C174.796982,382.101776 178.061234,384.009857 184.182007,380.971802 
	C185.147629,380.492523 186.441864,380.675262 187.584167,380.551941 
	C187.092438,381.722839 186.915054,383.253967 186.055832,384.003784 
	C181.804062,387.714081 176.796524,387.611389 171.272217,383.700623 
M177.618546,371.660370 
	C179.321075,371.660370 181.023621,371.660370 183.446304,371.660370 
	C182.612946,369.481659 182.406540,367.883881 181.511871,366.935364 
	C180.786407,366.166260 178.852295,365.543640 178.130112,365.978516 
	C176.759583,366.803680 175.803940,368.387726 174.887604,369.794464 
	C174.790924,369.942871 176.108200,371.012299 177.618546,371.660370 
z"/>
<path fill="#101010" opacity="1.000000" stroke="none" 
	d="
M440.635284,382.211731 
	C443.389160,382.835144 445.337769,377.270874 448.051666,381.580933 
	C443.338287,386.871429 437.788727,388.184418 432.953064,385.245178 
	C428.699036,382.659363 426.963806,374.812592 429.342041,368.915802 
	C431.325256,363.998444 436.239746,361.492767 441.550781,362.691040 
	C446.558105,363.820801 448.501404,367.272430 448.064819,374.780762 
	C443.541382,374.780762 438.961884,374.780762 434.206085,374.780762 
	C434.156158,379.413147 435.201630,382.507690 440.635284,382.211731 
M435.819977,367.044861 
	C435.243134,368.323547 434.666290,369.602264 433.909119,371.280670 
	C437.181549,371.280670 439.824921,371.280670 442.712860,371.280670 
	C442.092133,367.119659 441.026031,364.307922 435.819977,367.044861 
z"/>
<path fill="#101010" opacity="1.000000" stroke="none" 
	d="
M246.107880,376.536224 
	C248.038376,382.537262 250.717056,383.615479 255.822571,381.095459 
	C256.974915,380.526733 258.445007,380.601776 259.857025,380.955475 
	C255.378754,386.855072 249.776001,388.189423 244.989777,385.269409 
	C240.766647,382.692932 239.013535,374.779114 241.369049,368.924866 
	C243.342651,364.019806 248.275269,361.500519 253.577225,362.689636 
	C258.555878,363.806244 260.554779,367.355438 260.118744,374.347717 
	C255.445419,374.934387 250.764603,375.521973 246.107880,376.536224 
M246.483383,369.819641 
	C249.060471,370.610352 251.637573,371.401062 254.214661,372.191772 
	C254.559784,371.528564 254.904892,370.865356 255.250015,370.202118 
	C254.010468,368.726685 252.892120,366.224396 251.497833,366.059814 
	C250.055588,365.889618 248.345505,367.988831 246.483383,369.819641 
z"/>
<path fill="#131313" opacity="1.000000" stroke="none" 
	d="
M559.895508,381.600525 
	C562.627258,381.373199 563.726501,382.718292 561.544373,384.109650 
	C559.372681,385.494354 556.261719,386.544006 553.880737,386.086243 
	C552.118652,385.747498 550.109863,382.956543 549.566956,380.900055 
	C548.781250,377.923981 549.249695,374.623352 549.129211,371.463226 
	C549.033691,368.954468 550.296265,365.692291 545.951904,366.051514 
	C547.776062,362.904755 549.321838,360.238220 551.164673,357.059204 
	C555.594238,355.669281 554.654968,359.601959 554.963867,362.630066 
	C557.256470,362.788788 559.518372,362.945374 561.997131,363.117004 
	C562.053711,368.978882 557.108582,365.143066 554.897766,367.433289 
	C554.897766,370.878052 554.851562,374.840210 554.912231,378.800781 
	C554.961853,382.045288 556.735779,382.809601 559.895508,381.600525 
z"/>
<path fill="#131313" opacity="1.000000" stroke="none" 
	d="
M470.278625,380.337250 
	C473.774200,380.454346 474.161591,382.424347 471.684601,383.639038 
	C468.621765,385.141052 464.952362,386.188324 461.586151,386.085480 
	C457.647217,385.965118 455.835754,382.477539 455.071991,378.858124 
	C452.498718,366.663483 459.919708,360.232391 472.891113,363.601715 
	C472.891113,365.316162 472.891113,367.092529 472.891113,370.099365 
	C471.046234,369.201263 469.400513,368.837006 468.401245,367.830750 
	C465.539032,364.948700 462.392731,365.195374 461.437347,369.067322 
	C460.668274,372.184296 460.595032,375.703247 461.179535,378.865143 
	C461.897552,382.749451 465.186249,383.210052 470.278625,380.337250 
z"/>
<path fill="#151515" opacity="1.000000" stroke="none" 
	d="
M481.052612,376.813263 
	C480.579071,372.100220 480.105499,367.842865 479.548126,362.832062 
	C484.087708,361.602814 490.197449,365.028229 496.395081,361.483063 
	C496.395081,364.670776 496.395081,366.570312 496.395081,369.137878 
	C495.100800,368.935242 493.327881,369.198090 492.510010,368.436005 
	C488.973511,365.140717 487.129730,368.177643 487.047546,370.535950 
	C486.874603,375.500549 484.317078,381.062561 490.555817,385.792511 
	C485.757629,385.792511 482.324341,385.792511 479.454224,385.792511 
	C480.027588,382.734924 480.540070,380.001953 481.052612,376.813263 
z"/>
<path fill="#0B0B0B" opacity="1.000000" stroke="none" 
	d="
M344.993622,375.748352 
	C345.746826,378.205658 346.011383,380.747406 347.421234,381.995880 
	C348.386597,382.850830 350.946747,381.905029 354.036438,381.669525 
	C350.748871,385.810333 347.915283,387.294098 344.099854,386.336365 
	C339.894623,385.280823 339.752838,381.812744 339.602600,378.450775 
	C339.491608,375.967590 339.853271,373.432739 339.479767,371.001495 
	C339.178406,369.039795 338.093079,367.198547 337.156067,364.791473 
	C341.574280,365.444977 337.220825,355.653046 344.620575,357.253418 
	C344.848450,359.038635 345.070618,360.778839 345.328735,362.800934 
	C347.526184,362.800934 349.629761,362.800934 352.489197,362.800934 
	C352.179382,368.735046 347.096069,364.987762 344.993164,367.752747 
	C344.993164,369.679474 344.993164,372.480499 344.993622,375.748352 
z"/>
<path fill="#101010" opacity="1.000000" stroke="none" 
	d="
M110.159142,386.210266 
	C108.514214,386.083466 107.272453,385.956573 105.861198,385.812378 
	C109.846382,378.799683 109.486664,357.706482 104.841385,352.462158 
	C108.035553,352.194580 110.634125,351.976898 113.911003,351.702423 
	C113.911003,360.074799 113.765305,368.015717 113.982437,375.946686 
	C114.069756,379.135803 114.953156,382.303101 115.593933,386.210205 
	C114.358627,386.210205 112.460472,386.210205 110.159142,386.210266 
z"/>
<path fill="#151515" opacity="1.000000" stroke="none" 
	d="
M537.552612,362.712097 
	C538.254517,367.195282 538.440552,371.575989 538.885193,375.930298 
	C539.211792,379.128876 539.877197,382.292908 540.446228,385.810303 
	C537.840088,385.810303 534.529785,385.810303 531.150696,385.810303 
	C533.991760,378.290527 534.713379,370.974762 530.529358,362.981537 
	C532.744019,362.853271 534.945862,362.725769 537.552612,362.712097 
z"/>
<path fill="#060606" opacity="1.000000" stroke="none" 
	d="
M572.684570,362.660461 
	C573.512695,367.449860 573.853821,372.231873 574.424438,376.986359 
	C574.752441,379.718994 575.452393,382.407043 576.079651,385.597046 
	C573.544678,385.597046 570.203613,385.597046 567.133667,385.597046 
	C569.581482,378.108673 570.874939,370.812592 565.909058,363.073975 
	C568.186279,362.919739 570.240051,362.780670 572.684570,362.660461 
z"/>
<path fill="#060606" opacity="1.000000" stroke="none" 
	d="
M130.181122,371.996185 
	C130.565582,376.650848 130.950012,380.827026 131.383743,385.538574 
	C129.435532,385.538574 126.053658,385.538574 122.684944,385.538574 
	C125.914658,378.284851 126.465981,371.030731 122.110611,363.139099 
	C124.564629,362.975891 127.150558,362.803864 130.181122,362.602264 
	C130.181122,365.932678 130.181122,368.725189 130.181122,371.996185 
z"/>
<path fill="#DE3436" opacity="1.000000" stroke="none" 
	d="
M187.178543,411.254395 
	C189.786575,411.771484 192.404953,411.709290 194.099808,412.929688 
	C197.220871,415.177032 195.485947,420.835663 191.543259,421.927399 
	C190.142059,422.315399 188.644608,422.355774 186.687958,422.623779 
	C186.985031,425.125610 187.259293,427.435394 187.550079,429.884369 
	C186.210373,429.884369 184.631058,429.884369 183.381866,429.884369 
	C183.381866,423.730560 183.381866,417.791656 183.381866,411.505402 
	C184.264099,411.439880 185.518219,411.346771 187.178543,411.254395 
M190.746216,420.138794 
	C191.113754,418.249725 192.021439,416.236115 191.626373,414.522919 
	C191.421509,413.634552 188.910828,413.277863 186.797287,412.419128 
	C186.797287,415.159821 186.411255,416.928528 186.933273,418.367981 
	C187.280121,419.324432 188.924881,419.810211 190.746216,420.138794 
z"/>
<path fill="#DB3436" opacity="1.000000" stroke="none" 
	d="
M563.186646,423.522339 
	C561.920105,428.301392 563.139587,429.004822 569.099365,427.274536 
	C569.181030,427.766937 569.262756,428.259338 569.344421,428.751740 
	C566.963135,429.146759 564.300659,430.410767 562.260803,429.750641 
	C558.364563,428.489807 558.447144,424.673615 559.142273,421.356750 
	C559.843201,418.012146 562.218384,416.358978 565.727905,416.783447 
	C569.314270,417.217285 570.106384,419.653137 570.061646,423.431183 
	C567.768860,423.431183 565.694946,423.431183 563.186646,423.522339 
z"/>
<path fill="#D83032" opacity="1.000000" stroke="none" 
	d="
M319.333069,423.389893 
	C317.477692,423.456451 316.018463,423.527039 314.570129,423.597107 
	C314.806580,428.596252 315.141174,428.763580 321.996826,427.347870 
	C319.733887,430.799530 316.639252,431.184479 313.766693,429.399231 
	C310.473694,427.352692 310.562347,423.825348 311.729004,420.469269 
	C312.840546,417.271881 315.483398,416.036743 318.455414,416.979614 
	C319.963928,417.458191 321.075043,419.474884 322.057526,420.995392 
	C322.193390,421.205658 320.549316,422.566010 319.333069,423.389893 
z"/>
<path fill="#DC3B3D" opacity="1.000000" stroke="none" 
	d="
M389.121307,420.898193 
	C389.302368,424.079742 389.483429,426.806183 389.682648,429.805420 
	C388.737183,429.805420 386.998138,429.805420 385.516052,429.805420 
	C385.516052,424.303986 385.516052,418.820679 385.516052,412.425629 
	C383.810150,413.795776 382.446289,414.891205 380.457611,416.488464 
	C380.291901,414.821625 380.152802,413.422363 379.970459,411.588379 
	C385.164520,411.588379 389.896027,411.588379 394.901672,411.588379 
	C394.901672,413.098389 394.901672,414.518219 394.901672,416.347931 
	C393.158417,414.976959 391.694702,413.825867 389.121338,411.802094 
	C389.121338,415.616547 389.121338,418.029816 389.121307,420.898193 
z"/>
<path fill="#DB2C2C" opacity="1.000000" stroke="none" 
	d="
M463.733215,421.272552 
	C464.004333,423.946472 464.975922,427.627411 463.818604,428.506927 
	C461.912537,429.955414 458.626617,429.845001 455.927582,429.820251 
	C455.215118,429.813751 454.521790,427.713684 453.641998,426.286774 
	C454.929230,426.047882 455.319244,425.840759 455.533112,425.957214 
	C457.147034,426.835693 458.658081,427.979004 460.364685,428.557739 
	C460.788696,428.701508 462.593964,426.642181 462.428131,426.347534 
	C461.458588,424.624878 460.385223,422.686127 458.805328,421.631866 
	C453.673096,418.207245 453.002228,415.975769 457.378296,412.485748 
	C455.759949,418.366943 460.688354,418.799866 463.733215,421.272552 
z"/>
<path fill="#DB2C2C" opacity="1.000000" stroke="none" 
	d="
M411.166260,417.176605 
	C413.992615,417.791534 417.756226,417.849823 418.665863,419.490479 
	C419.858978,421.642334 419.485046,425.331024 418.444946,427.792480 
	C417.859131,429.178772 414.542419,430.083862 412.524384,429.971924 
	C411.006012,429.887695 408.818451,428.111969 408.296234,426.612854 
	C407.113281,423.216980 407.281189,419.672882 411.166260,417.176605 
M410.724762,421.810730 
	C410.718597,422.798370 410.395233,423.935547 410.774994,424.741302 
	C411.478119,426.233124 412.592651,427.531067 413.535858,428.909790 
	C414.661011,427.724731 416.748077,426.508606 416.710968,425.361084 
	C416.633881,422.975830 415.430939,420.626953 414.690765,418.263123 
	C413.420349,419.168213 412.149933,420.073334 410.724762,421.810730 
z"/>
<path fill="#DB2C2C" opacity="1.000000" stroke="none" 
	d="
M83.194603,423.140747 
	C84.767380,417.556885 87.078888,415.779907 91.185547,416.924866 
	C95.635223,418.165466 95.698242,421.770233 95.154594,425.356781 
	C94.523766,429.518463 91.582756,430.681366 87.828117,430.134277 
	C84.067917,429.586334 83.328987,426.723419 83.194603,423.140747 
M87.943184,428.510529 
	C93.009926,429.715027 92.610596,425.684540 92.390266,423.100922 
	C92.241013,421.350739 90.162254,419.765045 88.946487,418.105774 
	C87.992302,420.163910 86.757217,422.150146 86.204460,424.310974 
	C85.935081,425.364044 86.938972,426.742859 87.943184,428.510529 
z"/>
<path fill="#D83032" opacity="1.000000" stroke="none" 
	d="
M590.938965,419.094788 
	C589.755005,419.133118 588.972412,419.210083 588.021118,419.303680 
	C588.522827,423.579498 597.239136,422.434570 593.874084,428.385590 
	C593.149841,429.666412 590.138611,429.944855 588.136597,430.095184 
	C587.061096,430.175964 585.891541,429.003632 585.280212,427.356720 
	C587.168701,427.532959 589.057190,427.709198 590.945679,427.885437 
	C591.088135,427.475403 591.230652,427.065399 591.373108,426.655365 
	C589.945374,425.765320 588.318237,425.076111 587.154236,423.920410 
	C586.255310,423.027893 585.251709,421.354889 585.529541,420.381042 
	C585.900452,419.080750 587.296143,417.528748 588.562317,417.164459 
	C590.169617,416.702026 592.092346,417.295197 593.860840,417.556763 
	C593.947632,417.569580 593.859497,418.764526 593.852844,419.408997 
	C593.015381,419.317139 592.177856,419.225311 590.938965,419.094788 
z"/>
<path fill="#D83032" opacity="1.000000" stroke="none" 
	d="
M65.933891,416.995331 
	C65.688805,421.165070 65.443710,425.334778 65.173973,429.923828 
	C64.639526,429.952667 63.035156,430.039276 60.935627,430.152557 
	C64.463982,422.691681 59.334431,417.712860 56.169392,411.630127 
	C57.925823,411.485748 59.418797,411.363037 60.475075,411.276215 
	C61.454437,414.266449 62.295197,416.833527 63.256542,419.768768 
	C64.323349,418.978912 65.171188,418.351166 65.995232,417.362000 
	C65.971436,417.000549 65.933891,416.995331 65.933891,416.995331 
z"/>
<path fill="#DB3436" opacity="1.000000" stroke="none" 
	d="
M613.249023,420.634613 
	C613.984985,421.318481 614.661255,421.571838 615.062256,422.054108 
	C616.494873,423.777222 617.834167,425.577972 619.208801,427.349365 
	C617.525330,428.517822 615.841858,429.686310 614.158386,430.854767 
	C617.454590,427.359344 615.884705,425.749542 612.656006,423.937347 
	C611.443665,423.256866 609.943848,420.803497 610.326965,420.053406 
	C611.066284,418.606293 612.950867,417.167725 614.550781,416.911011 
	C615.944092,416.687439 617.601624,418.090973 619.121460,418.819305 
	C619.151794,418.833832 618.924377,419.386108 618.799561,419.737091 
	C616.974487,420.670776 614.401245,414.836487 613.249023,420.634613 
z"/>
<path fill="#DB3436" opacity="1.000000" stroke="none" 
	d="
M541.839233,419.466980 
	C540.412598,419.199097 538.145569,418.980438 538.093994,419.226593 
	C537.604126,421.561127 537.249878,423.992432 537.423950,426.354034 
	C537.472839,427.015961 539.346680,427.855804 540.474365,428.032104 
	C541.474243,428.188416 542.600281,427.536926 544.275696,427.075348 
	C541.819214,430.941467 538.952209,431.068329 536.014587,429.209473 
	C533.281677,427.480194 532.671387,421.021881 535.489807,418.971039 
	C537.544617,417.475891 540.849670,417.690613 543.615173,417.256775 
	C543.658020,417.250061 543.929871,418.703186 544.094849,419.475037 
	C543.405396,419.560638 542.716003,419.646271 541.839233,419.466980 
z"/>
<path fill="#D93334" opacity="1.000000" stroke="none" 
	d="
M509.375671,427.083679 
	C508.432495,419.277344 511.143250,415.676636 516.802368,416.869843 
	C517.780701,417.076141 518.522217,418.405701 520.061646,419.872437 
	C516.748047,419.442657 514.917664,419.205231 513.087341,418.967834 
	C512.824463,421.500336 511.935242,424.210358 512.580017,426.485687 
	C512.874084,427.523438 516.195984,427.703186 517.944641,428.213745 
	C515.976624,431.368225 513.118774,431.373810 509.375671,427.083679 
z"/>
<path fill="#DB2C2C" opacity="1.000000" stroke="none" 
	d="
M262.540344,413.961761 
	C264.607758,415.153656 266.405243,416.543365 268.288208,417.999176 
	C263.939606,417.944183 263.819824,421.184845 264.496094,424.369476 
	C264.852997,426.050232 266.356873,427.487457 267.589111,429.420959 
	C267.005463,429.503723 265.104675,430.355560 263.900696,429.771362 
	C262.813751,429.243958 261.794739,427.058594 261.958405,425.756866 
	C262.446045,421.877747 259.686890,417.926819 262.540344,413.961761 
z"/>
<path fill="#DC3B3D" opacity="1.000000" stroke="none" 
	d="
M338.124207,417.032043 
	C339.983612,417.040680 341.531738,417.299194 343.087433,417.358704 
	C344.435120,417.410309 345.791443,417.236206 347.964325,417.116760 
	C345.322266,419.073181 342.670868,420.054016 341.941833,421.825836 
	C341.037628,424.023468 341.725250,426.876068 341.725250,429.885712 
	C341.298462,429.920807 339.889099,430.036652 339.003265,430.109467 
	C338.589996,425.613525 338.203094,421.404541 338.124207,417.032043 
z"/>
<path fill="#DC3B3D" opacity="1.000000" stroke="none" 
	d="
M218.032196,429.402740 
	C217.873077,429.363708 217.708527,429.275879 217.555634,429.292877 
	C214.792099,429.599609 210.929382,432.467499 210.027664,427.539612 
	C209.223633,423.145660 213.309723,423.119690 216.721375,423.013000 
	C217.391586,425.369476 217.711899,427.386108 218.032196,429.402740 
z"/>
<path fill="#DE3436" opacity="1.000000" stroke="none" 
	d="
M140.099976,422.165527 
	C139.913132,420.306122 139.726410,418.888336 139.475876,416.986145 
	C142.190399,417.299957 145.081879,417.634216 149.160751,418.105743 
	C142.507462,419.978180 141.670197,422.254883 143.992508,429.824219 
	C142.499481,429.903412 141.100967,429.977570 139.688187,430.052521 
	C139.837082,427.361023 139.968582,424.984070 140.099976,422.165527 
z"/>
<path fill="#DB3436" opacity="1.000000" stroke="none" 
	d="
M286.991882,418.024384 
	C292.760437,415.413239 294.740387,416.688538 294.871582,423.038086 
	C294.915009,425.139648 295.094574,427.238403 295.232330,429.703217 
	C293.996033,429.703217 292.320404,429.703217 291.116913,429.703217 
	C291.401917,427.167267 291.999878,424.541809 291.903229,421.942200 
	C291.808197,419.385834 290.508514,417.831512 287.378571,419.604004 
	C287.015533,418.975281 287.003723,418.499847 286.991882,418.024384 
z"/>
<path fill="#DB2C2C" opacity="1.000000" stroke="none" 
	d="
M488.944153,428.712402 
	C483.899384,431.514099 482.029388,430.478668 481.865875,424.844208 
	C481.795319,422.412079 481.618347,419.983032 481.417999,416.198120 
	C482.630280,417.620819 483.961853,418.515717 484.247070,419.669312 
	C484.716278,421.567017 484.138672,423.751770 484.730347,425.579865 
	C485.058502,426.593903 486.862823,427.130188 488.481842,428.040894 
	C488.955963,428.370819 488.950043,428.541626 488.944153,428.712402 
z"/>
<path fill="#D41E20" opacity="1.000000" stroke="none" 
	d="
M240.366180,424.964691 
	C240.623428,426.768677 240.887512,428.159302 241.209961,429.857330 
	C239.953201,429.926819 238.698181,429.996185 237.321960,430.072296 
	C237.508636,427.738953 237.825562,425.565918 237.814392,423.394592 
	C237.804047,421.382904 237.442917,419.373016 237.235718,417.356903 
	C240.497757,417.110718 240.497757,417.110718 240.366180,424.964691 
z"/>
<path fill="#DB2C2C" opacity="1.000000" stroke="none" 
	d="
M118.939827,428.647522 
	C114.107430,431.470459 112.053261,430.388153 111.868378,424.921936 
	C111.801849,422.955200 111.788628,420.984161 111.633316,419.024445 
	C111.588913,418.464020 111.131813,417.936279 110.863953,417.393555 
	C111.237595,417.093445 111.611237,416.793365 111.984879,416.493256 
	C112.824722,417.581757 114.087357,418.561462 114.402260,419.785034 
	C114.840706,421.488678 114.150780,423.529388 114.741600,425.131622 
	C115.174538,426.305695 116.890076,427.006836 118.511154,428.075073 
	C118.988350,428.231384 118.939827,428.647522 118.939827,428.647522 
z"/>
<path fill="#D41E20" opacity="1.000000" stroke="none" 
	d="
M119.295258,428.820038 
	C118.939827,428.647522 118.988350,428.231384 118.947098,428.025604 
	C119.196663,424.378204 119.487480,420.936584 119.823265,416.962708 
	C123.622879,416.012970 121.971382,419.752747 122.209000,421.833679 
	C122.496964,424.355530 122.556549,426.903442 122.753120,430.051422 
	C121.952744,429.778259 120.801712,429.385406 119.295258,428.820038 
z"/>
<path fill="#111111" opacity="1.000000" stroke="none" 
	d="
M124.797897,357.676697 
	C124.126266,352.854340 127.086967,353.695679 129.992249,353.991547 
	C129.992249,355.675293 129.992249,357.377533 129.992249,360.294556 
	C127.986397,359.422760 126.396729,358.731842 124.797897,357.676697 
z"/>
<path fill="#DB2C2C" opacity="1.000000" stroke="none" 
	d="
M218.282379,429.673370 
	C217.711899,427.386108 217.391586,425.369476 217.091248,423.015564 
	C217.226059,422.073395 217.340912,421.468506 217.550217,420.258301 
	C217.435577,419.433563 217.226501,419.214081 217.017426,418.994598 
	C216.030716,418.543488 215.043991,418.092377 213.943146,417.589081 
	C219.016449,416.256409 219.941696,416.891937 220.146591,421.638000 
	C220.262772,424.329041 220.427109,427.017944 220.582275,429.944000 
	C220.109543,429.944000 219.321045,429.944000 218.282379,429.673370 
z"/>
<path fill="#D41E20" opacity="1.000000" stroke="none" 
	d="
M489.285553,428.892548 
	C488.950043,428.541626 488.955963,428.370819 488.910461,427.948517 
	C489.174652,424.255646 489.490295,420.814270 489.847687,416.917847 
	C493.882935,416.153320 491.921082,419.988007 492.197174,422.041992 
	C492.539062,424.585175 492.574402,427.169556 492.779846,430.312653 
	C491.762482,429.912537 490.694702,429.492615 489.285553,428.892548 
z"/>
<path fill="#1E1E1E" opacity="1.000000" stroke="none" 
	d="
M574.433472,354.764526 
	C575.257385,359.249420 573.619446,360.685699 569.130920,359.301819 
	C569.054138,357.731720 568.969666,356.005463 568.855164,353.664062 
	C570.922119,353.942688 572.618347,354.171356 574.433472,354.764526 
z"/>
<path fill="#1E1E1E" opacity="1.000000" stroke="none" 
	d="
M533.704956,359.252441 
	C533.284668,357.423553 533.173462,355.851685 533.043640,354.016571 
	C535.199036,354.016571 536.923096,354.016571 538.828613,354.016571 
	C538.828613,355.860321 538.828613,357.445038 538.828613,359.509399 
	C537.111267,359.509399 535.562683,359.509399 533.704956,359.252441 
z"/>
<path fill="#D93334" opacity="1.000000" stroke="none" 
	d="
M286.996399,418.012756 
	C287.003723,418.499847 287.015533,418.975281 287.046722,419.806976 
	C287.041199,422.490631 287.016327,424.818054 286.699219,427.678894 
	C285.729614,427.501740 285.052246,426.791168 284.374878,426.080597 
	C284.314728,425.595123 284.254547,425.109619 284.466431,424.031372 
	C284.606476,422.316956 284.474457,421.195251 284.342407,420.073578 
	C284.210114,419.631805 284.077759,419.190063 284.264832,418.388855 
	C285.382568,418.021881 286.180908,418.014374 286.979218,418.006866 
	C286.979218,418.006866 287.000916,418.001129 286.996399,418.012756 
z"/>
<path fill="#DB3436" opacity="1.000000" stroke="none" 
	d="
M284.271393,426.387024 
	C285.052246,426.791168 285.729614,427.501740 286.647705,428.114258 
	C288.938049,431.697205 285.456482,429.421906 284.340729,429.642761 
	C283.993988,428.806030 283.990265,428.390167 283.986511,427.974274 
	C284.046967,427.547333 284.107452,427.120392 284.271393,426.387024 
z"/>
<path fill="#D83032" opacity="1.000000" stroke="none" 
	d="
M65.976456,417.016541 
	C66.585747,416.688843 67.190010,416.345154 67.433449,416.206726 
	C67.286598,416.236725 66.712051,416.354187 66.035698,416.733490 
	C65.933891,416.995331 65.971436,417.000549 65.976456,417.016541 
z"/>
<path fill="#DB3436" opacity="1.000000" stroke="none" 
	d="
M286.864075,417.688995 
	C286.180908,418.014374 285.382568,418.021881 284.185699,418.051605 
	C284.774414,417.839569 285.761658,417.605347 286.864075,417.688995 
z"/>
<path fill="#DB3436" opacity="1.000000" stroke="none" 
	d="
M284.258728,420.451904 
	C284.474457,421.195251 284.606476,422.316956 284.553833,423.672241 
	C284.304413,422.880646 284.239716,421.855438 284.258728,420.451904 
z"/>
<path fill="#D93334" opacity="1.000000" stroke="none" 
	d="
M283.708069,428.080383 
	C283.990265,428.390167 283.993988,428.806030 283.998901,429.533905 
	C283.437073,429.818604 282.874084,429.791321 282.057953,429.751770 
	C282.652039,429.073853 283.040833,428.630157 283.708069,428.080383 
z"/>
<path fill="#DC3B3D" opacity="1.000000" stroke="none" 
	d="
M217.069885,419.256958 
	C217.226501,419.214081 217.435577,419.433563 217.550934,419.794861 
	C217.345581,419.797516 217.233978,419.658417 217.069885,419.256958 
z"/>
<path fill="#FC6904" opacity="1.000000" stroke="none" 
	d="
M306.048218,183.065048 
	C306.061890,183.083832 306.103821,182.788422 306.103821,182.788422 
	C306.103821,182.788422 306.109009,182.917496 306.052551,182.970215 
	C305.996063,183.022919 306.034546,183.046265 306.048218,183.065048 
z"/>
<path fill="#EAEAEA" opacity="1.000000" stroke="none" 
	d="
M224.572845,367.833984 
	C222.233536,368.532440 220.215607,368.988953 217.718781,369.553802 
	C217.718781,365.045227 217.718781,361.195831 217.718781,356.212646 
	C220.522934,357.149567 224.357040,357.325958 225.125031,358.951172 
	C226.223602,361.276001 225.080231,364.660248 224.572845,367.833984 
z"/>
<path fill="#EAEAEA" opacity="1.000000" stroke="none" 
	d="
M405.363342,367.518341 
	C405.353149,364.105164 405.355988,361.139221 405.396484,358.173828 
	C405.400635,357.871704 405.631012,357.572693 406.302307,355.964447 
	C408.887024,357.219269 412.417480,357.841095 413.656982,359.865540 
	C414.732605,361.622375 414.047272,365.700806 412.574036,367.374603 
	C411.430481,368.673798 407.872070,367.847382 405.363342,367.518341 
z"/>
<path fill="#F5F5F5" opacity="1.000000" stroke="none" 
	d="
M627.918457,387.578735 
	C629.764954,390.881866 627.963684,392.708160 625.515869,392.837708 
	C622.789856,392.981995 619.996582,391.854675 617.232544,391.280914 
	C618.061584,389.806091 618.672974,387.294678 619.763611,387.065674 
	C622.265015,386.540527 625.000122,387.128571 627.918457,387.578735 
z"/>
<path fill="#F5F5F5" opacity="1.000000" stroke="none" 
	d="
M620.005615,374.679291 
	C619.440796,373.456757 618.757507,372.451996 618.936646,371.636780 
	C619.359558,369.712708 619.909546,367.671112 621.034668,366.136353 
	C621.368347,365.681122 624.861450,366.468323 625.051880,367.181488 
	C625.641418,369.389526 625.733643,371.942841 625.144714,374.126343 
	C624.962952,374.800354 621.979675,374.718811 620.005615,374.679291 
z"/>
<path fill="#F7F7F7" opacity="1.000000" stroke="none" 
	d="
M59.885818,357.748962 
	C64.780846,364.647919 64.514015,371.835663 61.930393,378.911774 
	C61.267849,380.726440 58.370251,382.783203 56.485676,382.796631 
	C54.591553,382.810181 51.237583,380.604034 51.032700,379.041534 
	C50.253948,373.102600 49.804165,366.940826 50.575554,361.037994 
	C51.141918,356.704071 54.599186,355.860107 59.885818,357.748962 
z"/>
<path fill="#DCDCDC" opacity="1.000000" stroke="none" 
	d="
M370.158722,371.443573 
	C367.521698,371.592133 365.267853,371.592133 363.013977,371.592133 
	C362.667847,371.118530 362.321686,370.644928 361.975555,370.171356 
	C363.603638,368.689911 365.107666,366.162598 366.886444,365.951599 
	C370.259918,365.551483 370.892059,368.395813 370.158722,371.443573 
z"/>
<path fill="#F5F5F5" opacity="1.000000" stroke="none" 
	d="
M323.016846,366.935333 
	C323.820465,371.093933 324.836517,374.976471 324.624908,378.790894 
	C324.538086,380.356079 321.972534,382.605652 320.212219,382.964996 
	C319.053253,383.201599 316.425842,380.838196 316.035126,379.250397 
	C315.311218,376.308777 315.296997,373.006439 315.808655,369.993805 
	C316.452728,366.201691 318.912018,364.637054 323.016846,366.935333 
z"/>
<path fill="#DCDCDC" opacity="1.000000" stroke="none" 
	d="
M177.194031,371.657410 
	C176.108200,371.012299 174.790924,369.942871 174.887604,369.794464 
	C175.803940,368.387726 176.759583,366.803680 178.130112,365.978516 
	C178.852295,365.543640 180.786407,366.166260 181.511871,366.935364 
	C182.406540,367.883881 182.612946,369.481659 183.446304,371.660370 
	C181.023621,371.660370 179.321075,371.660370 177.194031,371.657410 
z"/>
<path fill="#DCDCDC" opacity="1.000000" stroke="none" 
	d="
M436.088409,366.755432 
	C441.026031,364.307922 442.092133,367.119659 442.712860,371.280670 
	C439.824921,371.280670 437.181549,371.280670 433.909119,371.280670 
	C434.666290,369.602264 435.243134,368.323547 436.088409,366.755432 
z"/>
<path fill="#DCDCDC" opacity="1.000000" stroke="none" 
	d="
M246.617981,369.457489 
	C248.345505,367.988831 250.055588,365.889618 251.497833,366.059814 
	C252.892120,366.224396 254.010468,368.726685 255.250015,370.202118 
	C254.904892,370.865356 254.559784,371.528564 254.214661,372.191772 
	C251.637573,371.401062 249.060471,370.610352 246.617981,369.457489 
z"/>
<path fill="#F9F0ED" opacity="1.000000" stroke="none" 
	d="
M190.367432,420.322754 
	C188.924881,419.810211 187.280121,419.324432 186.933273,418.367981 
	C186.411255,416.928528 186.797287,415.159821 186.797287,412.419128 
	C188.910828,413.277863 191.421509,413.634552 191.626373,414.522919 
	C192.021439,416.236115 191.113754,418.249725 190.367432,420.322754 
z"/>
<path fill="#F9F0ED" opacity="1.000000" stroke="none" 
	d="
M410.802124,421.394592 
	C412.149933,420.073334 413.420349,419.168213 414.690765,418.263123 
	C415.430939,420.626953 416.633881,422.975830 416.710968,425.361084 
	C416.748077,426.508606 414.661011,427.724731 413.535828,428.909790 
	C412.592651,427.531067 411.478119,426.233124 410.774994,424.741302 
	C410.395233,423.935547 410.718597,422.798370 410.802124,421.394592 
z"/>
<path fill="#F9F0ED" opacity="1.000000" stroke="none" 
	d="
M87.654846,428.242371 
	C86.938972,426.742859 85.935081,425.364044 86.204460,424.310974 
	C86.757217,422.150146 87.992302,420.163910 88.946472,418.105774 
	C90.162254,419.765045 92.241013,421.350739 92.390266,423.100922 
	C92.610596,425.684540 93.009926,429.715027 87.654846,428.242371 
z"/>
</svg>