<svg width="20" height="20" viewBox="0 0 20 20" fill="none" xmlns="http://www.w3.org/2000/svg">
<path d="M0.310041 18.3327C-0.974113 14.4865 1.5942 5.51217 10.5833 5.51217V2.94807C10.5833 2.70998 10.6497 2.47659 10.7751 2.27405C10.9005 2.07152 11.0798 1.90784 11.2932 1.80137C11.5065 1.69489 11.7452 1.64981 11.9828 1.6712C12.2203 1.69258 12.4471 1.77957 12.6379 1.92243L19.4863 7.05063C19.6458 7.17005 19.7753 7.3249 19.8644 7.50292C19.9536 7.68094 20 7.87724 20 8.07627C20 8.2753 19.9536 8.4716 19.8644 8.64962C19.7753 8.82764 19.6458 8.98249 19.4863 9.10191L12.6379 14.2301C12.4471 14.373 12.2203 14.46 11.9828 14.4813C11.7452 14.5027 11.5065 14.4577 11.2932 14.3512C11.0798 14.2447 10.9005 14.081 10.7751 13.8785C10.6497 13.676 10.5833 13.4426 10.5833 13.2045V10.6404C1.5942 11.9224 0.310041 18.3327 0.310041 18.3327Z" fill="#1F2A37"/>
</svg>
