<svg width="118" height="28" viewBox="0 0 118 28" fill="none" xmlns="http://www.w3.org/2000/svg">
<path d="M15.1713 2.53568H9.18291V21.0405H6.75516V2.53568H0.766724V0.32373H15.1174V2.53568H15.1713Z" fill="#788596"/>
<path d="M26.6627 6.25819L19.865 23.4143C18.6242 26.4894 16.9517 28 14.7398 28C14.1463 28 13.6068 27.946 13.1752 27.8382V25.7341C13.6608 25.896 14.1463 26.0039 14.5779 26.0039C15.7648 26.0039 16.682 25.3025 17.2754 23.8459L18.4623 21.0405L12.6897 6.25819H15.3332L19.3255 17.6416C19.3795 17.8035 19.4874 18.1811 19.6492 18.7746H19.7571C19.8111 18.5588 19.919 18.1811 20.0269 17.6956L24.235 6.25819H26.6627ZM30.655 18.9364H30.6011V27.8921H28.2273V6.31214H30.6011V8.90173H30.655C31.8419 6.95954 33.5144 5.93449 35.7803 5.93449C37.6685 5.93449 39.1791 6.58189 40.2581 7.93064C41.3371 9.27938 41.8766 11.0058 41.8766 13.2717C41.8766 15.7534 41.2831 17.7495 40.0962 19.2062C38.9093 20.6628 37.2369 21.4181 35.1329 21.4181C33.1907 21.4181 31.734 20.6089 30.655 18.9364ZM30.6011 12.948V14.9981C30.6011 16.2389 30.9787 17.264 31.788 18.1272C32.5972 18.9904 33.5683 19.422 34.8092 19.422C36.2658 19.422 37.3448 18.8825 38.208 17.7495C39.0712 16.6166 39.4488 15.106 39.4488 13.1638C39.4488 11.4913 39.0712 10.2505 38.3159 9.27938C37.5606 8.36224 36.5356 7.87669 35.2408 7.87669C33.8381 7.87669 32.7591 8.36224 31.8959 9.33333C31.0327 10.3044 30.6011 11.4913 30.6011 12.948ZM56.497 14.2428H46.0307C46.0847 15.9152 46.5163 17.1561 47.3795 18.0732C48.2427 18.9904 49.3756 19.422 50.8862 19.422C52.5587 19.422 54.0693 18.8825 55.472 17.7495V19.9615C54.1772 20.9326 52.4508 21.3642 50.2928 21.3642C48.1887 21.3642 46.5702 20.7168 45.3833 19.368C44.1964 18.0193 43.603 16.131 43.603 13.7033C43.603 11.3834 44.2504 9.54913 45.5452 8.09249C46.84 6.63584 48.4585 5.93449 50.4007 5.93449C52.3429 5.93449 53.8535 6.58189 54.8785 7.82274C55.9575 9.06358 56.4431 10.79 56.4431 13.0559V14.2428H56.497ZM54.0693 12.2466C54.0693 10.8979 53.7456 9.81888 53.0982 9.06358C52.4508 8.30828 51.5336 7.93064 50.4007 7.93064C49.2677 7.93064 48.3506 8.30828 47.5413 9.11753C46.786 9.92678 46.3005 10.9518 46.0847 12.2466H54.0693ZM57.7918 20.3391V18.7206C59.3024 19.6917 60.7591 20.1233 62.3236 20.1233C63.9421 20.1233 65.1829 19.7996 65.9922 19.0983C66.8554 18.4509 67.233 17.4798 67.233 16.2929C67.233 15.2139 66.9633 14.4046 66.3698 13.7572C65.8303 13.1098 64.5895 12.2466 62.7013 11.1676C60.5972 9.92678 59.2485 8.90173 58.709 8.09249C58.1695 7.28324 57.8458 6.31214 57.8458 5.23314C57.8458 3.77649 58.4392 2.53565 59.5722 1.5106C60.7051 0.485549 62.2157 0 64.104 0C65.3448 0 66.5856 0.2158 67.8265 0.647399V2.158C66.5856 1.6185 65.2908 1.34875 63.9421 1.34875C62.5394 1.34875 61.4065 1.7264 60.5972 2.42775C59.788 3.12909 59.3564 4.04624 59.3564 5.12524C59.3564 6.20424 59.6261 7.01349 60.2196 7.66089C60.7591 8.30828 61.9999 9.11753 63.8882 10.1965C65.8303 11.2755 67.1251 12.2466 67.7725 13.1098C68.4199 13.973 68.7436 14.9441 68.7436 16.0771C68.7436 17.6416 68.2041 18.9364 67.0712 19.9615C65.9922 20.9865 64.4277 21.4721 62.3776 21.4721C61.6762 21.4721 60.867 21.3642 59.8959 21.1484C59.0327 20.8786 58.3313 20.6089 57.7918 20.3391ZM81.26 20.3931C80.181 21.0405 78.8323 21.4181 77.3217 21.4181C75.3255 21.4181 73.707 20.7168 72.4662 19.368C71.2253 17.9653 70.6319 16.185 70.6319 13.9191C70.6319 11.5453 71.3332 9.65703 72.7359 8.14644C74.1386 6.63584 75.919 5.88054 78.077 5.88054C79.2099 5.88054 80.2889 6.09634 81.3679 6.58189V8.09249C80.2889 7.44509 79.156 7.12139 77.8612 7.12139C76.1348 7.12139 74.7321 7.76879 73.6531 9.00963C72.5741 10.2505 72.0346 11.869 72.0346 13.8651C72.0346 15.8073 72.5201 17.3179 73.4912 18.5048C74.4623 19.6917 75.7571 20.2312 77.3756 20.2312C78.8323 20.2312 80.1271 19.8536 81.26 19.0443V20.3931ZM90.2157 7.66089C89.7841 7.33719 89.2446 7.17534 88.6511 7.17534C87.4642 7.17534 86.4932 7.76879 85.7379 8.95568C84.9286 10.1426 84.551 11.869 84.551 14.0809V21.0405H83.2562V6.25819H84.551V9.54913H84.6049C84.9286 8.41619 85.4681 7.55299 86.2234 6.90559C86.9787 6.25819 87.788 5.98844 88.7591 5.98844C89.2986 5.98844 89.7841 6.09634 90.2157 6.25819V7.66089ZM92.4816 2.53565C92.2118 2.53565 91.9421 2.42775 91.7263 2.21195C91.5105 1.99615 91.4026 1.7264 91.4026 1.4027C91.4026 1.079 91.5105 0.809249 91.7263 0.647399C91.9421 0.431599 92.2118 0.377649 92.4816 0.377649C92.8053 0.377649 93.0211 0.485549 93.2908 0.647399C93.5066 0.863199 93.6145 1.079 93.6145 1.4027C93.6145 1.7264 93.5066 1.99615 93.2908 2.21195C93.0211 2.42775 92.8053 2.53565 92.4816 2.53565ZM91.8342 21.0944V6.31214H93.1829V21.0944H91.8342ZM97.8226 18.4509H97.7687V27.8921H96.4199V6.31214H97.7687V9.38728H97.8226C98.3621 8.30828 99.1174 7.44509 100.089 6.85164C101.06 6.25819 102.139 5.98844 103.326 5.98844C105.214 5.98844 106.67 6.63584 107.749 7.93064C108.828 9.22543 109.314 11.0058 109.314 13.2177C109.314 15.6994 108.721 17.6956 107.48 19.2062C106.293 20.7168 104.674 21.4721 102.678 21.4721C100.52 21.4181 98.9016 20.447 97.8226 18.4509ZM97.7687 12.948V14.8362C97.7687 16.3468 98.2542 17.5877 99.1714 18.6667C100.089 19.7457 101.329 20.2852 102.84 20.2852C104.351 20.2852 105.591 19.6378 106.509 18.343C107.426 17.0482 107.911 15.3218 107.911 13.2177C107.911 11.3834 107.48 9.87283 106.616 8.79383C105.753 7.71484 104.566 7.17534 103.164 7.17534C101.437 7.17534 100.089 7.76879 99.1714 8.90173C98.2542 10.0347 97.7687 11.3834 97.7687 12.948ZM117.568 20.8786C116.867 21.2023 116.22 21.3642 115.626 21.3642C113.414 21.3642 112.335 20.0694 112.335 17.4258V7.49904H109.692V6.25819H112.335V2.42775C112.551 2.3738 112.767 2.2659 112.983 2.21195C113.198 2.158 113.414 2.0501 113.63 1.99615V6.31214H117.514V7.55299H113.63V17.3179C113.63 18.343 113.792 19.0983 114.116 19.5299C114.439 19.9615 114.979 20.2312 115.734 20.2312C116.273 20.2312 116.867 20.0694 117.514 19.6917V20.8786H117.568Z" fill="#788596"/>
</svg>
