<svg width="139" height="28" viewBox="0 0 139 28" fill="none" xmlns="http://www.w3.org/2000/svg">
<path d="M91.8346 0.0116577H115.836V4.47675H106.315V27.9669H101.554V4.47675H91.8346V0.0116577ZM52.3611 0.0116577V4.47675H33.1222V11.6596H48.5941V16.1247H33.1222V23.5018H52.3611V27.9672H28.3617V4.47675H28.3596V0.0116577H52.3611ZM64.3458 0.0232902H58.1156L80.4308 27.9785H86.6791L75.5202 14.0104L86.6613 0.0444401L80.4308 0.05431L72.4009 10.1062L64.3458 0.0232902ZM70.739 19.992L67.619 16.0821L58.0978 28H64.3458L70.739 19.992Z" fill="#788596"/>
<path fill-rule="evenodd" clip-rule="evenodd" d="M28.5279 27.9669L6.18266 0H0.231934V27.9552H4.99252V5.97555L22.5474 27.9669H28.5279Z" fill="#788596"/>
<path d="M116.906 27.7963C116.74 27.799 116.576 27.768 116.422 27.7053C116.269 27.6425 116.129 27.5493 116.012 27.4311C115.764 27.1875 115.641 26.8928 115.644 26.5435C115.641 26.204 115.764 25.9125 116.012 25.6689C116.129 25.5507 116.269 25.4575 116.422 25.3947C116.576 25.332 116.74 25.301 116.906 25.3037C117.241 25.3037 117.535 25.4254 117.783 25.6689C118.035 25.9122 118.16 26.204 118.164 26.5435C118.163 26.7663 118.102 26.9846 117.986 27.1745C117.873 27.3621 117.714 27.5176 117.525 27.6264C117.338 27.739 117.124 27.7978 116.906 27.7963ZM125.031 16.0193H127.141V24.2113C127.138 24.9639 126.976 25.6079 126.66 26.1494C126.341 26.6908 125.899 27.104 125.331 27.3955C124.767 27.6838 124.106 27.8315 123.354 27.8315C122.667 27.8315 122.051 27.7064 121.503 27.4628C120.954 27.2196 120.519 26.8544 120.199 26.3736C119.877 25.8931 119.719 25.2939 119.719 24.5765H121.832C121.835 24.8903 121.906 25.1627 122.041 25.3901C122.174 25.615 122.369 25.7963 122.602 25.9122C122.844 26.0341 123.122 26.0951 123.434 26.0951C123.773 26.0951 124.064 26.0246 124.299 25.8801C124.534 25.7391 124.715 25.5276 124.841 25.2459C124.963 24.9675 125.028 24.6213 125.031 24.2113V16.0193ZM135.821 19.2231C135.77 18.7265 135.544 18.3387 135.15 18.0634C134.753 17.785 134.241 17.6468 133.611 17.6468C133.17 17.6468 132.789 17.7141 132.473 17.8456C132.157 17.9802 131.912 18.1593 131.744 18.387C131.576 18.6144 131.492 18.8738 131.486 19.1653C131.486 19.4089 131.544 19.6201 131.657 19.7963C131.77 19.9761 131.921 20.1266 132.118 20.2482C132.32 20.3768 132.537 20.4811 132.763 20.5591C133.002 20.6423 133.241 20.7128 133.479 20.7706L134.579 21.0427C135.017 21.1432 135.446 21.2826 135.86 21.4594C136.258 21.6253 136.63 21.8475 136.966 22.1193C137.289 22.3809 137.552 22.7084 137.74 23.0802C137.931 23.4552 138.027 23.8941 138.027 24.4003C138.027 25.0827 137.853 25.6816 137.501 26.2009C137.15 26.7166 136.644 27.1202 135.979 27.4117C135.318 27.7 134.518 27.8474 133.576 27.8474C132.666 27.8474 131.873 27.7064 131.205 27.4244C130.534 27.1459 130.012 26.7356 129.634 26.1977C129.257 25.6594 129.054 25.0027 129.025 24.2307H131.115C131.144 24.634 131.273 24.9706 131.492 25.2428C131.715 25.5117 132.005 25.7105 132.36 25.8452C132.718 25.9763 133.118 26.0436 133.56 26.0436C134.021 26.0436 134.428 25.9731 134.779 25.8357C135.127 25.6978 135.402 25.5054 135.599 25.2555C135.799 25.0087 135.899 24.7175 135.902 24.3841C135.899 24.0799 135.808 23.8268 135.634 23.628C135.457 23.4295 135.211 23.2628 134.898 23.1285C134.54 22.9795 134.172 22.8585 133.795 22.7665L132.46 22.4267C131.495 22.1799 130.731 21.8052 130.173 21.3022C129.612 20.7992 129.334 20.1329 129.334 19.2965C129.334 18.6112 129.521 18.0088 129.899 17.4931C130.273 16.9774 130.786 16.5766 131.434 16.2918C132.086 16.0034 132.821 15.8624 133.64 15.8624C134.473 15.8624 135.202 16.0034 135.831 16.2918C136.46 16.5769 136.953 16.9742 137.311 17.4804C137.669 17.9866 137.856 18.5661 137.866 19.2231H135.821Z" fill="#788596"/>
</svg>
