<svg width="73" height="28" viewBox="0 0 73 28" fill="none" xmlns="http://www.w3.org/2000/svg">
<path fillRule="evenodd" clipRule="evenodd" d="M17.0568 0C16.8542 0 16.662 0.0447409 16.491 0.105273C16.8594 0.352665 17.0647 0.679011 17.1674 1.05273C17.1753 1.10537 17.1884 1.13958 17.1937 1.18959C17.1989 1.23959 17.2095 1.27644 17.2095 1.32118C17.2358 1.96071 17.0437 2.03967 16.9042 2.41865C16.8053 2.64759 16.7629 2.89698 16.7808 3.14574C16.7987 3.39449 16.8762 3.63528 17.0068 3.84773C17.03 3.90415 17.0592 3.95796 17.0937 4.00827C16.8173 2.17126 18.349 1.89491 18.6333 1.32381C18.6543 0.797443 18.2385 0.489519 17.9148 0.255287C17.658 0.0933477 17.3605 0.00756505 17.0568 0.00789491V0ZM19.3649 0.413196C19.3386 0.579001 19.357 0.536893 19.3491 0.623743L19.3333 0.813234L19.2807 0.986935C19.2647 1.04587 19.2453 1.10386 19.2228 1.16064L19.1439 1.32644C19.1228 1.35276 19.107 1.38434 19.086 1.41329L19.0412 1.47909L18.9359 1.62384C18.8912 1.66858 18.857 1.71858 18.8044 1.75543C18.7517 1.79227 18.7175 1.84228 18.6675 1.87912C18.5149 1.99492 18.3412 2.08177 18.1806 2.19494C18.128 2.23179 18.0753 2.26074 18.0359 2.30022C17.9964 2.33969 17.9411 2.37391 17.899 2.41602C17.8569 2.45813 17.8122 2.50287 17.7674 2.55287C17.7227 2.60288 17.6885 2.64762 17.6621 2.69762L17.5569 2.85027L17.4779 3.01607L17.42 3.18188L17.3674 3.36611C17.3595 3.39242 17.3595 3.4319 17.3516 3.46085C17.3437 3.4898 17.3437 3.51875 17.3358 3.5477L17.3279 3.73193C17.3269 3.77594 17.3295 3.81995 17.3358 3.86352C17.3358 3.92142 17.3437 3.97932 17.3568 4.04775C17.37 4.11618 17.3779 4.16355 17.3937 4.22145L17.4516 4.39515C17.4674 4.432 17.4884 4.46884 17.5042 4.50042L15.8357 3.85299L14.9935 3.63455L14.5355 3.52928C14.0986 3.44256 13.6577 3.37757 13.2144 3.33452C12.7704 3.28558 12.3241 3.26098 11.8774 3.26083L10.9299 3.29768C10.4846 3.32969 10.041 3.38326 9.60086 3.45822L9.27451 3.51612L8.62182 3.66087L8.29547 3.74772L7.97965 3.88458L7.74279 3.98985L7.50592 4.10565C7.48487 4.11354 7.46908 4.12144 7.45329 4.1267L7.22695 4.2425C7.17431 4.26356 7.12168 4.29514 7.0822 4.3162C7.06114 4.33199 7.02956 4.34251 7.0164 4.35304L6.82691 4.45831C6.76112 4.49516 6.70322 4.532 6.65321 4.56359L6.50846 4.66886L6.35055 4.78466L6.22685 4.88993C6.1479 4.94783 6.11105 4.98468 6.07421 5.01363L5.9163 5.16627L5.77155 5.30313L5.64785 5.43472C5.63206 5.45051 5.61101 5.46104 5.59522 5.47946C5.55837 5.5242 5.51626 5.56631 5.47152 5.61105L5.27676 5.8216L4.88199 6.19795C4.75365 6.31243 4.61829 6.41879 4.47669 6.5164L4.03981 6.79274C3.89147 6.87426 3.73857 6.9472 3.58187 7.01119C3.42922 7.07698 3.26605 7.13488 3.10814 7.18489C2.80285 7.25068 2.49229 7.37438 2.22121 7.39543C2.16331 7.39543 2.09752 7.41122 2.03699 7.41649L1.85276 7.46123L1.67906 7.52702C1.62116 7.54808 1.56326 7.57966 1.50536 7.60598C1.44746 7.6323 1.40008 7.67177 1.34745 7.71125C1.29596 7.74853 1.24755 7.7899 1.2027 7.83495C1.15006 7.87179 1.09742 7.9218 1.05795 7.96654L0.934251 8.11129C0.897406 8.16919 0.855297 8.21656 0.828978 8.27709C0.80266 8.33763 0.755287 8.38237 0.723705 8.4429L0.644751 8.63239L0.578955 8.82188L0.542109 8.99558C0.521055 9.08243 0.521055 9.16928 0.515791 9.21402C0.510527 9.25877 0.5 9.30877 0.5 9.35877C0.5 9.38509 0.5 9.42457 0.507896 9.45352C0.515791 9.50616 0.523686 9.54827 0.534214 9.59038L0.58685 9.72197C0.607905 9.7746 0.639487 9.81671 0.665805 9.85882L0.760551 9.99041L0.884247 10.1062C0.928988 10.151 0.971097 10.1852 1.0211 10.222C1.1948 10.3747 1.23954 10.4247 1.46325 10.5378C1.50009 10.5589 1.53694 10.5747 1.57905 10.5957C1.61589 10.701 1.63169 10.7536 1.64485 10.8142C1.658 10.8747 1.68169 10.9379 1.70274 10.9879L1.76065 11.1195L1.86592 11.3142L1.97119 11.4669L2.09489 11.6037C2.13963 11.6485 2.18174 11.6827 2.23174 11.7274L2.37649 11.8327C2.42737 11.8685 2.48106 11.9002 2.53703 11.9274C2.58967 11.9538 2.64231 11.9853 2.70284 12.0064C2.74758 12.0274 2.79758 12.0432 2.84759 12.059C2.89759 12.0748 2.94234 12.0853 2.97129 12.0959C2.95023 12.4906 2.94497 12.8854 2.9976 12.9907C3.0634 13.1354 3.38185 12.6933 3.70293 12.1854C3.65819 12.7117 3.62924 13.2749 3.70293 13.4486C3.77662 13.6223 4.21877 13.0644 4.59775 12.438C9.74561 11.2484 14.4408 14.8067 14.9408 19.8282C14.8461 19.0439 13.8802 18.6096 13.4407 18.7176C13.2222 19.2544 12.8538 19.944 12.2564 20.3756C12.308 19.8905 12.2832 19.4002 12.1827 18.9228C12.0248 19.5913 11.7089 20.2124 11.2826 20.752C10.9501 20.7746 10.6171 20.7148 10.3132 20.578C10.0093 20.4412 9.74385 20.2316 9.54032 19.9677C9.51401 19.9466 9.50348 19.9019 9.48242 19.8729L9.4061 19.694C9.38505 19.6413 9.36926 19.5887 9.36136 19.5413C9.35346 19.4939 9.35346 19.436 9.35346 19.3834V19.2781C9.36136 19.2255 9.37452 19.1729 9.39031 19.1255L9.44295 18.9728C9.46926 18.9202 9.49558 18.8676 9.5298 18.8202C9.65349 18.4728 9.65349 18.1886 9.42452 18.0227C9.37978 17.9964 9.33767 17.9701 9.28767 17.9491C9.26135 17.9412 9.22187 17.928 9.19292 17.9227L9.13502 17.9017L8.98238 17.8648C8.93273 17.8507 8.88135 17.8436 8.82973 17.8438C8.77664 17.8349 8.723 17.8296 8.66919 17.828C8.63234 17.828 8.5955 17.8359 8.56392 17.8359C8.50602 17.8359 8.45864 17.8438 8.40601 17.8569L8.25336 17.8833L8.10072 17.9359L7.95596 18.0017L7.81911 18.0754C6.12684 19.1807 7.13483 21.7599 8.29284 22.5126C7.85596 22.5916 7.41381 22.6863 7.29274 22.7811C7.59014 22.9837 7.91649 23.1443 8.25862 23.3075L9.43505 23.6549C10.0357 23.7836 10.6511 23.8297 11.2642 23.7917C14.4803 23.5654 17.1174 21.1204 17.5963 17.8964L17.6411 18.0859L17.7069 18.4912C17.7227 18.5649 17.7279 18.6281 17.7332 18.686L17.749 18.9044L17.7648 19.1413V19.2571C17.7648 19.2939 17.7727 19.336 17.7727 19.3729C17.7727 19.4097 17.7648 19.4597 17.7648 19.5045V19.6097C17.7648 19.6624 17.7569 19.7045 17.7569 19.7545C17.7569 19.7808 17.7569 19.8124 17.749 19.8492L17.7411 20.0071C17.7332 20.0282 17.7332 20.0519 17.7332 20.0729L17.7121 20.2387C17.7121 20.2598 17.7121 20.2835 17.7042 20.3045L17.6779 20.5151V20.5282L17.6332 20.7309L17.5884 20.9493L17.4726 21.3967L17.399 21.6284L17.241 22.0494L17.1542 22.26L17.0489 22.4626C17.041 22.4837 17.0331 22.4995 17.0279 22.5153C16.5439 23.4846 15.84 24.3272 14.9724 24.976C14.9145 25.0129 14.8566 25.055 14.7987 25.0997C14.7829 25.1155 14.7619 25.1208 14.7461 25.1366L14.5882 25.2418L14.6092 25.2866H14.6171L14.9224 25.2418H14.9303L15.4961 25.1366C15.5488 25.1287 15.6014 25.1155 15.6541 25.0997L15.7593 25.0787L15.912 25.0524L16.0436 25.0155C16.763 24.84 17.4671 24.6068 18.149 24.3181C16.9826 25.9076 15.4312 27.1746 13.6407 28C14.479 27.9445 15.3091 27.8007 16.1173 27.571C19.0438 26.7078 21.5046 24.7392 22.9784 22.0889C22.681 23.7654 22.0125 25.3629 21.0256 26.7578C21.7309 26.2919 22.3757 25.7577 22.9653 25.1471C24.5917 23.4469 25.6603 21.2915 26.0182 18.9755C26.2656 20.1229 26.334 21.3073 26.2287 22.4758C31.4713 15.1646 26.6656 7.58492 24.6496 5.58737C24.6233 5.64 24.6128 5.72422 24.6075 5.8137L24.5338 6.30059L24.4101 6.77958L24.2364 7.24542L24.018 7.68756L23.7548 8.10076L23.4574 8.49553C23.3521 8.62713 23.2311 8.74293 23.1153 8.85873L22.9047 9.04296L22.7389 9.18771C22.6098 9.29062 22.4744 9.38554 22.3336 9.47194L21.9046 9.71933L21.4467 9.92199C21.2922 9.98046 21.135 10.0314 20.9756 10.0746L20.4887 10.1799C20.3229 10.2062 20.1545 10.2246 19.9939 10.2378L19.6465 10.2536C19.4807 10.2536 19.3123 10.2378 19.1518 10.2273C18.9854 10.215 18.8201 10.1912 18.657 10.1562C18.4912 10.1299 18.3306 10.0825 18.1701 10.0325H18.1622L18.6412 9.97462L19.1281 9.86935L19.6018 9.7167C19.7597 9.6588 19.9176 9.58511 20.0597 9.51405C20.2092 9.44141 20.355 9.36149 20.4966 9.27456L20.9019 9.01137C21.0323 8.91039 21.1562 8.8014 21.273 8.68503C21.3943 8.57384 21.5086 8.45518 21.6151 8.32973L21.9204 7.93496C21.9362 7.9139 21.9468 7.88232 21.9652 7.86127L22.1757 7.51386L22.3942 7.07172L22.5679 6.60588C22.6205 6.45324 22.6547 6.29006 22.6916 6.13216L22.7653 5.64527L22.7916 5.15048L22.7784 4.80308L22.7205 4.3162L22.6152 3.82931L22.4573 3.36347C22.3994 3.21083 22.3257 3.05818 22.2547 2.91606L22.0073 2.48708L21.7441 2.08704L21.4099 1.71858L21.2204 1.53435L20.2124 0.823762C20.1597 0.797443 20.1176 0.771125 20.0676 0.75007C19.8308 0.597424 19.6018 0.51847 19.3781 0.444778L19.3649 0.413196Z" fill="#788596"/>
<path d="M33.8981 18.9202C34.0666 18.8401 34.2442 18.7809 34.4271 18.7439C34.835 18.6781 35.0666 18.6228 35.1324 18.5781C35.2429 18.5123 35.3166 18.4202 35.3535 18.336C35.3982 18.178 35.4193 17.8622 35.4193 17.3543V16.3937L35.4298 15.6094L35.3956 14.4382V13.7461C35.3956 13.2829 35.3614 12.896 35.285 12.6091C35.264 12.4986 35.164 12.388 35.0087 12.2775C34.7982 12.1196 34.4823 11.9801 33.9612 11.8353L33.9507 11.309L34.2034 11.2563C34.2823 11.2458 34.5797 11.1669 35.0982 11.0353L35.8825 10.7273L36.0667 10.6273C36.1609 10.5472 36.2602 10.4733 36.3641 10.4063C36.6615 10.1719 36.9285 9.90138 37.1589 9.60092L37.7432 9.55618L37.7221 10.8037C37.7116 10.9247 37.7116 11.0247 37.7116 11.1011L37.7221 11.609C38.3406 11.0826 38.8933 10.7142 39.4012 10.5036C39.9903 10.2434 40.6259 10.1047 41.2698 10.0957C41.9184 10.0826 42.5561 10.2631 43.1016 10.6142C43.6174 10.9563 43.9701 11.3511 44.1543 11.7985C44.3385 12.2459 44.3964 13.167 44.3964 14.5251L44.3517 18.1465C44.3492 18.2909 44.3798 18.4341 44.4412 18.5649C44.6366 18.6544 44.8457 18.7104 45.0597 18.7307L45.6018 18.8307C45.6708 18.9351 45.7057 19.0583 45.7018 19.1834L45.6913 19.5466L43.5174 19.3887L42.8779 19.4097H42.3699L40.9014 19.5203H40.525C40.5145 19.4203 40.5145 19.3545 40.5145 19.2992L40.5355 18.8676C40.6355 18.8465 40.8987 18.8149 41.3093 18.757C41.4198 18.7465 41.5409 18.7123 41.6856 18.6781C41.8304 18.6255 41.9172 18.557 41.9383 18.5018C41.9909 18.3702 42.0278 18.1386 42.0278 17.7833L42.0067 16.3489L42.0173 15.0672C42.0173 13.4987 41.9278 12.5275 41.7541 12.1538C41.4909 11.5906 41.0487 11.3116 40.4855 11.3116C40.0397 11.3221 39.6019 11.4318 39.2038 11.6327C38.6976 11.8804 38.2325 12.2044 37.8248 12.5933L37.8037 12.7775L37.8248 13.4723L37.8142 14.2093L37.859 15.9857L37.8379 16.2621C37.8379 17.4648 37.8827 18.1491 37.9827 18.3044C38.0827 18.4597 38.4459 18.6255 39.088 18.8123L39.1222 19.0887C39.1222 19.1781 39.088 19.3097 39.0433 19.4966L38.459 19.5071C38.2149 19.4997 37.9715 19.4777 37.73 19.4413L36.5141 19.4308L33.9533 19.5097C33.9227 19.4364 33.9075 19.3576 33.9086 19.2782L33.9191 18.9255L33.8981 18.9202ZM46.9361 13.6408C47.1335 13.0091 47.2993 12.5933 47.4546 12.3933C47.8625 11.788 48.3047 11.3406 48.7705 10.9721C49.2364 10.6037 49.6653 10.4089 50.0391 10.2984C50.4249 10.1738 50.8261 10.103 51.2313 10.0878C51.7957 10.0725 52.3598 10.1282 52.9104 10.2536C53.2962 10.3351 53.6632 10.4886 53.9921 10.7063C54.3554 10.9573 54.6883 11.2497 54.9843 11.5774C55.2441 11.8901 55.4496 12.2442 55.5922 12.6249C55.7684 13.0866 55.8619 13.5757 55.8686 14.0698L54.6316 14.0487C53.8844 14.0316 53.1377 13.9982 52.3919 13.9487L51.5076 13.904L50.3154 13.9145H49.3548L49.3337 14.1777C49.3337 14.5724 49.3864 14.983 49.4785 15.4252C49.5706 15.8673 49.7206 16.2305 49.9101 16.5621C50.0975 16.8827 50.3408 17.167 50.6286 17.4017C50.8918 17.6438 51.2129 17.8096 51.5129 17.9201L52.1524 18.1307L53.2999 18.078C53.6162 18.0134 53.9263 17.9209 54.2263 17.8017C54.5723 17.6363 54.9012 17.437 55.208 17.2069L55.8817 17.7333C55.2317 18.4386 54.5447 18.9702 53.8499 19.3124C53.1551 19.6545 52.3709 19.7861 51.4813 19.7861C50.897 19.7861 50.4207 19.7414 50.047 19.6282C49.5702 19.5037 49.1181 19.299 48.71 19.0229C48.3104 18.7386 47.9556 18.3962 47.6573 18.007C47.3414 17.6122 47.1493 17.178 47.0072 16.749C46.8309 16.1858 46.7309 15.7331 46.7309 15.4015C46.7251 14.816 46.778 14.2315 46.8888 13.6566L46.9361 13.6408ZM53.3841 13.167C53.3736 12.746 53.2946 12.3617 53.142 11.9748C52.9893 11.588 52.7472 11.3116 52.413 11.1063C52.1244 10.9052 51.783 10.7935 51.4313 10.7852C50.9049 10.7852 50.4917 11.0063 50.0838 11.4353C49.6759 11.8643 49.4653 12.488 49.4101 13.2118L51.9366 13.2223L52.6209 13.1881L53.0841 13.1539L53.3815 13.1644L53.3841 13.167ZM57.595 16.3831C57.7551 16.3468 57.918 16.3248 58.0819 16.3173L58.3135 16.3279L58.4135 16.4384L59.2083 17.7201C59.461 18.0175 59.7163 18.2623 59.9979 18.4491C60.1637 18.5597 60.4295 18.6913 60.7927 18.8123C61.0445 18.9016 61.3099 18.9461 61.577 18.9439C62.0164 18.9552 62.4434 18.7969 62.7692 18.5018C63.1008 18.1938 63.2956 17.8701 63.2956 17.5201C63.2956 17.2885 63.2298 17.0885 63.1113 16.9253C62.9929 16.7621 62.735 16.5937 62.3613 16.3989C62.177 16.32 61.7112 16.1884 60.9585 16.0042L59.6742 15.641C59.3345 15.5142 59.0206 15.327 58.7478 15.0883C58.4887 14.865 58.2782 14.5909 58.1293 14.2829C57.9451 13.8619 57.8661 13.4987 57.8661 13.2302C57.8661 12.667 57.9556 12.2143 58.1082 11.8511C58.276 11.4924 58.512 11.1697 58.803 10.901C59.0136 10.6905 59.3294 10.5063 59.7637 10.3378C60.2073 10.1685 60.6784 10.0828 61.1533 10.0852C61.7749 10.0769 62.3959 10.1253 63.0087 10.2299C63.4761 10.3089 63.9299 10.4542 64.3562 10.6616C64.4088 10.8274 64.4667 11.2248 64.5536 11.8327L64.6747 12.9249C64.6747 12.9776 64.6641 13.0355 64.6404 13.0907C64.4827 13.1417 64.3191 13.1718 64.1535 13.1802C64.0878 13.1802 63.9772 13.1697 63.8325 13.1592C63.7381 13.0086 63.6503 12.8541 63.5693 12.696C63.2166 12.0327 62.8508 11.5695 62.4771 11.3063C62.1034 11.0432 61.6823 10.8984 61.1612 10.8984C60.6401 10.8984 60.2216 11.0563 59.8795 11.3406C59.7542 11.4501 59.6553 11.5866 59.5902 11.7397C59.525 11.8928 59.4952 12.0586 59.5031 12.2249C59.5031 12.467 59.6347 12.7117 59.8979 12.9618C60.1611 13.2118 60.6032 13.4144 61.2454 13.546C62.2192 13.7566 62.935 13.9777 63.3877 14.1856C64.0509 14.4935 64.5246 14.8698 64.7905 15.2909C65.0563 15.712 65.1984 16.1963 65.1984 16.749C65.1984 17.6096 64.8668 18.3281 64.2167 18.9018C63.5667 19.4755 62.6376 19.7519 61.3901 19.7519C60.966 19.7318 60.5428 19.6949 60.1216 19.6413C59.8137 19.6071 59.4478 19.5308 59.0294 19.4203C58.7529 19.3252 58.4807 19.218 58.2135 19.0992C58.1445 19.0593 58.0845 19.0055 58.0372 18.9413C58.0161 18.8755 57.9582 18.5649 57.8924 18.0149L57.7082 16.391L57.595 16.3831ZM66.6906 11.0826C67.5591 10.7195 68.1908 10.3536 68.5776 10.0299C68.9645 9.7062 69.383 9.09035 69.8251 8.29291H70.4568C70.5231 8.48875 70.5568 8.69411 70.5568 8.90086L70.5463 9.80621L70.512 10.4563L70.5226 10.7089L70.7752 10.7195L71.8122 10.6747L72.6412 10.6537C72.6851 10.8268 72.7106 11.0041 72.7175 11.1827C72.7175 11.359 72.6833 11.559 72.628 11.7774C72.445 11.8047 72.2604 11.8197 72.0753 11.8222C72.0227 11.8222 71.899 11.8222 71.7227 11.8011H71.1489L70.9489 11.7906L70.4226 11.8117L70.4015 16.0226L70.4462 17.5569C70.4932 17.7681 70.5837 17.9671 70.7121 18.1412C70.8886 18.2227 71.0809 18.264 71.2753 18.2623C71.4727 18.2623 71.6174 18.2412 71.7174 18.2096C71.8174 18.178 71.9806 18.0649 72.2043 17.8885C72.249 17.8438 72.3254 17.7991 72.4149 17.7306C72.58 17.8501 72.7287 17.9908 72.857 18.1491L72.9017 18.2807C72.6301 18.6968 72.2484 19.0293 71.799 19.2413C71.3358 19.4729 70.8384 19.5834 70.3094 19.5834C69.6146 19.5834 69.0619 19.3624 68.6303 18.9334C68.1987 18.5044 67.9908 17.8175 67.9908 16.9016L68.0355 14.9593V11.7985L67.6934 11.788L66.888 11.7985L66.7433 11.7643C66.7024 11.7114 66.6793 11.6469 66.6775 11.5801L66.6985 11.0537L66.6906 11.0826Z" fill="#788596"/>
</svg>
