<svg width="110" height="28" viewBox="0 0 110 28" fill="none" xmlns="http://www.w3.org/2000/svg">
<path d="M51.9596 8.16288C51.3804 8.14478 50.9098 8.59727 50.8917 9.15835V14.371C48.412 12.3801 44.774 12.7783 42.7831 15.2579C41.9686 16.2896 41.5161 17.5565 41.5161 18.8778C41.4618 22.0633 43.9958 24.6878 47.1813 24.7421C50.3668 24.7964 52.9912 22.2624 53.0455 19.0769V9.23075C53.0455 8.94116 52.9369 8.66967 52.7378 8.47057C52.5206 8.27148 52.2491 8.16288 51.9596 8.16288ZM50.6021 20.2715C50.2401 21.1403 49.5523 21.828 48.6835 22.2081C47.7786 22.5882 46.765 22.5882 45.86 22.2081C44.9912 21.8461 44.3215 21.1403 43.9596 20.2896C43.5795 19.4027 43.5795 18.3891 43.9596 17.4841C44.3215 16.6154 45.0093 15.9276 45.86 15.5656C46.765 15.1855 47.7786 15.1855 48.6835 15.5656C49.5523 15.9457 50.2401 16.6335 50.6021 17.5022C50.9822 18.371 50.9822 19.3846 50.6021 20.2715ZM63.9958 14.8054C61.7514 12.5611 58.0953 12.5611 55.851 14.8054C54.765 15.8914 54.1677 17.3575 54.1677 18.8778C54.1134 22.0633 56.6473 24.6878 59.8329 24.7421C63.0184 24.7964 65.6428 22.2624 65.6971 19.0769V18.8778C65.6971 18.1176 65.5523 17.3755 65.2627 16.6697C64.9731 15.9638 64.5387 15.3303 63.9958 14.8054ZM63.2537 20.2534C63.0727 20.6878 62.8012 21.0679 62.4754 21.3936C62.1496 21.7194 61.7514 21.9909 61.3351 22.1719C60.4301 22.552 59.4166 22.552 58.5116 22.1719C57.6428 21.8099 56.955 21.1041 56.593 20.2534C56.2129 19.3665 56.2129 18.3529 56.593 17.4479C56.955 16.5792 57.6428 15.9095 58.5116 15.5294C59.4166 15.1493 60.4301 15.1493 61.3351 15.5294C61.7695 15.7104 62.1496 15.9819 62.4754 16.3077C62.8012 16.6335 63.0727 17.0317 63.2537 17.4479C63.6338 18.371 63.6338 19.3846 63.2537 20.2534ZM87.8329 14.1719C87.8329 14.0271 87.7967 13.8823 87.7424 13.7556C87.6881 13.6289 87.5976 13.5203 87.5071 13.4117C87.4166 13.3212 87.2899 13.2308 87.1632 13.1765C87.0365 13.1222 86.8917 13.086 86.7469 13.086C86.5478 13.086 86.3487 13.1403 86.1677 13.2489L80.0139 17.2489V9.24885C80.0139 8.95926 79.9053 8.68776 79.7062 8.48867C79.5071 8.28957 79.2356 8.16288 78.946 8.16288C78.3487 8.16288 77.8781 8.63347 77.86 9.23075V23.5475C77.86 23.8371 77.9686 24.1086 78.1677 24.3077C78.3668 24.5249 78.6383 24.6335 78.9279 24.6335C79.2175 24.6335 79.489 24.5249 79.6881 24.3077C79.8872 24.1086 80.0138 23.8371 79.9958 23.5475V19.8371L81.2446 19.0226L86.0048 24.362C86.2039 24.543 86.4573 24.6516 86.7288 24.6335C86.8736 24.6335 87.0184 24.6154 87.1451 24.543C87.2718 24.4887 87.3804 24.4163 87.489 24.3077C87.5795 24.1991 87.67 24.0905 87.7243 23.9638C87.7786 23.8371 87.8148 23.6923 87.8148 23.5475C87.8148 23.276 87.7062 23.0045 87.5252 22.8054L83.1089 17.828L87.4166 15.0226C87.7062 14.8416 87.851 14.5158 87.8329 14.1719ZM69.9686 16.3077C70.2944 15.9819 70.6926 15.7104 71.127 15.5294C71.5795 15.3484 72.0501 15.2398 72.5387 15.2398C72.9731 15.2398 73.3894 15.3122 73.7876 15.457C74.1858 15.6199 74.5659 15.8371 74.8917 16.1267C75.0908 16.2896 75.3442 16.362 75.5976 16.362C75.8872 16.3801 76.1767 16.2715 76.3758 16.0543C76.5749 15.8552 76.6835 15.5656 76.6835 15.276C76.6835 14.9683 76.5568 14.6606 76.3034 14.4615C75.2718 13.5384 73.9324 13.0317 72.5387 13.0679C69.3532 13.0679 66.765 15.6561 66.765 18.8416C66.765 22.0271 69.3351 24.5973 72.5025 24.6154C73.8962 24.6154 75.2356 24.1267 76.2853 23.2217C76.5025 23.0226 76.6292 22.733 76.6292 22.4253C76.6473 21.8461 76.1948 21.3755 75.6338 21.3574H75.5614C75.308 21.3574 75.0727 21.4298 74.8736 21.5746C74.5478 21.8642 74.1858 22.0814 73.7876 22.2443C73.3894 22.3891 72.955 22.4615 72.5387 22.4615C72.0501 22.4615 71.5795 22.371 71.127 22.1719C70.6926 21.9909 70.3125 21.7194 69.9686 21.3936C68.5568 19.9819 68.5568 17.7013 69.9505 16.2896C69.9686 16.3258 69.9686 16.3258 69.9686 16.3077ZM109.208 13.828C108.991 13.6289 108.756 13.4841 108.484 13.3936C108.177 13.285 107.851 13.2127 107.525 13.1765C107.199 13.1403 106.874 13.1222 106.548 13.1222C105.896 13.1222 105.227 13.2307 104.611 13.466C103.996 13.6832 103.435 14.009 102.928 14.4072V14.19C102.91 13.5927 102.403 13.1403 101.806 13.1584C101.535 13.1674 101.278 13.279 101.086 13.4705C100.895 13.6621 100.783 13.9193 100.774 14.19V23.5837C100.792 24.181 101.299 24.6335 101.896 24.6154C102.167 24.6063 102.424 24.4947 102.616 24.3032C102.807 24.1116 102.919 23.8544 102.928 23.5837V18.8959C102.928 18.4072 103.018 17.9366 103.217 17.4841C103.398 17.0498 103.652 16.6697 103.996 16.3439C104.322 16.0181 104.72 15.7466 105.136 15.5656C105.589 15.3846 106.059 15.276 106.548 15.276C107.036 15.276 107.507 15.3665 107.96 15.5294C108.104 15.6018 108.249 15.638 108.412 15.638C108.557 15.638 108.702 15.6199 108.828 15.5475C108.955 15.4932 109.064 15.4208 109.172 15.3122C109.263 15.2217 109.353 15.095 109.408 14.9683C109.462 14.8416 109.498 14.6968 109.498 14.552C109.516 14.2805 109.408 14.0271 109.208 13.828ZM99.2175 16.6697C98.2944 14.5339 96.1948 13.1403 93.8781 13.1222C90.6926 13.1222 88.1225 15.6923 88.1044 18.8778C88.1044 22.0633 90.6926 24.6516 93.8781 24.6516C95.2537 24.6516 96.593 24.1629 97.6428 23.2579L97.679 23.2217C97.7695 23.1493 97.86 23.0588 97.9143 22.9502C98.2582 22.4434 98.1315 21.7737 97.6428 21.4298C97.2265 21.1583 96.6835 21.2127 96.3215 21.5565C96.2853 21.5927 96.1767 21.6832 96.1767 21.7013L96.1586 21.7194C95.851 21.9728 95.5071 22.19 95.127 22.3167C94.7288 22.4615 94.3125 22.5339 93.8781 22.5158C93.4799 22.5158 93.0998 22.4615 92.7197 22.3348C92.3577 22.2081 92.0138 22.0452 91.7062 21.8099C91.3985 21.5927 91.127 21.3212 90.9098 21.0136C90.6745 20.7059 90.5116 20.3439 90.403 19.9819H98.5478C98.8374 19.9819 99.1089 19.8733 99.308 19.6742C99.5252 19.4751 99.6338 19.2036 99.6157 18.914C99.6338 18.1357 99.489 17.3755 99.2175 16.6697ZM90.403 17.828C90.5116 17.4479 90.6745 17.1041 90.9098 16.7964C91.127 16.4887 91.3985 16.2172 91.7062 16C92.0138 15.7828 92.3577 15.6018 92.7197 15.4751C93.0817 15.3484 93.4799 15.2941 93.86 15.2941C94.2401 15.2941 94.6383 15.3484 95.0003 15.4751C95.7243 15.7104 96.3577 16.181 96.8102 16.7964C97.0455 17.1041 97.2084 17.466 97.3351 17.828H90.403ZM105.534 23.0769C105.118 23.0769 104.792 23.4208 104.792 23.8371C104.792 24.2534 105.136 24.5792 105.552 24.5792C105.969 24.5792 106.294 24.2353 106.294 23.8371C106.294 23.4027 105.951 23.0769 105.534 23.0769ZM105.534 24.4163C105.208 24.4344 104.937 24.181 104.919 23.8552C104.901 23.5294 105.154 23.2579 105.48 23.2398C105.806 23.2217 106.077 23.4751 106.095 23.8009V23.8371C106.113 24.1448 105.86 24.4163 105.552 24.4163H105.534Z" fill="#788596"/>
<path d="M105.715 23.8371C105.806 23.819 105.86 23.7466 105.86 23.6561C105.86 23.5837 105.842 23.5294 105.788 23.4932C105.715 23.457 105.625 23.4389 105.534 23.4389C105.444 23.4389 105.335 23.4389 105.245 23.457V24.1991H105.408V23.9095H105.48C105.57 23.9095 105.625 23.9457 105.643 24.0181C105.661 24.0724 105.679 24.1448 105.697 24.1991H105.878C105.842 24.1448 105.824 24.0724 105.824 24.0181C105.842 23.9457 105.788 23.8733 105.715 23.8371ZM105.498 23.7828H105.408V23.5656H105.498C105.607 23.5656 105.661 23.6199 105.661 23.6742C105.679 23.7466 105.589 23.8009 105.498 23.7828ZM39.5433 10.5882C39.4347 10.4977 38.4574 9.75566 36.3578 9.75566C35.8148 9.75566 35.2537 9.80996 34.7108 9.90046C34.3126 7.13123 32.0139 5.79186 31.9234 5.71947L31.3623 5.39368L31.0003 5.91856C30.5479 6.62444 30.204 7.42082 30.0049 8.2353C29.6248 9.80996 29.8601 11.2941 30.6565 12.5611C29.6972 13.1041 28.1406 13.2308 27.8148 13.2489H2.11347C1.44379 13.2489 0.9008 13.7919 0.9008 14.4615C0.864601 16.7059 1.24469 18.9502 2.02297 21.0679C2.90985 23.3846 4.23112 25.1041 5.93247 26.1539C7.85103 27.3303 10.9822 28 14.5117 28C16.1044 28 17.6972 27.8552 19.2718 27.5656C21.4619 27.1674 23.5614 26.4072 25.4981 25.3032C27.0908 24.3801 28.5207 23.2036 29.7334 21.8281C31.7786 19.5294 32.9913 16.9593 33.8782 14.6787H34.2402C36.4664 14.6787 37.842 13.7919 38.6022 13.0317C39.1089 12.5611 39.489 11.9819 39.7605 11.3303L39.9234 10.8597L39.5433 10.5882Z" fill="#788596"/>
<path d="M4.50264 12.5068H7.94155C8.10445 12.5068 8.24924 12.3801 8.24924 12.1991V9.12217C8.24924 8.95927 8.12255 8.81448 7.94155 8.81448H4.50264C4.33974 8.81448 4.19495 8.94117 4.19495 9.12217V12.1991C4.21305 12.3801 4.33974 12.5068 4.50264 12.5068ZM9.24472 12.5068H12.6836C12.8465 12.5068 12.9913 12.3801 12.9913 12.1991V9.12217C12.9913 8.95927 12.8646 8.81448 12.6836 8.81448H9.24472C9.08182 8.81448 8.93703 8.94117 8.93703 9.12217V12.1991C8.95513 12.3801 9.08182 12.5068 9.24472 12.5068ZM14.0773 12.5068H17.5162C17.6791 12.5068 17.8239 12.3801 17.8239 12.1991V9.12217C17.8239 8.95927 17.6972 8.81448 17.5162 8.81448H14.0773C13.9144 8.81448 13.7696 8.94117 13.7696 9.12217V12.1991C13.7696 12.3801 13.8963 12.5068 14.0773 12.5068ZM18.8375 12.5068H22.2764C22.4393 12.5068 22.5841 12.3801 22.5841 12.1991V9.12217C22.5841 8.95927 22.4574 8.81448 22.2764 8.81448H18.8375C18.6746 8.81448 18.5298 8.94117 18.5298 9.12217V12.1991C18.5298 12.3801 18.6746 12.5068 18.8375 12.5068ZM9.24472 8.1086H12.6836C12.8465 8.1086 12.9913 7.9638 12.9913 7.80091V4.72398C12.9913 4.56109 12.8646 4.41629 12.6836 4.41629H9.24472C9.08182 4.41629 8.93703 4.54299 8.93703 4.72398V7.80091C8.95513 7.9638 9.08182 8.1086 9.24472 8.1086ZM14.0773 8.1086H17.5162C17.6791 8.1086 17.8239 7.9638 17.8239 7.80091V4.72398C17.8239 4.56109 17.6972 4.41629 17.5162 4.41629H14.0773C13.9144 4.41629 13.7696 4.54299 13.7696 4.72398V7.80091C13.7696 7.9638 13.8963 8.1086 14.0773 8.1086ZM18.8375 8.1086H22.2764C22.4393 8.1086 22.5841 7.9638 22.5841 7.80091V4.72398C22.5841 4.56109 22.4393 4.41629 22.2764 4.41629H18.8375C18.6746 4.41629 18.5298 4.54299 18.5298 4.72398V7.80091C18.5298 7.9638 18.6746 8.1086 18.8375 8.1086ZM18.8375 3.69231H22.2764C22.4393 3.69231 22.5841 3.56561 22.5841 3.38462V0.307694C22.5841 0.144799 22.4393 0 22.2764 0H18.8375C18.6746 0 18.5298 0.126699 18.5298 0.307694V3.38462C18.5298 3.54751 18.6746 3.69231 18.8375 3.69231ZM23.6339 12.5068H27.0728C27.2357 12.5068 27.3805 12.3801 27.3805 12.1991V9.12217C27.3805 8.95927 27.2538 8.81448 27.0728 8.81448H23.6339C23.471 8.81448 23.3262 8.94117 23.3262 9.12217V12.1991C23.3443 12.3801 23.471 12.5068 23.6339 12.5068Z" fill="#788596"/>
</svg>
