<svg width="132" height="28" viewBox="0 0 132 28" fill="none" xmlns="http://www.w3.org/2000/svg">
<path d="M46.6335 16.1271L45.8521 18.3411H45.7869C45.6567 17.8419 45.4179 17.0822 45.0273 16.1705L40.8381 5.64341H36.7358V22.4217H39.449V12.0682C39.449 11.4171 39.449 10.6791 39.4273 9.76744C39.4055 9.31163 39.3621 8.96434 39.3404 8.70388H39.4055C39.5358 9.35504 39.6877 9.83256 39.7962 10.1364L44.8319 22.3783H46.742L51.7342 10.0279C51.8428 9.74574 51.9513 9.1814 52.0598 8.70388H52.1249C52.0598 9.94109 52.0164 11.0481 51.9947 11.7209V22.3566H54.8815V5.6H50.9311L46.6335 16.1271ZM57.6164 10.3318H60.4381V22.3566H57.6164V10.3318ZM59.049 5.25272C58.5714 5.25272 58.1807 5.42636 57.8552 5.73023C57.5296 6.03411 57.3559 6.42481 57.3559 6.90233C57.3559 7.35814 57.5296 7.74884 57.8552 8.05272C58.1807 8.35659 58.5714 8.50853 59.049 8.50853C59.5265 8.50853 59.9389 8.33489 60.2428 8.05272C60.5683 7.74884 60.742 7.35814 60.742 6.90233C60.742 6.44651 60.5683 6.05582 60.2428 5.73023C59.9606 5.42636 59.5482 5.25272 59.049 5.25272ZM70.4443 10.2233C69.9234 10.1147 69.3807 10.0496 68.8598 10.0496C67.5792 10.0496 66.4071 10.3318 65.4303 10.8961C64.4536 11.4605 63.6722 12.2419 63.173 13.2186C62.6521 14.2171 62.3916 15.3674 62.3916 16.6915C62.3916 17.8419 62.6521 18.862 63.1513 19.7954C63.6505 20.707 64.3451 21.445 65.2784 21.9442C66.1683 22.4434 67.2102 22.7039 68.3823 22.7039C69.728 22.7039 70.8784 22.4217 71.79 21.9008L71.8117 21.8791V19.2744L71.7032 19.3612C71.2908 19.6651 70.8133 19.9256 70.3358 20.0775C69.8365 20.2512 69.3807 20.338 68.99 20.338C67.8614 20.338 66.9714 20.0124 66.342 19.2961C65.6908 18.6016 65.3652 17.6465 65.3652 16.4527C65.3652 15.2155 65.6908 14.2388 66.3637 13.5225C67.0366 12.8062 67.9265 12.4372 69.0117 12.4372C69.9234 12.4372 70.8567 12.7411 71.7032 13.3488L71.8117 13.4357V10.6791L71.79 10.6574C71.421 10.5054 71.0086 10.3318 70.4443 10.2233ZM79.7559 10.1364C79.0614 10.1364 78.4102 10.3535 77.8459 10.8093C77.3683 11.2 77.0428 11.7643 76.7606 12.4372H76.7389V10.3318H73.9172V22.3566H76.7389V16.214C76.7389 15.1721 76.9559 14.3039 77.4334 13.6744C77.911 13.0233 78.5187 12.6977 79.2567 12.6977C79.5172 12.6977 79.7776 12.7628 80.1032 12.8062C80.4071 12.893 80.6241 12.9798 80.7761 13.0884L80.8846 13.1752V10.3535L80.8195 10.3318C80.6241 10.2016 80.2334 10.1364 79.7559 10.1364ZM87.4397 10.0713C85.4645 10.0713 83.88 10.6574 82.773 11.8078C81.6443 12.9581 81.1017 14.5426 81.1017 16.5395C81.1017 18.4062 81.666 19.9256 82.7513 21.0326C83.8366 22.1178 85.3125 22.6822 87.1575 22.6822C89.0893 22.6822 90.6303 22.0961 91.7373 20.924C92.866 19.7519 93.4086 18.1891 93.4086 16.2574C93.4086 14.3473 92.8877 12.8279 91.8241 11.7209C90.804 10.614 89.3063 10.0713 87.4397 10.0713ZM89.697 19.3178C89.1761 19.9907 88.3513 20.3163 87.3311 20.3163C86.311 20.3163 85.4862 19.9907 84.9001 19.2744C84.3141 18.6016 84.0319 17.6248 84.0319 16.3876C84.0319 15.107 84.3358 14.1302 84.9001 13.4357C85.4862 12.7411 86.2893 12.3938 87.3094 12.3938C88.3079 12.3938 89.0893 12.7194 89.6536 13.3923C90.2179 14.0651 90.5218 15.0419 90.5218 16.3225C90.4784 17.6248 90.2397 18.645 89.697 19.3178ZM99.7032 15.324C98.8133 14.955 98.2489 14.6729 97.9885 14.4341C97.7714 14.2171 97.6629 13.9132 97.6629 13.5225C97.6629 13.1969 97.7931 12.8713 98.1187 12.6543C98.4443 12.4372 98.8133 12.3287 99.3559 12.3287C99.8335 12.3287 100.333 12.4155 100.81 12.5457C101.288 12.676 101.722 12.8713 102.069 13.1318L102.178 13.2186V10.5705L102.113 10.5488C101.787 10.4186 101.353 10.2884 100.832 10.1798C100.311 10.093 99.8334 10.0496 99.4427 10.0496C98.097 10.0496 96.99 10.3752 96.1218 11.0915C95.2536 11.7643 94.8412 12.676 94.8412 13.7395C94.8412 14.3039 94.928 14.8031 95.1234 15.2155C95.3187 15.6279 95.6009 16.0186 95.9916 16.3442C96.3823 16.6481 96.9466 16.9954 97.728 17.3209C98.3792 17.6031 98.8784 17.8202 99.1823 17.9938C99.4862 18.1674 99.6815 18.3628 99.8334 18.5147C99.942 18.6884 100.007 18.9054 100.007 19.1876C100.007 19.9907 99.3993 20.3814 98.1621 20.3814C97.6846 20.3814 97.1854 20.2946 96.5993 20.0992C96.0133 19.9039 95.4707 19.6217 95.0148 19.2961L94.9063 19.2093V21.9659L94.9714 21.9876C95.3838 22.1829 95.8831 22.3132 96.4908 22.4651C97.0986 22.5736 97.6412 22.6605 98.1187 22.6605C99.573 22.6605 100.767 22.3349 101.613 21.6186C102.482 20.924 102.937 20.0341 102.937 18.8837C102.937 18.0806 102.72 17.3643 102.243 16.8217C101.613 16.3008 100.832 15.7581 99.7032 15.324ZM110.382 10.0713C108.407 10.0713 106.823 10.6574 105.716 11.8078C104.609 12.9581 104.044 14.5426 104.044 16.5395C104.044 18.4062 104.609 19.9256 105.694 21.0326C106.779 22.1178 108.255 22.6822 110.1 22.6822C112.032 22.6822 113.573 22.0961 114.68 20.924C115.809 19.7519 116.351 18.1891 116.351 16.2574C116.351 14.3473 115.83 12.8279 114.767 11.7209C113.747 10.614 112.249 10.0713 110.382 10.0713ZM112.618 19.3178C112.097 19.9907 111.272 20.3163 110.252 20.3163C109.21 20.3163 108.407 19.9907 107.821 19.2744C107.235 18.6016 106.953 17.6248 106.953 16.3876C106.953 15.107 107.257 14.1302 107.821 13.4357C108.407 12.7411 109.21 12.3938 110.23 12.3938C111.207 12.3938 112.01 12.7194 112.575 13.3923C113.139 14.0651 113.443 15.0419 113.443 16.3225C113.443 17.6248 113.161 18.645 112.618 19.3178ZM131.437 12.6543V10.3318H128.593V6.7721L128.506 6.7938L125.815 7.5969L125.75 7.61861V10.3318H121.495V8.81241C121.495 8.11783 121.669 7.5752 121.973 7.22791C122.277 6.88062 122.733 6.70698 123.297 6.70698C123.688 6.70698 124.1 6.7938 124.556 6.98915L124.664 7.05427V4.60155L124.599 4.57985C124.209 4.44961 123.688 4.36279 123.015 4.36279C122.168 4.36279 121.43 4.55814 120.757 4.88372C120.085 5.25272 119.585 5.75194 119.216 6.42481C118.847 7.07597 118.652 7.81396 118.652 8.66047V10.3318H116.677V12.6326H118.652V22.3566H121.495V12.6543H125.75V18.8403C125.75 21.3798 126.944 22.6605 129.331 22.6605C129.722 22.6605 130.134 22.5954 130.525 22.5302C130.937 22.4434 131.241 22.3349 131.415 22.2481L131.437 22.2264V19.9039L131.328 19.9907C131.154 20.0992 131.002 20.186 130.742 20.2512C130.525 20.3163 130.33 20.338 130.178 20.338C129.613 20.338 129.223 20.2078 128.94 19.8822C128.68 19.5783 128.55 19.0791 128.55 18.3411V12.6543H131.437Z" fill="#788596"/>
<path d="M0.357666 0H13.6631V13.3054H0.357666V0Z" fill="#788596"/>
<path d="M15.0521 0H28.3576V13.3054H15.0521V0Z" fill="#788596"/>
<path d="M0.357666 14.6946H13.6631V28H0.357666V14.6946Z" fill="#788596"/>
<path d="M15.0521 14.6946H28.3576V28H15.0521V14.6946Z" fill="#788596"/>
</svg>
