<svg version="1.1" id="Layer_1" xmlns="http://www.w3.org/2000/svg" xmlns:xlink="http://www.w3.org/1999/xlink" x="0px" y="0px"
	 width="100%" viewBox="0 0 1069 647" enable-background="new 0 0 1069 647" xml:space="preserve">
<path fill="#FEFEFE" opacity="1.000000" stroke="none" 
	d="
M804.000000,648.000000 
	C536.000061,648.000000 268.500153,648.000000 1.000180,648.000000 
	C1.000120,432.333466 1.000120,216.666962 1.000060,1.000324 
	C357.333099,1.000216 713.666199,1.000216 1069.999512,1.000108 
	C1069.999634,216.666367 1069.999634,432.332733 1069.999756,647.999512 
	C981.500000,648.000000 893.000000,648.000000 804.000000,648.000000 
M444.015991,420.656219 
	C444.863098,422.309509 445.710205,423.962830 446.572083,425.872986 
	C446.572083,425.872986 446.770447,426.036804 446.850525,426.788513 
	C448.815247,430.272095 450.779999,433.755707 452.930908,437.004883 
	C452.930908,437.004883 452.736145,437.239624 452.785553,437.870911 
	C453.416595,438.671814 454.047607,439.472687 455.016968,440.090607 
	C455.016968,440.090607 454.673401,440.258698 454.768036,440.952362 
	C456.771698,443.379486 458.775391,445.806610 460.997559,448.000000 
	C460.997559,448.000000 460.774078,448.229279 460.975128,448.846466 
	C461.428345,449.585785 461.881592,450.325134 462.077515,451.709442 
	C461.417725,452.311493 460.757904,452.913513 459.312164,453.255981 
	C458.506531,453.355164 457.700867,453.454315 456.191772,453.397797 
	C455.498901,453.553619 454.806061,453.709473 453.400146,453.659576 
	C449.772583,455.004395 446.145020,456.349213 442.201904,457.727295 
	C442.201904,457.727295 441.975281,457.949371 441.271576,458.008575 
	C438.786865,459.953583 436.302124,461.898590 433.992767,463.973541 
	C433.992767,463.973541 433.835022,463.822662 433.197693,464.018372 
	C431.183563,466.704132 429.169434,469.389893 426.898102,472.332153 
	C426.898102,472.332153 426.835663,472.689972 426.227844,473.027557 
	C424.670959,478.054352 423.114075,483.081116 421.318909,488.703552 
	C421.318024,489.127960 421.317108,489.552368 421.044189,490.757629 
	C421.182465,491.834106 421.320770,492.910553 421.354126,494.714478 
	C421.460876,495.435577 421.567627,496.156647 421.367798,497.650482 
	C422.467560,506.566010 425.635773,514.430298 432.968597,520.637939 
	C432.968597,520.637939 433.284821,520.908569 433.344086,521.478882 
	C433.813690,521.756714 434.283264,522.034485 434.965027,522.006104 
	C434.965027,522.006104 434.735657,522.299988 435.027313,522.885620 
	C440.944641,525.719543 446.597168,529.808350 452.834778,531.124817 
	C465.636108,533.826416 477.861115,531.778809 488.005737,521.755249 
	C488.005737,521.755249 488.215210,521.441589 488.768707,521.257141 
	C488.950958,520.929504 489.133240,520.601868 489.193604,520.312988 
	C489.193604,520.312988 489.327576,520.294617 489.936340,520.049683 
	C501.729889,508.569855 503.087708,494.457306 499.745880,479.534485 
	C509.473938,481.488190 518.786499,483.358429 528.781494,485.521790 
	C529.519897,485.562775 530.258301,485.603760 531.893433,485.941010 
	C539.993896,485.600769 548.189636,485.920685 556.172974,484.768799 
	C568.807068,482.945862 581.102478,479.604919 591.815613,471.866760 
	C591.815613,471.866760 591.871216,471.718048 592.568665,471.693939 
	C595.779724,469.527222 598.990723,467.360535 602.003418,465.011963 
	C602.003418,465.011963 602.190125,465.206055 602.849731,465.045166 
	C605.602234,462.378632 608.354797,459.712097 611.533936,456.905243 
	C611.819458,456.772003 612.023254,456.560181 612.700256,456.131317 
	C612.871948,455.808594 613.043579,455.485840 613.015991,455.096130 
	C613.015991,455.096130 613.198120,455.201172 613.817200,454.968903 
	C615.638245,452.925201 617.459290,450.881500 619.306702,448.808228 
	C608.459900,445.057922 598.124268,441.629028 587.902466,437.888977 
	C582.793152,436.019531 577.891846,433.581726 572.460388,431.088623 
	C572.123352,430.974884 571.786316,430.861145 571.120300,430.244019 
	C570.744324,430.134796 570.368286,430.025604 569.815796,429.701904 
	C569.815796,429.701904 569.541809,429.655945 569.150269,429.086792 
	C567.450134,428.068237 565.685608,427.142456 564.060608,426.015594 
	C555.784607,420.276764 547.544678,414.485901 539.047058,408.996307 
	C539.047058,408.996307 539.275757,408.700378 539.064758,408.077301 
	C536.349609,405.757812 533.634460,403.438293 530.971802,401.028534 
	C530.971802,401.028534 530.878723,401.075867 530.739685,400.438293 
	C529.242065,399.142670 527.744507,397.847046 526.089722,396.198730 
	C525.934204,395.977936 525.725464,395.834869 525.252686,395.094116 
	C521.564453,390.997284 517.876282,386.900452 514.006042,382.973206 
	C514.006042,382.973206 514.204041,382.822754 514.098572,382.131012 
	C507.238861,370.892090 500.305084,359.697327 493.562256,348.388702 
	C491.394592,344.753296 489.730530,340.817596 487.786224,336.343048 
	C487.593903,335.938477 487.401611,335.533936 487.381989,334.420746 
	C480.901306,316.630249 477.138336,298.304108 476.451569,279.359497 
	C476.350830,276.580292 475.989441,273.810486 475.882935,270.301361 
	C475.840546,269.558228 475.798157,268.815063 476.041626,267.326111 
	C476.272461,264.820404 476.503296,262.314667 476.734131,259.808960 
	C473.313904,262.174438 470.589172,264.639648 468.681427,267.626617 
	C459.736053,281.632355 450.886353,295.783844 446.064758,311.829254 
	C442.982147,322.087921 441.023132,332.684174 438.359131,343.837219 
	C438.311523,344.570099 438.263947,345.302979 437.736877,346.683228 
	C437.558136,359.461426 437.379395,372.239655 437.110016,385.649567 
	C437.158295,386.070801 437.206543,386.492035 437.064697,387.702057 
	C437.480499,389.449249 437.896301,391.196472 438.232819,393.602509 
	C438.328247,394.031616 438.423706,394.460754 438.248138,395.732605 
	C439.317047,401.189880 440.385956,406.647156 441.546997,412.618896 
	C441.665924,412.746216 441.784882,412.873505 441.921448,413.757202 
	C442.650635,415.786713 443.379822,417.816254 444.052856,419.905182 
	C444.052856,419.905182 444.123108,419.946899 444.015991,420.656219 
M476.858398,180.297394 
	C462.730408,183.178833 448.315094,185.091385 434.543762,189.175507 
	C415.310211,194.879547 397.193817,203.476212 382.649323,217.863708 
	C376.444824,224.001205 371.067383,230.974747 364.957581,237.976974 
	C360.613037,226.444427 353.121094,217.517410 341.321472,212.883698 
	C329.334290,208.176300 317.465759,208.691254 306.236603,215.011139 
	C288.555298,224.962311 281.167847,244.870377 287.881592,263.333588 
	C291.268250,272.647064 297.292114,279.899445 305.949860,284.459839 
	C321.174713,292.479431 336.257538,290.887054 351.074921,281.681274 
	C350.111450,331.595978 372.446533,365.605743 417.940857,385.771484 
	C414.014404,339.883820 424.892395,298.918976 451.227173,262.476593 
	C477.475800,226.153503 513.034912,203.120087 557.320923,191.857697 
	C530.885254,181.673203 504.681915,178.563507 476.858398,180.297394 
M524.394775,366.111633 
	C534.774292,378.947296 546.256042,390.644379 559.750000,400.251801 
	C583.694275,417.299835 610.167542,428.009460 639.178711,432.965546 
	C656.302612,435.890930 672.871643,434.934021 689.264954,429.416840 
	C692.001892,428.495728 694.792114,427.733032 698.625916,426.574280 
	C695.439636,439.718811 695.866516,451.453186 703.153198,462.227234 
	C710.437317,472.997589 720.483704,479.215179 733.357910,480.036102 
	C755.810242,481.467773 772.408630,468.323761 776.756104,446.057220 
	C778.419250,437.538757 776.385864,429.432190 772.310974,422.017731 
	C764.526062,407.852753 751.703735,401.491577 734.908569,400.278748 
	C749.800415,382.212982 758.483337,362.668549 759.789978,340.204956 
	C761.088501,317.881744 755.906128,297.359528 743.011597,278.043579 
	C719.028320,317.002991 686.142090,343.533661 643.732788,357.696136 
	C601.367310,371.844025 559.071655,370.394623 517.172485,354.332306 
	C517.026611,354.739624 516.880737,355.146942 516.734924,355.554260 
	C519.143066,358.882965 521.551208,362.211639 524.394775,366.111633 
M441.407776,113.908211 
	C426.015045,131.275330 418.069672,151.657700 416.244232,174.561966 
	C509.505127,143.247269 585.741211,165.754730 645.212952,244.370575 
	C646.356628,225.640289 643.923462,207.279556 638.893799,189.295822 
	C634.813416,174.706390 628.931213,160.847565 620.969666,147.826065 
	C602.720276,117.978363 580.436523,93.047432 545.193176,83.185356 
	C544.002380,82.852119 542.972961,81.941750 541.868347,81.300392 
	C542.693542,80.212387 543.346069,78.915733 544.370300,78.068268 
	C556.223145,68.261261 561.595337,48.824184 556.451721,35.469696 
	C547.827820,13.079388 525.119934,3.387199 504.177795,10.988441 
	C489.195465,16.426508 480.703888,27.505219 478.295898,42.869305 
	C476.194641,56.276115 481.204346,67.664604 490.768005,77.092331 
	C492.095001,78.400459 493.648804,79.478516 496.341400,81.680038 
	C474.122925,87.070045 456.462036,97.699104 441.407776,113.908211 
M645.921509,337.476349 
	C658.390625,330.211426 671.432495,323.759827 683.188660,315.482300 
	C699.032776,304.326385 712.148438,290.099426 722.919556,273.889130 
	C737.796631,251.499512 748.767761,227.862473 746.021362,199.935913 
	C745.941467,199.123947 746.729126,198.226669 747.394897,196.736572 
	C756.684509,203.984055 767.057495,206.177216 778.198486,204.819931 
	C789.543701,203.437805 798.903931,197.790115 804.994324,188.528076 
	C818.181274,168.474014 812.788147,148.159302 797.401428,135.410965 
	C789.995117,129.274612 781.367859,125.998795 771.585693,126.417229 
	C752.503357,127.233475 740.067993,137.516678 732.859070,154.829834 
	C703.800476,115.415138 666.619202,99.363937 618.521240,109.345238 
	C677.831055,187.476593 678.644531,265.611206 622.248169,346.054169 
	C630.431152,343.090057 637.817322,340.414551 645.921509,337.476349 
M466.365173,608.472412 
	C466.297882,603.475891 466.503235,598.457520 466.104614,593.487549 
	C465.352936,584.115356 457.357666,579.565918 448.822113,583.596619 
	C446.317505,584.779297 444.133667,586.641235 442.978912,587.409485 
	C438.617828,585.484131 435.072205,582.789734 431.404602,582.611938 
	C427.609802,582.428040 423.696594,584.686523 419.890076,585.859741 
	C416.322357,579.072388 410.007690,584.651978 404.039520,582.324951 
	C404.904785,584.973083 405.143921,587.449280 405.854065,587.592651 
	C410.173615,588.464783 409.652954,591.756531 409.712708,594.626892 
	C409.844513,600.955872 410.022217,607.307129 409.609314,613.611816 
	C409.460693,615.881104 407.685425,618.049316 406.626373,620.251038 
	C406.172028,621.195557 405.019440,622.460266 405.297333,622.958496 
	C405.807831,623.873596 407.117096,624.834473 408.139069,624.886963 
	C412.293762,625.100220 416.471008,625.090393 420.627808,624.898926 
	C421.716217,624.848877 422.760864,623.848206 423.825592,623.284119 
	C423.265991,622.243652 422.816711,621.120605 422.116699,620.185242 
	C421.370728,619.188232 419.647491,618.386414 419.625580,617.468872 
	C419.455200,610.335815 419.018188,603.126648 419.862213,596.084595 
	C420.328339,592.195679 423.941437,589.471497 428.385773,590.036682 
	C432.803986,590.598572 432.891571,594.419922 432.991486,597.742981 
	C433.161682,603.403198 433.310303,609.087646 432.940857,614.727295 
	C432.816467,616.626465 431.064026,618.407227 430.107178,620.268555 
	C429.620728,621.214905 428.772217,622.330994 428.966492,623.165710 
	C429.140869,623.915100 430.499969,624.863647 431.368073,624.896851 
	C435.860291,625.068420 440.366394,625.068237 444.858398,624.892273 
	C445.738556,624.857727 447.097961,623.916748 447.292572,623.153259 
	C447.494202,622.362305 446.686920,621.175903 446.071716,620.347656 
	C445.166992,619.129456 443.201263,618.113525 443.148376,616.945312 
	C442.847168,610.297180 442.564209,603.594543 443.117340,596.980896 
	C443.462921,592.848877 446.691772,590.179138 450.976349,589.953613 
	C455.553192,589.712891 456.368439,593.385620 456.528687,596.770081 
	C456.827820,603.087280 456.898956,609.434326 456.601501,615.747131 
	C456.527771,617.311768 454.638153,618.766968 453.662109,620.321960 
	C453.106659,621.206848 452.190002,622.326538 452.388367,623.094482 
	C452.590576,623.877136 453.941528,624.855530 454.821686,624.888428 
	C459.480438,625.062622 464.161011,625.124268 468.801392,624.782227 
	C469.454285,624.734070 469.927826,622.252197 470.484375,620.896851 
	C464.439575,618.764771 466.893402,613.573120 466.365173,608.472412 
M650.533508,566.065491 
	C647.372925,566.072693 644.203125,565.948914 641.057556,566.169617 
	C640.151794,566.233093 638.799194,567.151123 638.591492,567.928528 
	C638.380066,568.719910 639.137512,570.484375 639.799438,570.673706 
	C643.010864,571.592346 643.100525,573.932617 643.093811,576.550110 
	C643.061279,589.192688 643.067749,601.835449 643.087830,614.478149 
	C643.091919,617.054688 643.120789,619.467834 639.867126,620.392883 
	C639.203552,620.581543 638.438721,622.303772 638.634888,623.091370 
	C638.828308,623.868225 640.163269,624.856812 641.028564,624.887939 
	C645.846436,625.061584 650.676575,625.055603 655.495422,624.897522 
	C656.377319,624.868591 657.946350,623.844360 657.938232,623.298218 
	C657.922546,622.238342 657.103577,621.130615 656.449951,620.154846 
	C655.602783,618.890076 653.853699,617.777893 653.780518,616.524902 
	C653.475037,611.289917 653.651794,606.026794 653.651794,600.880432 
	C658.920532,599.674622 662.075867,601.449524 664.245239,605.800171 
	C666.984985,611.294861 669.961792,616.679443 673.056030,621.983276 
	C673.790527,623.242310 675.325439,624.705383 676.619995,624.839417 
	C680.333252,625.223816 684.112061,624.974792 689.202026,624.974792 
	C687.945190,622.666199 687.471069,621.263062 686.564636,620.244934 
	C684.858582,618.328735 682.489868,616.901306 681.131104,614.796570 
	C677.481812,609.143250 674.219910,603.239868 670.790955,597.413330 
	C671.255798,597.116028 671.964417,596.691345 672.643616,596.223816 
	C679.312012,591.633850 681.777405,585.541260 680.117493,577.671692 
	C678.562012,570.297485 673.152283,567.433105 666.445557,566.655823 
	C661.513855,566.084412 656.498291,566.236023 650.533508,566.065491 
M339.946045,593.462646 
	C349.312927,581.396729 344.319122,568.232544 329.281616,566.503357 
	C321.382874,565.595032 313.313629,566.097473 305.322632,566.150574 
	C304.287109,566.157410 303.259064,567.291260 302.227539,567.903076 
	C302.832916,568.916626 303.424164,569.938965 304.046967,570.941711 
	C305.005127,572.484436 306.801270,573.999939 306.827515,575.550903 
	C307.052887,588.872742 307.053101,602.201477 306.836914,615.523560 
	C306.811737,617.074585 305.065887,618.598938 304.114349,620.133484 
	C303.498932,621.125977 302.877197,622.114563 302.258270,623.104919 
	C303.280365,623.729675 304.281708,624.849915 305.328186,624.893799 
	C309.984619,625.089233 314.656921,625.062500 319.316193,624.902893 
	C320.249664,624.870911 321.888733,623.933289 321.907501,623.369995 
	C321.942108,622.333374 321.120056,621.193542 320.464172,620.226135 
	C319.519379,618.832764 317.604736,617.612244 317.504883,616.217651 
	C317.141724,611.146790 317.361542,606.034180 317.361542,600.960388 
	C322.542023,599.668152 325.840027,601.181335 327.979858,605.613708 
	C329.930481,609.654114 332.128357,613.576660 334.266388,617.524597 
	C338.460052,625.268188 341.011139,626.515991 349.768524,624.908142 
	C350.663055,624.743896 351.896942,623.793030 352.059540,623.015930 
	C352.223083,622.234253 351.409698,621.064148 350.737274,620.325623 
	C348.577789,617.953979 345.891083,615.968506 344.128906,613.348999 
	C340.734467,608.303040 337.833923,602.924866 334.666290,597.579346 
	C336.041626,596.532166 337.726410,595.249329 339.946045,593.462646 
M1038.208618,582.561951 
	C1024.610962,585.448120 1020.922302,596.569946 1029.542847,609.344421 
	C1025.114624,613.406677 1023.001404,618.027100 1027.268311,623.443909 
	C1021.402527,630.210388 1021.134277,635.895813 1026.338989,639.907043 
	C1033.536987,645.454468 1051.882690,644.505127 1058.328491,638.221558 
	C1062.168091,634.478516 1062.987793,629.831604 1061.692749,624.878479 
	C1060.436035,620.072205 1056.608765,617.985107 1052.037109,617.485657 
	C1048.250610,617.072021 1044.368530,617.506226 1040.590698,617.050659 
	C1038.130371,616.753967 1033.656494,615.308533 1033.714600,614.767151 
	C1034.226807,609.992615 1038.085205,612.190491 1040.704712,612.208557 
	C1053.894043,612.299255 1060.312622,604.474304 1057.475830,591.562195 
	C1057.377075,591.112549 1057.376709,590.641357 1057.307861,589.954102 
	C1058.194214,589.838623 1059.001099,589.593628 1059.783203,589.656616 
	C1062.578857,589.881531 1063.693604,588.707581 1063.572876,585.879272 
	C1063.445312,582.892090 1061.541016,583.055847 1059.448120,583.009399 
	C1052.645996,582.858215 1045.846069,582.604919 1038.208618,582.561951 
M26.811436,625.699829 
	C41.250751,625.679932 49.796661,619.071960 52.044060,604.740051 
	C53.104851,597.975159 52.922436,590.770142 51.894161,583.977905 
	C50.170807,572.594421 42.875618,566.554565 31.545040,565.556458 
	C20.754805,564.605957 11.990833,569.972656 7.992610,580.216003 
	C4.489085,589.191895 4.375515,598.456665 6.513256,607.728882 
	C8.890999,618.042114 15.086278,624.420227 26.811436,625.699829 
M191.287308,618.519470 
	C191.127869,611.543274 190.736542,604.561768 190.896347,597.592896 
	C190.991547,593.441772 195.477127,589.677734 199.300919,589.907959 
	C204.051132,590.193848 204.706589,593.803589 204.842438,597.396362 
	C205.068817,603.384216 205.166641,609.393433 204.886047,615.373291 
	C204.809525,617.004150 203.166199,618.551086 202.281372,620.158203 
	C201.712265,621.191956 200.574127,622.507141 200.856796,623.256348 
	C201.172089,624.091980 202.788559,624.858704 203.872360,624.907471 
	C208.028076,625.094604 212.200806,625.072327 216.358826,624.911804 
	C217.302856,624.875366 218.928162,624.037903 218.982269,623.452820 
	C219.078293,622.414246 218.264282,621.260620 217.736557,620.202209 
	C216.812103,618.348022 215.099503,616.575684 214.977783,614.687744 
	C214.517731,607.552246 214.844391,600.364197 214.338516,593.233948 
	C213.880722,586.781128 210.732727,582.853333 205.045151,582.768982 
	C200.369217,582.699585 195.664612,584.561829 190.893433,585.584961 
	C189.939713,581.954041 187.624374,581.435242 175.143021,583.717896 
	C176.389557,585.418274 177.394699,586.674805 178.271194,588.015442 
	C179.253952,589.518677 180.854431,591.071045 180.912430,592.648804 
	C181.187485,600.133423 181.174240,607.639038 180.910797,615.124817 
	C180.851974,616.795715 179.401093,618.432617 178.533951,620.054565 
	C177.976898,621.096497 177.315338,622.082581 176.700638,623.093689 
	C177.856018,623.723938 178.977066,624.807251 180.173340,624.897888 
	C183.485733,625.148926 186.845612,625.180725 190.154266,624.906921 
	C191.886642,624.763611 193.550888,623.796448 195.245911,623.201355 
	C194.099365,621.854370 192.952820,620.507385 191.287308,618.519470 
M975.243042,592.876648 
	C975.278137,600.031189 975.545410,607.196899 975.202026,614.333252 
	C975.103455,616.381409 973.211365,618.329895 972.200073,620.353271 
	C971.728882,621.296082 970.899963,622.464050 971.143982,623.245605 
	C971.383179,624.011780 972.761963,624.870911 973.669250,624.903992 
	C978.157288,625.067688 982.658997,625.069519 987.145447,624.881226 
	C988.012695,624.844849 989.346924,623.826904 989.530640,623.042725 
	C989.711243,622.271790 988.816223,621.134949 988.188538,620.315369 
	C987.254578,619.095947 985.295410,618.051331 985.243469,616.867737 
	C984.951599,610.224426 984.850891,603.548645 985.198730,596.910889 
	C985.390381,593.254089 990.300598,589.594971 993.743774,589.917786 
	C998.442139,590.358276 998.989319,593.902649 999.082458,597.551880 
	C999.230957,603.371338 999.443115,609.206116 999.145630,615.009705 
	C999.054382,616.790161 997.353149,618.473755 996.448669,620.232239 
	C995.908264,621.282898 995.071289,622.430969 995.166687,623.461304 
	C995.220703,624.045776 996.873474,624.879944 997.831177,624.914856 
	C1002.153259,625.072327 1006.490723,625.109497 1010.807373,624.890442 
	C1011.792664,624.840393 1013.071838,623.773743 1013.530640,622.838867 
	C1013.786560,622.317566 1012.627869,621.106262 1012.113525,620.201843 
	C1011.078552,618.381836 1009.265503,616.604248 1009.157349,614.729309 
	C1008.774414,608.092285 1009.179504,601.413208 1008.905457,594.765747 
	C1008.514526,585.281128 1001.739502,580.251770 993.036011,582.964783 
	C990.302490,583.816772 987.840515,585.539917 985.215576,586.884155 
	C984.398132,581.977478 980.407166,581.151733 969.257080,583.992249 
	C970.700195,585.630981 971.857605,586.785217 972.819580,588.084106 
	C973.718445,589.297791 974.409973,590.665100 975.243042,592.876648 
M69.942558,624.972229 
	C73.603043,624.972168 77.270538,625.097900 80.919701,624.894531 
	C81.997765,624.834473 83.024063,623.845581 84.074074,623.282288 
	C83.514595,622.245728 83.001915,621.180359 82.384399,620.179626 
	C81.514221,618.769409 79.848679,617.443787 79.776093,616.018127 
	C79.463669,609.882141 79.389191,603.713013 79.665024,597.575562 
	C79.849213,593.477417 84.314888,589.732971 88.091690,589.884277 
	C92.938705,590.078491 93.520088,593.832031 93.709068,597.308044 
	C94.033768,603.280151 94.095314,609.292297 93.757912,615.258789 
	C93.659966,616.990906 91.784203,618.600830 90.805389,620.313660 
	C90.290222,621.215149 89.448311,622.366089 89.674164,623.133545 
	C89.904663,623.916870 91.243698,624.849548 92.129944,624.884094 
	C96.615410,625.059326 101.115303,625.058411 105.600426,624.878113 
	C106.444252,624.844177 107.594246,623.866882 107.950180,623.042969 
	C108.220436,622.417358 107.632439,620.713684 107.121223,620.569153 
	C102.825562,619.355042 103.552856,615.840637 103.464348,612.820374 
	C103.274437,606.339417 103.629517,599.823425 103.099892,593.376099 
	C102.338623,584.108887 94.280113,579.710632 85.734947,583.571716 
	C83.817177,584.438293 82.056778,585.653137 80.574478,586.505920 
	C76.460327,579.337646 70.244553,584.564697 64.930443,583.461914 
	C65.324432,585.367432 66.283340,586.647888 67.128777,587.999451 
	C68.090668,589.536987 69.673775,591.111694 69.732361,592.716003 
	C70.005394,600.193176 69.993042,607.691467 69.725349,615.169434 
	C69.665627,616.837708 68.186150,618.466248 67.318436,620.090637 
	C66.763855,621.128906 66.132294,622.126099 65.535271,623.141602 
	C66.710823,623.751160 67.886383,624.360718 69.942558,624.972229 
M852.703735,590.393799 
	C852.781799,596.881714 853.006775,603.372314 852.886353,609.856506 
	C852.805847,614.192200 848.510132,618.222961 844.436218,618.085327 
	C839.285950,617.911377 839.027832,614.021057 838.803345,610.265503 
	C838.604919,606.946228 838.502319,603.618103 838.471436,600.292786 
	C838.419250,594.671570 838.457153,589.049500 838.457153,583.042175 
	C834.163452,583.042175 830.517700,582.927246 826.888611,583.122803 
	C825.980225,583.171753 824.626221,584.068298 824.389648,584.851074 
	C824.163086,585.600891 824.945129,587.377808 825.590088,587.548828 
	C829.189331,588.503235 828.881714,591.282410 828.906799,593.919800 
	C828.968567,600.411560 828.796387,606.910522 829.041748,613.394409 
	C829.391785,622.642273 835.935730,627.595154 844.523682,625.074646 
	C847.313171,624.255920 849.841248,622.546265 852.468506,621.254089 
	C853.867065,626.057312 856.066406,626.559509 868.228760,624.267761 
	C867.255676,622.664185 866.470764,621.375122 865.690308,620.083313 
	C864.693176,618.432800 862.913757,616.814087 862.840454,615.122314 
	C862.523560,607.811096 862.706909,600.478271 862.707153,593.153259 
	C862.707581,581.935425 862.707214,581.935669 851.334290,583.033325 
	C851.169067,583.049255 850.959229,582.976807 850.841858,583.054199 
	C849.962280,583.634460 848.590515,584.103455 848.379272,584.880798 
	C848.173767,585.636780 849.006470,586.853821 849.670837,587.618713 
	C850.384705,588.440735 851.433228,588.972229 852.703735,590.393799 
M516.563599,589.024536 
	C510.719177,581.843323 502.974182,581.084106 494.832092,583.260315 
	C487.297150,585.274292 483.354156,591.050415 482.276978,598.483032 
	C481.688995,602.540161 481.698730,606.832458 482.315216,610.885498 
	C483.695831,619.961670 489.600586,624.913513 499.060455,625.684998 
	C508.212341,626.431335 516.197693,621.869080 518.778931,613.730652 
	C521.364441,605.578918 521.475525,597.375549 516.563599,589.024536 
M723.515320,584.884583 
	C709.705811,577.908813 695.805664,585.624084 694.741577,600.967712 
	C694.513123,604.261963 694.574585,607.653992 695.091125,610.907593 
	C696.694153,621.004944 704.565491,626.774841 714.736023,625.643555 
	C721.047058,624.941528 725.928284,621.834839 729.814941,616.872681 
	C727.915100,613.097778 725.946411,612.196228 722.341797,615.363831 
	C718.592529,618.658569 713.782104,619.368469 709.342041,616.710388 
	C704.994019,614.107483 704.639404,609.639404 704.867493,604.752808 
	C712.461670,604.752808 719.597595,604.914185 726.713074,604.605469 
	C728.007141,604.549255 730.294861,602.565063 730.288391,601.481812 
	C730.252319,595.420532 729.291199,589.505066 723.515320,584.884583 
M392.580048,604.668030 
	C397.361877,598.186096 391.671997,585.279480 383.011719,582.963745 
	C371.645203,579.924377 361.171173,586.227783 359.103668,597.827087 
	C358.359619,602.001343 358.397614,606.474304 358.965729,610.691528 
	C360.368927,621.107971 368.457520,626.936401 378.865021,625.611816 
	C385.148804,624.812012 390.005951,621.716980 393.809357,616.686646 
	C391.865692,614.129089 390.395111,611.485352 386.809784,614.908875 
	C383.154816,618.398865 378.456970,619.267517 373.860443,617.060425 
	C368.957153,614.706055 368.603119,609.968567 368.616180,604.741821 
	C376.492065,604.741821 384.112549,604.741821 392.580048,604.668030 
M238.999146,623.669312 
	C249.778275,627.880188 259.679962,625.134644 265.165649,616.382568 
	C263.431824,613.967773 261.914001,611.709900 258.565155,614.789368 
	C254.703156,618.340637 249.951447,619.387024 245.179825,616.918640 
	C240.555328,614.526428 240.183273,609.892395 240.119644,604.758423 
	C247.408005,604.758423 254.536697,604.877869 261.654999,604.659363 
	C263.110718,604.614624 265.520630,603.572937 265.805176,602.530640 
	C268.088806,594.165833 261.328125,584.067993 252.772934,582.573608 
	C243.620300,580.974915 235.531006,585.210388 231.979889,593.460754 
	C227.329483,604.265137 230.144196,617.399719 238.999146,623.669312 
M600.471313,592.183472 
	C598.447144,586.425415 594.285889,583.326538 588.345886,582.448425 
	C578.851257,581.044739 570.822266,585.873840 567.587402,594.928711 
	C563.827698,605.452637 566.864746,618.603760 574.136597,623.027466 
	C575.399048,623.795410 576.785522,624.462036 578.203552,624.854492 
	C585.320496,626.824036 594.952209,625.941772 601.345154,616.620544 
	C599.505798,613.165894 597.603577,612.100525 594.117859,615.251160 
	C590.398682,618.612793 585.615417,619.315369 581.117126,616.817017 
	C576.605408,614.311096 576.396545,609.693298 576.278931,604.756531 
	C581.592163,604.756531 586.564026,604.756531 591.535950,604.756531 
	C603.435852,604.756470 603.435852,604.756470 600.471313,592.183472 
M546.094421,614.771179 
	C546.094421,606.547974 546.094421,598.324829 546.094421,589.623108 
	C549.041748,589.623108 552.170044,589.546509 555.292664,589.647095 
	C557.863647,589.729858 559.328186,588.545288 558.605408,586.121460 
	C558.235291,584.879944 556.572083,583.337036 555.331665,583.176147 
	C552.125244,582.760254 548.829041,583.036682 545.634460,583.036682 
	C544.721069,572.136047 544.721069,572.136047 537.193237,573.275330 
	C536.051880,578.005066 536.975342,584.052246 530.031860,585.383911 
	C530.422302,586.755066 530.410828,588.603577 531.314880,589.364807 
	C532.242859,590.146240 534.065674,589.865051 535.880920,590.098206 
	C535.880920,598.312927 535.562012,606.280579 535.962585,614.211792 
	C536.450500,623.871948 544.572632,628.482605 553.319824,624.269653 
	C555.772705,623.088257 557.853760,621.134949 560.067627,619.562500 
	C558.480042,616.103027 556.860718,615.013977 553.710083,617.131897 
	C551.065918,618.909424 548.317505,618.544250 546.094421,614.771179 
M910.785156,596.494507 
	C910.848206,602.659180 910.622498,608.843872 911.046265,614.983643 
	C911.596924,622.960876 917.621399,627.315063 925.334961,625.145081 
	C928.832825,624.161072 931.945618,621.808472 935.216858,620.085388 
	C933.593445,616.143372 932.106323,615.180847 928.813416,617.084167 
	C924.625916,619.504578 921.231262,617.909912 920.957336,613.234863 
	C920.505554,605.524841 920.834656,597.768982 920.834656,589.627747 
	C924.107178,589.627747 927.249390,589.550842 930.386047,589.651428 
	C933.033203,589.736389 934.353943,588.387268 933.624817,586.037415 
	C933.244019,584.810303 931.534790,583.332153 930.272583,583.171814 
	C927.067078,582.764587 923.775208,583.036499 920.487732,583.036499 
	C920.324280,579.312073 920.188538,576.217468 920.051208,573.087769 
	C917.102966,573.087769 914.695312,573.087769 912.287659,573.087769 
	C912.679932,573.432617 913.072205,573.777405 913.464478,574.122253 
	C911.252502,577.686279 909.067688,581.267639 906.810547,584.802856 
	C906.205688,585.750122 905.379761,586.556274 904.655334,587.427246 
	C905.575562,588.160583 906.406006,589.085449 907.442261,589.571289 
	C908.406860,590.023499 909.590637,590.008301 910.785095,590.217651 
	C910.785095,592.186951 910.785095,593.843201 910.785156,596.494507 
M774.638855,588.639526 
	C775.307739,585.112488 773.792236,583.337280 770.264587,583.073669 
	C767.447021,582.863098 764.637207,582.342163 761.822693,582.332825 
	C750.871277,582.296509 743.183899,589.099304 741.983765,600.021667 
	C741.623230,603.302734 741.677734,606.697021 742.060547,609.979065 
	C743.049011,618.454590 747.616272,623.707214 754.885254,625.225952 
	C763.052856,626.932373 770.517639,623.776306 774.901367,616.763123 
	C771.739258,612.987366 771.739258,612.987366 768.007080,615.649963 
	C762.947144,619.259766 757.013428,618.867126 754.199463,614.736328 
	C750.772278,609.705261 751.186340,596.160339 754.918030,591.230469 
	C758.474548,586.532227 763.764709,587.095154 766.235535,592.438721 
	C766.630859,593.293640 766.995911,594.162476 767.299805,594.853882 
	C774.498962,595.170532 774.498962,595.170532 774.638855,588.639526 
M798.653809,602.647095 
	C798.674683,600.984009 798.147644,599.035156 798.833862,597.718994 
	C800.142029,595.209900 801.841553,592.668884 804.030396,590.991882 
	C804.729919,590.455994 807.413330,592.833374 809.325684,593.462341 
	C811.111267,594.049744 813.140198,594.469971 814.935242,594.179810 
	C815.676270,594.059937 816.444946,591.929932 816.571594,590.651794 
	C816.825806,588.086304 816.647217,585.477844 816.647217,582.926331 
	C809.697571,581.336548 804.144043,582.725708 799.280823,587.019165 
	C797.542725,581.986023 794.318420,581.358337 782.853455,583.915039 
	C784.224243,585.575134 785.389832,586.720947 786.228516,588.069946 
	C787.266113,589.739136 788.714478,591.546631 788.794495,593.347351 
	C789.096985,600.156494 789.175598,607.002380 788.771606,613.800842 
	C788.638489,616.041626 786.760071,618.165894 785.743408,620.372803 
	C785.297974,621.339661 784.677124,622.414978 784.776550,623.374634 
	C784.838623,623.973145 786.085876,624.886169 786.821960,624.906372 
	C791.643494,625.038940 796.474548,625.062378 801.292297,624.867981 
	C802.110046,624.834961 803.202698,623.709534 803.553223,622.840698 
	C803.779175,622.280579 803.001648,620.658142 802.470154,620.554260 
	C798.282898,619.735901 798.648132,616.599976 798.652222,613.592224 
	C798.656738,610.264160 798.653564,606.936096 798.653809,602.647095 
M118.448509,563.867065 
	C117.856712,565.127930 117.264908,566.388794 116.673111,567.649658 
	C117.239807,567.553467 117.806511,567.457275 118.373207,567.361084 
	C119.654579,569.285706 122.002121,571.185974 122.046646,573.138794 
	C122.368835,587.269775 122.311333,601.412598 122.108826,615.547913 
	C122.086456,617.109497 120.361717,618.629883 119.485077,620.202087 
	C118.913086,621.227905 118.043770,622.331604 118.091934,623.363831 
	C118.118736,623.938110 119.737991,624.864685 120.665894,624.897949 
	C125.154236,625.058838 129.655304,625.066284 134.142365,624.888367 
	C135.022217,624.853577 136.372513,623.891541 136.572388,623.116516 
	C136.769913,622.350525 135.974182,620.654785 135.287964,620.447632 
	C131.780609,619.388916 132.020279,616.632507 132.014481,613.982788 
	C131.986755,601.332581 132.001572,588.682312 132.001556,576.032043 
	C132.001541,563.163330 132.001694,563.163330 118.448509,563.867065 
M163.381973,619.886658 
	C162.696945,617.796814 161.478958,615.721619 161.420853,613.614502 
	C161.191696,605.303040 161.113831,596.973938 161.410889,588.666809 
	C161.574554,584.090149 160.651779,581.738037 155.423447,582.696411 
	C152.728973,583.190308 149.869339,582.783203 145.579941,582.783203 
	C146.945816,585.238037 147.639618,586.590149 148.431320,587.882263 
	C149.512390,589.646545 151.543976,591.319458 151.637512,593.111389 
	C152.009872,600.245117 151.995407,607.419983 151.649811,614.556580 
	C151.555817,616.497437 149.775070,618.345215 148.817352,620.260193 
	C148.286102,621.322327 147.459183,622.466248 147.541489,623.512207 
	C147.585007,624.065247 149.276566,624.866760 150.248352,624.902832 
	C154.401489,625.057251 158.569107,625.084473 162.718781,624.889160 
	C163.798828,624.838379 164.833160,623.816345 165.888519,623.240417 
	C165.323425,622.212036 164.758331,621.183594 163.381973,619.886658 
M955.813782,614.158569 
	C955.813232,605.003723 955.753052,595.848328 955.846863,586.694458 
	C955.876587,583.794678 955.033875,582.307007 951.834595,582.601379 
	C948.380981,582.919067 944.900513,582.944275 939.751587,583.171082 
	C941.405151,585.371948 942.500183,586.657410 943.396606,588.068970 
	C944.364807,589.593445 945.830933,591.209473 945.893127,592.831055 
	C946.166870,599.978027 946.238281,607.152954 945.871338,614.291443 
	C945.765625,616.347900 943.915161,618.299194 942.935486,620.332886 
	C942.473389,621.292175 941.714661,622.461731 941.947876,623.296509 
	C942.153015,624.030701 943.536194,624.870300 944.428223,624.904358 
	C948.749573,625.069702 953.084229,625.070312 957.405762,624.906860 
	C958.331726,624.871887 959.939880,623.954712 959.972412,623.373352 
	C960.030090,622.341492 959.157654,621.236938 958.610291,620.196533 
	C957.704346,618.474365 956.747375,616.778992 955.813782,614.158569 
M877.908752,587.532837 
	C881.086243,588.021912 882.241272,589.813599 882.156067,593.055542 
	C881.964233,600.357361 882.266479,607.674622 881.969360,614.969421 
	C881.896851,616.749878 880.263428,618.455750 879.394714,620.219177 
	C878.871948,621.280151 878.040466,622.418457 878.125366,623.458618 
	C878.172241,624.032166 879.811646,624.873535 880.757996,624.907776 
	C885.070007,625.064026 889.397095,625.101074 893.703735,624.882568 
	C894.684326,624.832825 895.955872,623.767883 896.412598,622.836365 
	C896.660339,622.330994 895.450073,621.135315 894.938416,620.227966 
	C893.919006,618.419983 892.166931,616.638550 892.062927,614.771118 
	C891.703186,608.314575 891.920349,601.825745 891.919922,595.349243 
	C891.919067,582.236511 891.919434,582.232788 878.835876,583.022217 
	C878.365051,583.050659 877.907654,583.301331 877.373230,583.470947 
	C877.373230,584.641968 877.373230,585.770935 877.908752,587.532837 
M161.501343,575.712769 
	C161.925552,565.966553 161.124222,565.280884 151.544373,567.737671 
	C151.544373,569.881653 151.221512,572.222839 151.677246,574.401123 
	C151.913757,575.531677 153.457138,577.090088 154.533752,577.195740 
	C156.697876,577.408203 158.946762,576.757385 161.501343,575.712769 
M955.794739,575.819641 
	C956.210999,566.049194 955.085815,565.094238 946.325195,567.698364 
	C946.325195,570.775696 946.325195,573.823730 946.325195,577.567078 
	C949.653992,577.201355 952.527710,576.885681 955.794739,575.819641 
M881.999512,572.356079 
	C881.205322,576.904968 883.713135,577.389526 887.479065,577.438599 
	C891.304016,577.488525 892.591675,576.160645 892.156250,572.503967 
	C891.845154,569.892090 893.179199,566.456482 888.328979,566.833435 
	C885.156189,567.080078 881.120544,565.797424 881.999512,572.356079 
z"/>
<path fill="#87217C" opacity="1.000000" stroke="none" 
	d="
M477.326294,180.264801 
	C504.681915,178.563507 530.885254,181.673203 557.320923,191.857697 
	C513.034912,203.120087 477.475800,226.153503 451.227173,262.476593 
	C424.892395,298.918976 414.014404,339.883820 417.940857,385.771484 
	C372.446533,365.605743 350.111450,331.595978 351.074921,281.681274 
	C336.257538,290.887054 321.174713,292.479431 305.949860,284.459839 
	C297.292114,279.899445 291.268250,272.647064 287.881592,263.333588 
	C281.167847,244.870377 288.555298,224.962311 306.236603,215.011139 
	C317.465759,208.691254 329.334290,208.176300 341.321472,212.883698 
	C353.121094,217.517410 360.613037,226.444427 364.957581,237.976974 
	C371.067383,230.974747 376.444824,224.001205 382.649323,217.863708 
	C397.193817,203.476212 415.310211,194.879547 434.543762,189.175507 
	C448.315094,185.091385 462.730408,183.178833 477.326294,180.264801 
z"/>
<path fill="#F14285" opacity="1.000000" stroke="none" 
	d="
M524.177063,365.825989 
	C521.551208,362.211639 519.143066,358.882965 516.734924,355.554260 
	C516.880737,355.146942 517.026611,354.739624 517.172485,354.332306 
	C559.071655,370.394623 601.367310,371.844025 643.732788,357.696136 
	C686.142090,343.533661 719.028320,317.002991 743.011597,278.043579 
	C755.906128,297.359528 761.088501,317.881744 759.789978,340.204956 
	C758.483337,362.668549 749.800415,382.212982 734.908569,400.278748 
	C751.703735,401.491577 764.526062,407.852753 772.310974,422.017731 
	C776.385864,429.432190 778.419250,437.538757 776.756104,446.057220 
	C772.408630,468.323761 755.810242,481.467773 733.357910,480.036102 
	C720.483704,479.215179 710.437317,472.997589 703.153198,462.227234 
	C695.866516,451.453186 695.439636,439.718811 698.625916,426.574280 
	C694.792114,427.733032 692.001892,428.495728 689.264954,429.416840 
	C672.871643,434.934021 656.302612,435.890930 639.178711,432.965546 
	C610.167542,428.009460 583.694275,417.299835 559.750000,400.251801 
	C546.256042,390.644379 534.774292,378.947296 524.177063,365.825989 
z"/>
<path fill="#F1594D" opacity="1.000000" stroke="none" 
	d="
M441.645569,113.643867 
	C456.462036,97.699104 474.122925,87.070045 496.341400,81.680038 
	C493.648804,79.478516 492.095001,78.400459 490.768005,77.092331 
	C481.204346,67.664604 476.194641,56.276115 478.295898,42.869305 
	C480.703888,27.505219 489.195465,16.426508 504.177795,10.988441 
	C525.119934,3.387199 547.827820,13.079388 556.451721,35.469696 
	C561.595337,48.824184 556.223145,68.261261 544.370300,78.068268 
	C543.346069,78.915733 542.693542,80.212387 541.868347,81.300400 
	C542.972961,81.941750 544.002380,82.852119 545.193176,83.185356 
	C580.436523,93.047432 602.720276,117.978363 620.969666,147.826065 
	C628.931213,160.847565 634.813416,174.706390 638.893799,189.295822 
	C643.923462,207.279556 646.356628,225.640289 645.212952,244.370575 
	C585.741211,165.754730 509.505127,143.247269 416.244232,174.561966 
	C418.069672,151.657700 426.015045,131.275330 441.645569,113.643867 
z"/>
<path fill="#FDA111" opacity="1.000000" stroke="none" 
	d="
M645.562500,337.607727 
	C637.817322,340.414551 630.431152,343.090057 622.248169,346.054169 
	C678.644531,265.611206 677.831055,187.476593 618.521240,109.345238 
	C666.619202,99.363937 703.800476,115.415138 732.859070,154.829834 
	C740.067993,137.516678 752.503357,127.233475 771.585693,126.417229 
	C781.367859,125.998795 789.995117,129.274612 797.401428,135.410965 
	C812.788147,148.159302 818.181274,168.474014 804.994324,188.528076 
	C798.903931,197.790115 789.543701,203.437805 778.198486,204.819931 
	C767.057495,206.177216 756.684509,203.984055 747.394897,196.736572 
	C746.729126,198.226669 745.941467,199.123947 746.021362,199.935913 
	C748.767761,227.862473 737.796631,251.499512 722.919556,273.889130 
	C712.148438,290.099426 699.032776,304.326385 683.188660,315.482300 
	C671.432495,323.759827 658.390625,330.211426 645.562500,337.607727 
z"/>
<path fill="#FC6904" opacity="1.000000" stroke="none" 
	d="
M612.145447,456.269775 
	C612.023254,456.560181 611.819458,456.772003 610.964355,456.978943 
	C607.659851,459.770416 604.924988,462.488251 602.190125,465.206055 
	C602.190125,465.206055 602.003418,465.011963 601.710876,465.041687 
	C598.235962,467.286987 595.053589,469.502502 591.871216,471.718018 
	C591.871216,471.718048 591.815613,471.866760 591.369873,471.860535 
	C589.963867,472.085388 588.907776,472.132324 588.057922,472.575134 
	C575.061890,479.346039 561.467163,483.836578 546.644470,484.207214 
	C541.419800,484.337860 536.212158,485.145966 530.996704,485.644745 
	C530.258301,485.603760 529.519897,485.562775 528.265381,485.088654 
	C519.374573,482.250916 511.000793,479.843018 502.624695,477.443359 
	C499.143860,476.446106 497.276550,478.428192 498.247559,482.145020 
	C498.746338,484.054291 499.810822,485.913544 499.877197,487.821259 
	C500.186066,496.696136 499.103668,505.223785 493.389282,512.622498 
	C491.646271,514.879333 490.660248,517.720825 489.327576,520.294617 
	C489.327576,520.294617 489.193604,520.312988 488.942932,520.333984 
	C488.533234,520.717224 488.374237,521.079407 488.215210,521.441589 
	C488.215210,521.441589 488.005737,521.755249 487.477966,521.828247 
	C485.212555,522.815735 483.472565,523.725769 481.737701,524.645447 
	C468.911346,531.444641 455.997375,533.173950 442.769135,525.620117 
	C440.273224,524.194824 437.422577,523.390747 434.735657,522.299988 
	C434.735657,522.299988 434.965027,522.006104 434.841003,521.867249 
	C434.239624,521.455139 433.762207,521.181824 433.284821,520.908569 
	C433.284821,520.908569 432.968597,520.637939 432.938538,520.073364 
	C431.209473,516.712646 429.279480,514.027893 427.864380,511.094788 
	C425.620087,506.443054 423.720062,501.625244 421.674377,496.877747 
	C421.567627,496.156647 421.460876,495.435577 421.597382,494.103760 
	C421.665833,492.320984 421.491028,491.148865 421.316223,489.976776 
	C421.317108,489.552368 421.318024,489.127960 421.746765,488.241791 
	C423.728333,482.750000 425.282013,477.720001 426.835663,472.689972 
	C426.835663,472.689972 426.898102,472.332153 427.379913,472.182007 
	C429.852844,469.295471 431.843933,466.559082 433.835022,463.822693 
	C433.835022,463.822662 433.992767,463.973541 434.267578,463.921143 
	C437.020020,461.895569 439.497620,459.922455 441.975281,457.949341 
	C441.975281,457.949371 442.201904,457.727295 442.764709,457.787292 
	C446.922729,456.519928 450.517944,455.192596 454.113190,453.865295 
	C454.806061,453.709473 455.498901,453.553619 456.643311,453.741669 
	C458.095947,453.895569 459.097046,453.705597 460.098083,453.515564 
	C460.757904,452.913513 461.417725,452.311493 462.495911,451.314423 
	C462.200867,450.022705 461.487488,449.125977 460.774078,448.229279 
	C460.774078,448.229279 460.997559,448.000000 460.932251,447.736908 
	C458.802429,445.068787 456.737915,442.663757 454.673401,440.258698 
	C454.673401,440.258698 455.016968,440.090607 454.948669,439.806946 
	C454.165588,438.762085 453.450867,438.000854 452.736145,437.239624 
	C452.736145,437.239624 452.930908,437.004883 452.896423,436.749268 
	C450.831421,433.008026 448.800934,429.522430 446.770447,426.036804 
	C446.770447,426.036804 446.572083,425.872986 446.676270,425.376007 
	C445.894684,423.234985 445.008911,421.590942 444.123108,419.946899 
	C444.123108,419.946899 444.052856,419.905182 444.108734,419.489014 
	C443.411011,417.048828 442.657410,415.024811 441.903809,413.000763 
	C441.784882,412.873505 441.665924,412.746216 441.848755,412.178833 
	C441.463867,406.883972 440.833984,402.019806 440.035797,397.183441 
	C439.899536,396.357941 439.042969,395.651367 438.519165,394.889862 
	C438.423706,394.460754 438.328247,394.031616 438.500183,392.999695 
	C438.263275,390.569000 437.759033,388.741119 437.254791,386.913269 
	C437.206543,386.492035 437.158295,386.070801 437.404572,385.003662 
	C438.120911,372.670441 438.565308,360.983826 438.926819,349.294647 
	C438.960175,348.216736 438.465729,347.122498 438.216370,346.035858 
	C438.263947,345.302979 438.311523,344.570099 438.768188,343.317139 
	C441.123566,334.968719 442.710968,327.029449 445.088348,319.334259 
	C450.642120,301.357330 459.214752,284.816254 469.727539,269.229187 
	C471.611725,266.435547 473.170349,265.502594 475.755798,268.071930 
	C475.798157,268.815063 475.840546,269.558228 475.510101,270.869202 
	C475.314056,279.031342 474.687897,286.751923 475.857788,294.190033 
	C477.568878,305.068726 480.416290,315.783081 483.114929,326.482880 
	C483.879974,329.516266 485.812317,332.255310 487.209290,335.129364 
	C487.401611,335.533936 487.593903,335.938477 487.587158,336.911133 
	C487.902588,338.823761 488.329041,340.210266 488.946198,341.505951 
	C492.441254,348.843567 495.753510,356.281677 499.584290,363.441498 
	C502.321869,368.558167 505.628632,373.395599 508.984100,378.143738 
	C510.298737,380.003998 512.439514,381.280426 514.204041,382.822754 
	C514.204041,382.822754 514.006042,382.973206 514.042847,383.269409 
	C516.548340,388.870422 519.680115,393.556702 525.463440,395.769562 
	C525.725464,395.834869 525.934204,395.977936 526.129639,396.750854 
	C527.739258,398.560608 529.309021,399.818237 530.878723,401.075867 
	C530.878723,401.075867 530.971802,401.028534 530.950684,401.433350 
	C533.711609,404.125580 536.493713,406.412964 539.275757,408.700378 
	C539.275757,408.700378 539.047058,408.996307 539.121826,409.207214 
	C539.543152,409.944550 539.776367,410.627075 540.253601,410.973480 
	C545.794434,414.995911 551.523376,418.776154 556.889099,423.017090 
	C560.743347,426.063385 564.243286,429.485596 569.541809,429.655945 
	C569.541809,429.655945 569.815796,429.701904 570.060425,430.074341 
	C570.686462,430.546997 571.067871,430.647186 571.449280,430.747375 
	C571.786316,430.861145 572.123352,430.974884 572.757385,431.571228 
	C581.781799,437.818726 591.348877,441.554077 601.431580,444.224182 
	C606.072083,445.453156 610.514099,447.431946 614.933411,449.029999 
	C614.160889,451.777313 613.679504,453.489258 613.198120,455.201172 
	C613.198120,455.201172 613.015991,455.096130 612.832458,455.189880 
	C612.481140,455.612366 612.313293,455.941071 612.145447,456.269775 
z"/>
<path fill="#0A0A0A" opacity="1.000000" stroke="none" 
	d="
M466.365173,608.963745 
	C466.893402,613.573120 464.439575,618.764771 470.484375,620.896851 
	C469.927826,622.252197 469.454285,624.734070 468.801392,624.782227 
	C464.161011,625.124268 459.480438,625.062622 454.821686,624.888428 
	C453.941528,624.855530 452.590576,623.877136 452.388367,623.094482 
	C452.190002,622.326538 453.106659,621.206848 453.662109,620.321960 
	C454.638153,618.766968 456.527771,617.311768 456.601501,615.747131 
	C456.898956,609.434326 456.827820,603.087280 456.528687,596.770081 
	C456.368439,593.385620 455.553192,589.712891 450.976349,589.953613 
	C446.691772,590.179138 443.462921,592.848877 443.117340,596.980896 
	C442.564209,603.594543 442.847168,610.297180 443.148376,616.945312 
	C443.201263,618.113525 445.166992,619.129456 446.071716,620.347656 
	C446.686920,621.175903 447.494202,622.362305 447.292572,623.153259 
	C447.097961,623.916748 445.738556,624.857727 444.858398,624.892273 
	C440.366394,625.068237 435.860291,625.068420 431.368073,624.896851 
	C430.499969,624.863647 429.140869,623.915100 428.966492,623.165710 
	C428.772217,622.330994 429.620728,621.214905 430.107178,620.268555 
	C431.064026,618.407227 432.816467,616.626465 432.940857,614.727295 
	C433.310303,609.087646 433.161682,603.403198 432.991486,597.742981 
	C432.891571,594.419922 432.803986,590.598572 428.385773,590.036682 
	C423.941437,589.471497 420.328339,592.195679 419.862213,596.084595 
	C419.018188,603.126648 419.455200,610.335815 419.625580,617.468872 
	C419.647491,618.386414 421.370728,619.188232 422.116699,620.185242 
	C422.816711,621.120605 423.265991,622.243652 423.825592,623.284119 
	C422.760864,623.848206 421.716217,624.848877 420.627808,624.898926 
	C416.471008,625.090393 412.293762,625.100220 408.139069,624.886963 
	C407.117096,624.834473 405.807831,623.873596 405.297333,622.958496 
	C405.019440,622.460266 406.172028,621.195557 406.626373,620.251038 
	C407.685425,618.049316 409.460693,615.881104 409.609314,613.611816 
	C410.022217,607.307129 409.844513,600.955872 409.712708,594.626892 
	C409.652954,591.756531 410.173615,588.464783 405.854065,587.592651 
	C405.143921,587.449280 404.904785,584.973083 404.039520,582.324951 
	C410.007690,584.651978 416.322357,579.072388 419.890076,585.859741 
	C423.696594,584.686523 427.609802,582.428040 431.404602,582.611938 
	C435.072205,582.789734 438.617828,585.484131 442.978912,587.409485 
	C444.133667,586.641235 446.317505,584.779297 448.822113,583.596619 
	C457.357666,579.565918 465.352936,584.115356 466.104614,593.487549 
	C466.503235,598.457520 466.297882,603.475891 466.365173,608.963745 
z"/>
<path fill="#0A0A0A" opacity="1.000000" stroke="none" 
	d="
M651.026855,566.065430 
	C656.498291,566.236023 661.513855,566.084412 666.445557,566.655823 
	C673.152283,567.433105 678.562012,570.297485 680.117493,577.671692 
	C681.777405,585.541260 679.312012,591.633850 672.643616,596.223816 
	C671.964417,596.691345 671.255798,597.116028 670.790955,597.413330 
	C674.219910,603.239868 677.481812,609.143250 681.131104,614.796570 
	C682.489868,616.901306 684.858582,618.328735 686.564636,620.244934 
	C687.471069,621.263062 687.945190,622.666199 689.202026,624.974792 
	C684.112061,624.974792 680.333252,625.223816 676.619995,624.839417 
	C675.325439,624.705383 673.790527,623.242310 673.056030,621.983276 
	C669.961792,616.679443 666.984985,611.294861 664.245239,605.800171 
	C662.075867,601.449524 658.920532,599.674622 653.651794,600.880432 
	C653.651794,606.026794 653.475037,611.289917 653.780518,616.524902 
	C653.853699,617.777893 655.602783,618.890076 656.449951,620.154846 
	C657.103577,621.130615 657.922546,622.238342 657.938232,623.298218 
	C657.946350,623.844360 656.377319,624.868591 655.495422,624.897522 
	C650.676575,625.055603 645.846436,625.061584 641.028564,624.887939 
	C640.163269,624.856812 638.828308,623.868225 638.634888,623.091370 
	C638.438721,622.303772 639.203552,620.581543 639.867126,620.392883 
	C643.120789,619.467834 643.091919,617.054688 643.087830,614.478149 
	C643.067749,601.835449 643.061279,589.192688 643.093811,576.550110 
	C643.100525,573.932617 643.010864,571.592346 639.799438,570.673706 
	C639.137512,570.484375 638.380066,568.719910 638.591492,567.928528 
	C638.799194,567.151123 640.151794,566.233093 641.057556,566.169617 
	C644.203125,565.948914 647.372925,566.072693 651.026855,566.065430 
M656.654236,572.181641 
	C655.583679,573.021606 653.621521,573.824768 653.585083,574.707397 
	C653.319946,581.129944 653.442505,587.568420 653.442505,593.917175 
	C662.355591,595.228394 667.040039,593.333435 668.999634,587.910034 
	C672.304932,578.761963 667.844482,572.651978 656.654236,572.181641 
z"/>
<path fill="#0A0A0A" opacity="1.000000" stroke="none" 
	d="
M339.678619,593.714600 
	C337.726410,595.249329 336.041626,596.532166 334.666290,597.579346 
	C337.833923,602.924866 340.734467,608.303040 344.128906,613.348999 
	C345.891083,615.968506 348.577789,617.953979 350.737274,620.325623 
	C351.409698,621.064148 352.223083,622.234253 352.059540,623.015930 
	C351.896942,623.793030 350.663055,624.743896 349.768524,624.908142 
	C341.011139,626.515991 338.460052,625.268188 334.266388,617.524597 
	C332.128357,613.576660 329.930481,609.654114 327.979858,605.613708 
	C325.840027,601.181335 322.542023,599.668152 317.361542,600.960388 
	C317.361542,606.034180 317.141724,611.146790 317.504883,616.217651 
	C317.604736,617.612244 319.519379,618.832764 320.464172,620.226135 
	C321.120056,621.193542 321.942108,622.333374 321.907501,623.369995 
	C321.888733,623.933289 320.249664,624.870911 319.316193,624.902893 
	C314.656921,625.062500 309.984619,625.089233 305.328186,624.893799 
	C304.281708,624.849915 303.280365,623.729675 302.258301,623.104858 
	C302.877197,622.114563 303.498932,621.125977 304.114349,620.133484 
	C305.065887,618.598938 306.811737,617.074585 306.836914,615.523560 
	C307.053101,602.201477 307.052887,588.872742 306.827515,575.550903 
	C306.801270,573.999939 305.005127,572.484436 304.046967,570.941711 
	C303.424164,569.938965 302.832916,568.916626 302.227539,567.903076 
	C303.259064,567.291260 304.287109,566.157410 305.322632,566.150574 
	C313.313629,566.097473 321.382874,565.595032 329.281616,566.503357 
	C344.319122,568.232544 349.312927,581.396729 339.678619,593.714600 
M330.106506,574.250183 
	C326.065002,573.337463 322.023499,572.424683 317.565491,571.417908 
	C317.565491,579.859375 317.565491,587.005432 317.565491,594.362427 
	C323.179688,594.347412 328.941315,595.362976 331.969757,589.578308 
	C334.572662,584.606506 334.619995,579.398193 330.106506,574.250183 
z"/>
<path fill="#0A0A0A" opacity="1.000000" stroke="none" 
	d="
M1038.626953,582.476440 
	C1045.846069,582.604919 1052.645996,582.858215 1059.448120,583.009399 
	C1061.541016,583.055847 1063.445312,582.892090 1063.572876,585.879272 
	C1063.693604,588.707581 1062.578857,589.881531 1059.783203,589.656616 
	C1059.001099,589.593628 1058.194214,589.838623 1057.307861,589.954102 
	C1057.376709,590.641357 1057.377075,591.112549 1057.475830,591.562195 
	C1060.312622,604.474304 1053.894043,612.299255 1040.704712,612.208557 
	C1038.085205,612.190491 1034.226807,609.992615 1033.714600,614.767151 
	C1033.656494,615.308533 1038.130371,616.753967 1040.590698,617.050659 
	C1044.368530,617.506226 1048.250610,617.072021 1052.037109,617.485657 
	C1056.608765,617.985107 1060.436035,620.072205 1061.692749,624.878479 
	C1062.987793,629.831604 1062.168091,634.478516 1058.328491,638.221558 
	C1051.882690,644.505127 1033.536987,645.454468 1026.338989,639.907043 
	C1021.134277,635.895813 1021.402527,630.210388 1027.268311,623.443909 
	C1023.001404,618.027100 1025.114624,613.406677 1029.542847,609.344421 
	C1020.922302,596.569946 1024.610962,585.448120 1038.626953,582.476440 
M1037.847412,625.876343 
	C1034.657227,625.439087 1032.397827,626.983948 1032.141235,629.941223 
	C1031.971436,631.897217 1032.784668,634.658936 1034.186035,635.886475 
	C1037.487793,638.778748 1047.003174,638.612549 1050.193237,635.587036 
	C1051.715088,634.143616 1052.736816,631.282104 1052.513306,629.222595 
	C1052.378662,627.980530 1049.527832,626.451965 1047.698975,626.108398 
	C1044.807983,625.565186 1041.750244,625.908752 1037.847412,625.876343 
M1043.182983,606.134216 
	C1048.511475,603.396606 1050.407227,593.416260 1045.767090,589.847351 
	C1043.971069,588.465820 1039.760254,588.217102 1037.855835,589.397888 
	C1033.799194,591.913147 1034.561768,596.636414 1035.331665,600.716553 
	C1036.023682,604.383789 1038.345825,606.525818 1043.182983,606.134216 
z"/>
<path fill="#0A0A0A" opacity="1.000000" stroke="none" 
	d="
M26.387444,625.643005 
	C15.086278,624.420227 8.890999,618.042114 6.513256,607.728882 
	C4.375515,598.456665 4.489085,589.191895 7.992610,580.216003 
	C11.990833,569.972656 20.754805,564.605957 31.545040,565.556458 
	C42.875618,566.554565 50.170807,572.594421 51.894161,583.977905 
	C52.922436,590.770142 53.104851,597.975159 52.044060,604.740051 
	C49.796661,619.071960 41.250751,625.679932 26.387444,625.643005 
M16.303057,599.040588 
	C17.135460,603.098022 17.645933,607.256653 18.881098,611.187561 
	C20.452446,616.188232 23.867540,619.403259 29.486490,619.450195 
	C34.357304,619.490906 38.100700,616.719666 39.950642,611.007935 
	C43.282066,600.722168 43.085976,590.308105 39.676598,580.094727 
	C37.703358,574.183594 33.744755,571.510376 28.637890,571.686829 
	C23.680544,571.858093 19.611506,574.868835 18.243080,580.885193 
	C16.966106,586.499329 16.863752,592.380615 16.303057,599.040588 
z"/>
<path fill="#0D0D0D" opacity="1.000000" stroke="none" 
	d="
M191.546799,618.839966 
	C192.952820,620.507385 194.099365,621.854370 195.245911,623.201355 
	C193.550888,623.796448 191.886642,624.763611 190.154266,624.906921 
	C186.845612,625.180725 183.485733,625.148926 180.173340,624.897888 
	C178.977066,624.807251 177.856018,623.723938 176.700623,623.093689 
	C177.315338,622.082581 177.976898,621.096497 178.533951,620.054565 
	C179.401093,618.432617 180.851974,616.795715 180.910797,615.124817 
	C181.174240,607.639038 181.187485,600.133423 180.912430,592.648804 
	C180.854431,591.071045 179.253952,589.518677 178.271194,588.015442 
	C177.394699,586.674805 176.389557,585.418274 175.143021,583.717896 
	C187.624374,581.435242 189.939713,581.954041 190.893433,585.584961 
	C195.664612,584.561829 200.369217,582.699585 205.045151,582.768982 
	C210.732727,582.853333 213.880722,586.781128 214.338516,593.233948 
	C214.844391,600.364197 214.517731,607.552246 214.977783,614.687744 
	C215.099503,616.575684 216.812103,618.348022 217.736557,620.202209 
	C218.264282,621.260620 219.078293,622.414246 218.982269,623.452820 
	C218.928162,624.037903 217.302856,624.875366 216.358826,624.911804 
	C212.200806,625.072327 208.028076,625.094604 203.872360,624.907471 
	C202.788559,624.858704 201.172089,624.091980 200.856796,623.256348 
	C200.574127,622.507141 201.712265,621.191956 202.281372,620.158203 
	C203.166199,618.551086 204.809525,617.004150 204.886047,615.373291 
	C205.166641,609.393433 205.068817,603.384216 204.842438,597.396362 
	C204.706589,593.803589 204.051132,590.193848 199.300919,589.907959 
	C195.477127,589.677734 190.991547,593.441772 190.896347,597.592896 
	C190.736542,604.561768 191.127869,611.543274 191.546799,618.839966 
z"/>
<path fill="#0D0D0D" opacity="1.000000" stroke="none" 
	d="
M975.217896,592.420715 
	C974.409973,590.665100 973.718445,589.297791 972.819580,588.084106 
	C971.857605,586.785217 970.700195,585.630981 969.257080,583.992249 
	C980.407166,581.151733 984.398132,581.977478 985.215576,586.884155 
	C987.840515,585.539917 990.302490,583.816772 993.036011,582.964783 
	C1001.739502,580.251770 1008.514526,585.281128 1008.905457,594.765747 
	C1009.179504,601.413208 1008.774414,608.092285 1009.157349,614.729309 
	C1009.265503,616.604248 1011.078552,618.381836 1012.113525,620.201843 
	C1012.627869,621.106262 1013.786560,622.317566 1013.530640,622.838867 
	C1013.071838,623.773743 1011.792664,624.840393 1010.807373,624.890442 
	C1006.490723,625.109497 1002.153259,625.072327 997.831177,624.914856 
	C996.873474,624.879944 995.220703,624.045776 995.166687,623.461304 
	C995.071289,622.430969 995.908264,621.282898 996.448669,620.232239 
	C997.353149,618.473755 999.054382,616.790161 999.145630,615.009705 
	C999.443115,609.206116 999.230957,603.371338 999.082458,597.551880 
	C998.989319,593.902649 998.442139,590.358276 993.743774,589.917786 
	C990.300598,589.594971 985.390381,593.254089 985.198730,596.910889 
	C984.850891,603.548645 984.951599,610.224426 985.243469,616.867737 
	C985.295410,618.051331 987.254578,619.095947 988.188538,620.315369 
	C988.816223,621.134949 989.711243,622.271790 989.530640,623.042725 
	C989.346924,623.826904 988.012695,624.844849 987.145447,624.881226 
	C982.658997,625.069519 978.157288,625.067688 973.669250,624.903992 
	C972.761963,624.870911 971.383179,624.011780 971.143982,623.245605 
	C970.899963,622.464050 971.728882,621.296082 972.200073,620.353271 
	C973.211365,618.329895 975.103455,616.381409 975.202026,614.333252 
	C975.545410,607.196899 975.278137,600.031189 975.217896,592.420715 
z"/>
<path fill="#080808" opacity="1.000000" stroke="none" 
	d="
M69.502251,624.971191 
	C67.886383,624.360718 66.710823,623.751160 65.535255,623.141602 
	C66.132294,622.126099 66.763855,621.128906 67.318436,620.090637 
	C68.186150,618.466248 69.665627,616.837708 69.725349,615.169434 
	C69.993042,607.691467 70.005394,600.193176 69.732361,592.716003 
	C69.673775,591.111694 68.090668,589.536987 67.128777,587.999451 
	C66.283340,586.647888 65.324432,585.367432 64.930443,583.461914 
	C70.244553,584.564697 76.460327,579.337646 80.574478,586.505920 
	C82.056778,585.653137 83.817177,584.438293 85.734947,583.571716 
	C94.280113,579.710632 102.338623,584.108887 103.099892,593.376099 
	C103.629517,599.823425 103.274437,606.339417 103.464348,612.820374 
	C103.552856,615.840637 102.825562,619.355042 107.121223,620.569153 
	C107.632439,620.713684 108.220436,622.417358 107.950180,623.042969 
	C107.594246,623.866882 106.444252,624.844177 105.600426,624.878113 
	C101.115303,625.058411 96.615410,625.059326 92.129944,624.884094 
	C91.243698,624.849548 89.904663,623.916870 89.674164,623.133545 
	C89.448311,622.366089 90.290222,621.215149 90.805389,620.313660 
	C91.784203,618.600830 93.659966,616.990906 93.757912,615.258789 
	C94.095314,609.292297 94.033768,603.280151 93.709068,597.308044 
	C93.520088,593.832031 92.938705,590.078491 88.091690,589.884277 
	C84.314888,589.732971 79.849213,593.477417 79.665024,597.575562 
	C79.389191,603.713013 79.463669,609.882141 79.776093,616.018127 
	C79.848679,617.443787 81.514221,618.769409 82.384399,620.179626 
	C83.001915,621.180359 83.514595,622.245728 84.074081,623.282288 
	C83.024063,623.845581 81.997765,624.834473 80.919701,624.894531 
	C77.270538,625.097900 73.603043,624.972168 69.502251,624.971191 
z"/>
<path fill="#0B0B0B" opacity="1.000000" stroke="none" 
	d="
M852.519775,590.012146 
	C851.433228,588.972229 850.384705,588.440735 849.670837,587.618713 
	C849.006470,586.853821 848.173767,585.636780 848.379272,584.880798 
	C848.590515,584.103455 849.962280,583.634460 850.841858,583.054199 
	C850.959229,582.976807 851.169067,583.049255 851.334290,583.033325 
	C862.707214,581.935669 862.707581,581.935425 862.707153,593.153259 
	C862.706909,600.478271 862.523560,607.811096 862.840454,615.122314 
	C862.913757,616.814087 864.693176,618.432800 865.690308,620.083313 
	C866.470764,621.375122 867.255676,622.664185 868.228760,624.267761 
	C856.066406,626.559509 853.867065,626.057312 852.468506,621.254089 
	C849.841248,622.546265 847.313171,624.255920 844.523682,625.074646 
	C835.935730,627.595154 829.391785,622.642273 829.041748,613.394409 
	C828.796387,606.910522 828.968567,600.411560 828.906799,593.919800 
	C828.881714,591.282410 829.189331,588.503235 825.590088,587.548828 
	C824.945129,587.377808 824.163086,585.600891 824.389648,584.851074 
	C824.626221,584.068298 825.980225,583.171753 826.888611,583.122803 
	C830.517700,582.927246 834.163452,583.042175 838.457153,583.042175 
	C838.457153,589.049500 838.419250,594.671570 838.471436,600.292786 
	C838.502319,603.618103 838.604919,606.946228 838.803345,610.265503 
	C839.027832,614.021057 839.285950,617.911377 844.436218,618.085327 
	C848.510132,618.222961 852.805847,614.192200 852.886353,609.856506 
	C853.006775,603.372314 852.781799,596.881714 852.519775,590.012146 
z"/>
<path fill="#0A0A0A" opacity="1.000000" stroke="none" 
	d="
M516.767029,589.332458 
	C521.475525,597.375549 521.364441,605.578918 518.778931,613.730652 
	C516.197693,621.869080 508.212341,626.431335 499.060455,625.684998 
	C489.600586,624.913513 483.695831,619.961670 482.315216,610.885498 
	C481.698730,606.832458 481.688995,602.540161 482.276978,598.483032 
	C483.354156,591.050415 487.297150,585.274292 494.832092,583.260315 
	C502.974182,581.084106 510.719177,581.843323 516.767029,589.332458 
M509.805695,609.826111 
	C509.069092,603.985168 509.260529,597.816406 507.344452,592.392090 
	C505.277557,586.540833 498.075317,586.549255 494.640045,591.699768 
	C490.915466,597.283936 491.140045,611.246094 495.040375,616.582520 
	C498.389954,621.165344 504.475983,621.038086 507.464203,616.178284 
	C508.485687,614.516968 508.954254,612.515747 509.805695,609.826111 
z"/>
<path fill="#0C0C0C" opacity="1.000000" stroke="none" 
	d="
M723.808960,585.107422 
	C729.291199,589.505066 730.252319,595.420532 730.288391,601.481812 
	C730.294861,602.565063 728.007141,604.549255 726.713074,604.605469 
	C719.597595,604.914185 712.461670,604.752808 704.867493,604.752808 
	C704.639404,609.639404 704.994019,614.107483 709.342041,616.710388 
	C713.782104,619.368469 718.592529,618.658569 722.341797,615.363831 
	C725.946411,612.196228 727.915100,613.097778 729.814941,616.872681 
	C725.928284,621.834839 721.047058,624.941528 714.736023,625.643555 
	C704.565491,626.774841 696.694153,621.004944 695.091125,610.907593 
	C694.574585,607.653992 694.513123,604.261963 694.741577,600.967712 
	C695.805664,585.624084 709.705811,577.908813 723.808960,585.107422 
M705.989258,593.739441 
	C705.623047,595.252808 705.256897,596.766174 704.845886,598.464722 
	C710.246216,598.464722 714.979858,598.464722 720.201050,598.464722 
	C719.524353,594.235779 719.623535,589.871399 715.031555,588.342773 
	C710.904602,586.968933 708.125183,589.439880 705.989258,593.739441 
z"/>
<path fill="#0D0D0D" opacity="1.000000" stroke="none" 
	d="
M392.156555,604.704956 
	C384.112549,604.741821 376.492065,604.741821 368.616180,604.741821 
	C368.603119,609.968567 368.957153,614.706055 373.860443,617.060425 
	C378.456970,619.267517 383.154816,618.398865 386.809784,614.908875 
	C390.395111,611.485352 391.865692,614.129089 393.809357,616.686646 
	C390.005951,621.716980 385.148804,624.812012 378.865021,625.611816 
	C368.457520,626.936401 360.368927,621.107971 358.965729,610.691528 
	C358.397614,606.474304 358.359619,602.001343 359.103668,597.827087 
	C361.171173,586.227783 371.645203,579.924377 383.011719,582.963745 
	C391.671997,585.279480 397.361877,598.186096 392.156555,604.704956 
M370.175568,592.966614 
	C369.741241,594.752991 369.306915,596.539368 368.855194,598.397461 
	C374.283691,598.397461 378.992767,598.397461 384.001312,598.397461 
	C383.426514,594.091553 383.372223,589.794250 378.749054,588.303894 
	C375.103943,587.128784 372.382355,589.087036 370.175568,592.966614 
z"/>
<path fill="#0D0D0D" opacity="1.000000" stroke="none" 
	d="
M238.682465,623.464417 
	C230.144196,617.399719 227.329483,604.265137 231.979889,593.460754 
	C235.531006,585.210388 243.620300,580.974915 252.772934,582.573608 
	C261.328125,584.067993 268.088806,594.165833 265.805176,602.530640 
	C265.520630,603.572937 263.110718,604.614624 261.654999,604.659363 
	C254.536697,604.877869 247.408005,604.758423 240.119644,604.758423 
	C240.183273,609.892395 240.555328,614.526428 245.179825,616.918640 
	C249.951447,619.387024 254.703156,618.340637 258.565155,614.789368 
	C261.914001,611.709900 263.431824,613.967773 265.165649,616.382568 
	C259.679962,625.134644 249.778275,627.880188 238.682465,623.464417 
M248.523407,588.002686 
	C242.810898,589.543518 241.207596,591.680298 240.883713,598.326538 
	C245.675095,598.326538 250.453201,598.326538 255.604553,598.326538 
	C254.840637,593.670349 254.963577,589.123413 248.523407,588.002686 
z"/>
<path fill="#0D0D0D" opacity="1.000000" stroke="none" 
	d="
M600.631836,592.544617 
	C603.435852,604.756470 603.435852,604.756470 591.535950,604.756531 
	C586.564026,604.756531 581.592163,604.756531 576.278931,604.756531 
	C576.396545,609.693298 576.605408,614.311096 581.117126,616.817017 
	C585.615417,619.315369 590.398682,618.612793 594.117859,615.251160 
	C597.603577,612.100525 599.505798,613.165894 601.345093,616.621094 
	C594.952209,625.941772 585.320496,626.824036 578.203552,624.854492 
	C576.785522,624.462036 575.399048,623.795410 574.136597,623.027466 
	C566.864746,618.603760 563.827698,605.452637 567.587402,594.928711 
	C570.822266,585.873840 578.851257,581.044739 588.345886,582.448425 
	C594.285889,583.326538 598.447144,586.425415 600.631836,592.544617 
M578.788513,591.474792 
	C578.004700,593.698547 577.220886,595.922363 576.316589,598.487854 
	C581.933899,598.487854 586.665222,598.487854 593.208374,598.487854 
	C590.813660,594.513184 589.552795,590.754456 586.942078,588.785583 
	C585.623413,587.791138 581.861389,590.036682 578.788513,591.474792 
z"/>
<path fill="#0A0A0A" opacity="1.000000" stroke="none" 
	d="
M546.240540,615.183228 
	C548.317505,618.544250 551.065918,618.909424 553.710083,617.131897 
	C556.860718,615.013977 558.480042,616.103027 560.067627,619.562500 
	C557.853760,621.134949 555.772705,623.088257 553.319824,624.269653 
	C544.572632,628.482605 536.450500,623.871948 535.962585,614.211792 
	C535.562012,606.280579 535.880920,598.312927 535.880920,590.098206 
	C534.065674,589.865051 532.242859,590.146240 531.314880,589.364807 
	C530.410828,588.603577 530.422302,586.755066 530.031860,585.383911 
	C536.975342,584.052246 536.051880,578.005066 537.193237,573.275330 
	C544.721069,572.136047 544.721069,572.136047 545.634460,583.036682 
	C548.829041,583.036682 552.125244,582.760254 555.331665,583.176147 
	C556.572083,583.337036 558.235291,584.879944 558.605408,586.121460 
	C559.328186,588.545288 557.863647,589.729858 555.292664,589.647095 
	C552.170044,589.546509 549.041748,589.623108 546.094421,589.623108 
	C546.094421,598.324829 546.094421,606.547974 546.240540,615.183228 
z"/>
<path fill="#0A0A0A" opacity="1.000000" stroke="none" 
	d="
M910.785156,595.997009 
	C910.785095,593.843201 910.785095,592.186951 910.785095,590.217651 
	C909.590637,590.008301 908.406860,590.023499 907.442261,589.571289 
	C906.406006,589.085449 905.575562,588.160583 904.655334,587.427246 
	C905.379761,586.556274 906.205688,585.750122 906.810547,584.802856 
	C909.067688,581.267639 911.252502,577.686279 913.464478,574.122253 
	C913.072205,573.777405 912.679932,573.432617 912.287659,573.087769 
	C914.695312,573.087769 917.102966,573.087769 920.051208,573.087769 
	C920.188538,576.217468 920.324280,579.312073 920.487732,583.036499 
	C923.775208,583.036499 927.067078,582.764587 930.272583,583.171814 
	C931.534790,583.332153 933.244019,584.810303 933.624817,586.037415 
	C934.353943,588.387268 933.033203,589.736389 930.386047,589.651428 
	C927.249390,589.550842 924.107178,589.627747 920.834656,589.627747 
	C920.834656,597.768982 920.505554,605.524841 920.957336,613.234863 
	C921.231262,617.909912 924.625916,619.504578 928.813416,617.084167 
	C932.106323,615.180847 933.593445,616.143372 935.216858,620.085388 
	C931.945618,621.808472 928.832825,624.161072 925.334961,625.145081 
	C917.621399,627.315063 911.596924,622.960876 911.046265,614.983643 
	C910.622498,608.843872 910.848206,602.659180 910.785156,595.997009 
z"/>
<path fill="#0C0C0C" opacity="1.000000" stroke="none" 
	d="
M774.638794,589.072388 
	C774.498962,595.170532 774.498962,595.170532 767.299805,594.853882 
	C766.995911,594.162476 766.630859,593.293640 766.235535,592.438721 
	C763.764709,587.095154 758.474548,586.532227 754.918030,591.230469 
	C751.186340,596.160339 750.772278,609.705261 754.199463,614.736328 
	C757.013428,618.867126 762.947144,619.259766 768.007080,615.649963 
	C771.739258,612.987366 771.739258,612.987366 774.901367,616.763123 
	C770.517639,623.776306 763.052856,626.932373 754.885254,625.225952 
	C747.616272,623.707214 743.049011,618.454590 742.060547,609.979065 
	C741.677734,606.697021 741.623230,603.302734 741.983765,600.021667 
	C743.183899,589.099304 750.871277,582.296509 761.822693,582.332825 
	C764.637207,582.342163 767.447021,582.863098 770.264587,583.073669 
	C773.792236,583.337280 775.307739,585.112488 774.638794,589.072388 
z"/>
<path fill="#0D0D0D" opacity="1.000000" stroke="none" 
	d="
M798.653809,603.127563 
	C798.653564,606.936096 798.656738,610.264160 798.652222,613.592224 
	C798.648132,616.599976 798.282898,619.735901 802.470154,620.554260 
	C803.001648,620.658142 803.779175,622.280579 803.553223,622.840698 
	C803.202698,623.709534 802.110046,624.834961 801.292297,624.867981 
	C796.474548,625.062378 791.643494,625.038940 786.821960,624.906372 
	C786.085876,624.886169 784.838623,623.973145 784.776550,623.374634 
	C784.677124,622.414978 785.297974,621.339661 785.743408,620.372803 
	C786.760071,618.165894 788.638489,616.041626 788.771606,613.800842 
	C789.175598,607.002380 789.096985,600.156494 788.794495,593.347351 
	C788.714478,591.546631 787.266113,589.739136 786.228516,588.069946 
	C785.389832,586.720947 784.224243,585.575134 782.853455,583.915039 
	C794.318420,581.358337 797.542725,581.986023 799.280823,587.019165 
	C804.144043,582.725708 809.697571,581.336548 816.647217,582.926331 
	C816.647217,585.477844 816.825806,588.086304 816.571594,590.651794 
	C816.444946,591.929932 815.676270,594.059937 814.935242,594.179810 
	C813.140198,594.469971 811.111267,594.049744 809.325684,593.462341 
	C807.413330,592.833374 804.729919,590.455994 804.030396,590.991882 
	C801.841553,592.668884 800.142029,595.209900 798.833862,597.718994 
	C798.147644,599.035156 798.674683,600.984009 798.653809,603.127563 
z"/>
<path fill="#090909" opacity="1.000000" stroke="none" 
	d="
M118.876022,563.835144 
	C132.001694,563.163330 132.001541,563.163330 132.001556,576.032043 
	C132.001572,588.682312 131.986755,601.332581 132.014481,613.982788 
	C132.020279,616.632507 131.780609,619.388916 135.287964,620.447632 
	C135.974182,620.654785 136.769913,622.350525 136.572388,623.116516 
	C136.372513,623.891541 135.022217,624.853577 134.142365,624.888367 
	C129.655304,625.066284 125.154236,625.058838 120.665894,624.897949 
	C119.737991,624.864685 118.118736,623.938110 118.091934,623.363831 
	C118.043770,622.331604 118.913086,621.227905 119.485077,620.202087 
	C120.361717,618.629883 122.086456,617.109497 122.108826,615.547913 
	C122.311333,601.412598 122.368835,587.269775 122.046646,573.138794 
	C122.002121,571.185974 119.654579,569.285706 118.373207,567.361084 
	C117.806511,567.457275 117.239807,567.553467 116.673111,567.649658 
	C117.264908,566.388794 117.856712,565.127930 118.876022,563.835144 
z"/>
<path fill="#070707" opacity="1.000000" stroke="none" 
	d="
M163.787598,620.020935 
	C164.758331,621.183594 165.323425,622.212036 165.888504,623.240417 
	C164.833160,623.816345 163.798828,624.838379 162.718781,624.889160 
	C158.569107,625.084473 154.401489,625.057251 150.248352,624.902832 
	C149.276566,624.866760 147.585007,624.065247 147.541489,623.512207 
	C147.459183,622.466248 148.286102,621.322327 148.817352,620.260193 
	C149.775070,618.345215 151.555817,616.497437 151.649811,614.556580 
	C151.995407,607.419983 152.009872,600.245117 151.637512,593.111389 
	C151.543976,591.319458 149.512390,589.646545 148.431320,587.882263 
	C147.639618,586.590149 146.945816,585.238037 145.579941,582.783203 
	C149.869339,582.783203 152.728973,583.190308 155.423447,582.696411 
	C160.651779,581.738037 161.574554,584.090149 161.410889,588.666809 
	C161.113831,596.973938 161.191696,605.303040 161.420853,613.614502 
	C161.478958,615.721619 162.696945,617.796814 163.787598,620.020935 
z"/>
<path fill="#0B0B0B" opacity="1.000000" stroke="none" 
	d="
M955.812866,614.615479 
	C956.747375,616.778992 957.704346,618.474365 958.610291,620.196533 
	C959.157654,621.236938 960.030090,622.341492 959.972412,623.373352 
	C959.939880,623.954712 958.331726,624.871887 957.405762,624.906860 
	C953.084229,625.070312 948.749573,625.069702 944.428223,624.904358 
	C943.536194,624.870300 942.153015,624.030701 941.947876,623.296509 
	C941.714661,622.461731 942.473389,621.292175 942.935486,620.332886 
	C943.915161,618.299194 945.765625,616.347900 945.871338,614.291443 
	C946.238281,607.152954 946.166870,599.978027 945.893127,592.831055 
	C945.830933,591.209473 944.364807,589.593445 943.396606,588.068970 
	C942.500183,586.657410 941.405151,585.371948 939.751587,583.171082 
	C944.900513,582.944275 948.380981,582.919067 951.834595,582.601379 
	C955.033875,582.307007 955.876587,583.794678 955.846863,586.694458 
	C955.753052,595.848328 955.813232,605.003723 955.812866,614.615479 
z"/>
<path fill="#0B0B0B" opacity="1.000000" stroke="none" 
	d="
M877.640991,587.216309 
	C877.373230,585.770935 877.373230,584.641968 877.373230,583.470947 
	C877.907654,583.301331 878.365051,583.050659 878.835876,583.022217 
	C891.919434,582.232788 891.919067,582.236511 891.919922,595.349243 
	C891.920349,601.825745 891.703186,608.314575 892.062927,614.771118 
	C892.166931,616.638550 893.919006,618.419983 894.938416,620.227966 
	C895.450073,621.135315 896.660339,622.330994 896.412598,622.836365 
	C895.955872,623.767883 894.684326,624.832825 893.703735,624.882568 
	C889.397095,625.101074 885.070007,625.064026 880.757996,624.907776 
	C879.811646,624.873535 878.172241,624.032166 878.125366,623.458618 
	C878.040466,622.418457 878.871948,621.280151 879.394714,620.219177 
	C880.263428,618.455750 881.896851,616.749878 881.969360,614.969421 
	C882.266479,607.674622 881.964233,600.357361 882.156067,593.055542 
	C882.241272,589.813599 881.086243,588.021912 877.640991,587.216309 
z"/>
<path fill="#E6823A" opacity="1.000000" stroke="none" 
	d="
M475.898712,267.699036 
	C473.170349,265.502594 471.611725,266.435547 469.727539,269.229187 
	C459.214752,284.816254 450.642120,301.357330 445.088348,319.334259 
	C442.710968,327.029449 441.123566,334.968719 438.868774,342.963074 
	C441.023132,332.684174 442.982147,322.087921 446.064758,311.829254 
	C450.886353,295.783844 459.736053,281.632355 468.681427,267.626617 
	C470.589172,264.639648 473.313904,262.174438 476.734131,259.808960 
	C476.503296,262.314667 476.272461,264.820404 475.898712,267.699036 
M474.502350,264.366638 
	C474.502350,264.366638 474.398834,264.553986 474.398834,264.553986 
	C474.398834,264.553986 474.599823,264.525513 474.502350,264.366638 
z"/>
<path fill="#E6823A" opacity="1.000000" stroke="none" 
	d="
M489.631958,520.172119 
	C490.660248,517.720825 491.646271,514.879333 493.389282,512.622498 
	C499.103668,505.223785 500.186066,496.696136 499.877197,487.821259 
	C499.810822,485.913544 498.746338,484.054291 498.247559,482.145020 
	C497.276550,478.428192 499.143860,476.446106 502.624695,477.443359 
	C511.000793,479.843018 519.374573,482.250916 527.924194,484.942078 
	C518.786499,483.358429 509.473938,481.488190 499.745880,479.534485 
	C503.087708,494.457306 501.729889,508.569855 489.631958,520.172119 
z"/>
<path fill="#E6823A" opacity="1.000000" stroke="none" 
	d="
M487.295654,334.775055 
	C485.812317,332.255310 483.879974,329.516266 483.114929,326.482880 
	C480.416290,315.783081 477.568878,305.068726 475.857788,294.190033 
	C474.687897,286.751923 475.314056,279.031342 475.442932,271.236694 
	C475.989441,273.810486 476.350830,276.580292 476.451569,279.359497 
	C477.138336,298.304108 480.901306,316.630249 487.295654,334.775055 
z"/>
<path fill="#0D0D0D" opacity="1.000000" stroke="none" 
	d="
M161.330994,576.087769 
	C158.946762,576.757385 156.697876,577.408203 154.533752,577.195740 
	C153.457138,577.090088 151.913757,575.531677 151.677246,574.401123 
	C151.221512,572.222839 151.544373,569.881653 151.544373,567.737671 
	C161.124222,565.280884 161.925552,565.966553 161.330994,576.087769 
z"/>
<path fill="#E6823A" opacity="1.000000" stroke="none" 
	d="
M434.881470,522.592773 
	C437.422577,523.390747 440.273224,524.194824 442.769135,525.620117 
	C455.997375,533.173950 468.911346,531.444641 481.737701,524.645447 
	C483.472565,523.725769 485.212555,522.815735 487.300140,521.890991 
	C477.861115,531.778809 465.636108,533.826416 452.834778,531.124817 
	C446.597168,529.808350 440.944641,525.719543 434.881470,522.592773 
z"/>
<path fill="#E6823A" opacity="1.000000" stroke="none" 
	d="
M514.151306,382.476868 
	C512.439514,381.280426 510.298737,380.003998 508.984100,378.143738 
	C505.628632,373.395599 502.321869,368.558167 499.584290,363.441498 
	C495.753510,356.281677 492.441254,348.843567 488.946198,341.505951 
	C488.329041,340.210266 487.902588,338.823761 487.612061,337.249237 
	C489.730530,340.817596 491.394592,344.753296 493.562256,348.388702 
	C500.305084,359.697327 507.238861,370.892090 514.151306,382.476868 
z"/>
<path fill="#E6823A" opacity="1.000000" stroke="none" 
	d="
M613.507690,455.085022 
	C613.679504,453.489258 614.160889,451.777313 614.933411,449.029999 
	C610.514099,447.431946 606.072083,445.453156 601.431580,444.224182 
	C591.348877,441.554077 581.781799,437.818726 572.975403,431.727417 
	C577.891846,433.581726 582.793152,436.019531 587.902466,437.888977 
	C598.124268,441.629028 608.459900,445.057922 619.306702,448.808228 
	C617.459290,450.881500 615.638245,452.925201 613.507690,455.085022 
z"/>
<path fill="#090909" opacity="1.000000" stroke="none" 
	d="
M955.598083,576.194824 
	C952.527710,576.885681 949.653992,577.201355 946.325195,577.567078 
	C946.325195,573.823730 946.325195,570.775696 946.325195,567.698364 
	C955.085815,565.094238 956.210999,566.049194 955.598083,576.194824 
z"/>
<path fill="#080808" opacity="1.000000" stroke="none" 
	d="
M881.999756,571.906128 
	C881.120544,565.797424 885.156189,567.080078 888.328979,566.833435 
	C893.179199,566.456482 891.845154,569.892090 892.156250,572.503967 
	C892.591675,576.160645 891.304016,577.488525 887.479065,577.438599 
	C883.713135,577.389526 881.205322,576.904968 881.999756,571.906128 
z"/>
<path fill="#E6823A" opacity="1.000000" stroke="none" 
	d="
M531.445068,485.792877 
	C536.212158,485.145966 541.419800,484.337860 546.644470,484.207214 
	C561.467163,483.836578 575.061890,479.346039 588.057922,472.575134 
	C588.907776,472.132324 589.963867,472.085388 591.293701,471.837982 
	C581.102478,479.604919 568.807068,482.945862 556.172974,484.768799 
	C548.189636,485.920685 539.993896,485.600769 531.445068,485.792877 
z"/>
<path fill="#E6823A" opacity="1.000000" stroke="none" 
	d="
M569.346069,429.371368 
	C564.243286,429.485596 560.743347,426.063385 556.889099,423.017090 
	C551.523376,418.776154 545.794434,414.995911 540.253601,410.973480 
	C539.776367,410.627075 539.543152,409.944550 539.244324,409.065704 
	C547.544678,414.485901 555.784607,420.276764 564.060608,426.015594 
	C565.685608,427.142456 567.450134,428.068237 569.346069,429.371368 
z"/>
<path fill="#E6823A" opacity="1.000000" stroke="none" 
	d="
M437.976624,346.359558 
	C438.465729,347.122498 438.960175,348.216736 438.926819,349.294647 
	C438.565308,360.983826 438.120911,372.670441 437.449890,384.687805 
	C437.379395,372.239655 437.558136,359.461426 437.976624,346.359558 
z"/>
<path fill="#E6823A" opacity="1.000000" stroke="none" 
	d="
M421.521088,497.264099 
	C423.720062,501.625244 425.620087,506.443054 427.864380,511.094788 
	C429.279480,514.027893 431.209473,516.712646 432.877991,519.874268 
	C425.635773,514.430298 422.467560,506.566010 421.521088,497.264099 
z"/>
<path fill="#E6823A" opacity="1.000000" stroke="none" 
	d="
M438.383667,395.311218 
	C439.042969,395.651367 439.899536,396.357941 440.035797,397.183441 
	C440.833984,402.019806 441.463867,406.883972 441.802704,411.921570 
	C440.385956,406.647156 439.317047,401.189880 438.383667,395.311218 
z"/>
<path fill="#E6823A" opacity="1.000000" stroke="none" 
	d="
M525.358032,395.431824 
	C519.680115,393.556702 516.548340,388.870422 514.133911,383.184631 
	C517.876282,386.900452 521.564453,390.997284 525.358032,395.431824 
z"/>
<path fill="#E6823A" opacity="1.000000" stroke="none" 
	d="
M426.531738,472.858765 
	C425.282013,477.720001 423.728333,482.750000 421.865906,487.943970 
	C423.114075,483.081116 424.670959,478.054352 426.531738,472.858765 
z"/>
<path fill="#E6823A" opacity="1.000000" stroke="none" 
	d="
M592.219971,471.705994 
	C595.053589,469.502502 598.235962,467.286987 601.810059,465.132629 
	C598.990723,467.360535 595.779724,469.527222 592.219971,471.705994 
z"/>
<path fill="#E6823A" opacity="1.000000" stroke="none" 
	d="
M602.519897,465.125610 
	C604.924988,462.488251 607.659851,459.770416 610.751038,457.049072 
	C608.354797,459.712097 605.602234,462.378632 602.519897,465.125610 
z"/>
<path fill="#E6823A" opacity="1.000000" stroke="none" 
	d="
M539.170288,408.388855 
	C536.493713,406.412964 533.711609,404.125580 530.924438,401.478485 
	C533.634460,403.438293 536.349609,405.757812 539.170288,408.388855 
z"/>
<path fill="#E6823A" opacity="1.000000" stroke="none" 
	d="
M446.810486,426.412659 
	C448.800934,429.522430 450.831421,433.008026 452.803345,436.866455 
	C450.779999,433.755707 448.815247,430.272095 446.810486,426.412659 
z"/>
<path fill="#E6823A" opacity="1.000000" stroke="none" 
	d="
M453.756653,453.762421 
	C450.517944,455.192596 446.922729,456.519928 442.922485,457.770630 
	C446.145020,456.349213 449.772583,455.004395 453.756653,453.762421 
z"/>
<path fill="#E6823A" opacity="1.000000" stroke="none" 
	d="
M433.516357,463.920532 
	C431.843933,466.559082 429.852844,469.295471 427.508514,472.053741 
	C429.169434,469.389893 431.183563,466.704132 433.516357,463.920532 
z"/>
<path fill="#E6823A" opacity="1.000000" stroke="none" 
	d="
M454.720703,440.605530 
	C456.737915,442.663757 458.802429,445.068787 460.822998,447.853760 
	C458.775391,445.806610 456.771698,443.379486 454.720703,440.605530 
z"/>
<path fill="#E6823A" opacity="1.000000" stroke="none" 
	d="
M441.623413,457.978943 
	C439.497620,459.922455 437.020020,461.895569 434.179901,463.856171 
	C436.302124,461.898590 438.786865,459.953583 441.623413,457.978943 
z"/>
<path fill="#E6823A" opacity="1.000000" stroke="none" 
	d="
M530.809204,400.757080 
	C529.309021,399.818237 527.739258,398.560608 526.208252,396.927185 
	C527.744507,397.847046 529.242065,399.142670 530.809204,400.757080 
z"/>
<path fill="#E6823A" opacity="1.000000" stroke="none" 
	d="
M437.159729,387.307678 
	C437.759033,388.741119 438.263275,390.569000 438.539795,392.670258 
	C437.896301,391.196472 437.480499,389.449249 437.159729,387.307678 
z"/>
<path fill="#E6823A" opacity="1.000000" stroke="none" 
	d="
M441.912628,413.378967 
	C442.657410,415.024811 443.411011,417.048828 444.136810,419.459351 
	C443.379822,417.816254 442.650635,415.786713 441.912628,413.378967 
z"/>
<path fill="#E6823A" opacity="1.000000" stroke="none" 
	d="
M444.069550,420.301575 
	C445.008911,421.590942 445.894684,423.234985 446.668884,425.247559 
	C445.710205,423.962830 444.863098,422.309509 444.069550,420.301575 
z"/>
<path fill="#E6823A" opacity="1.000000" stroke="none" 
	d="
M460.874603,448.537872 
	C461.487488,449.125977 462.200867,450.022705 462.624573,450.991943 
	C461.881592,450.325134 461.428345,449.585785 460.874603,448.537872 
z"/>
<path fill="#E6823A" opacity="1.000000" stroke="none" 
	d="
M452.760864,437.555267 
	C453.450867,438.000854 454.165588,438.762085 454.779480,439.898438 
	C454.047607,439.472687 453.416595,438.671814 452.760864,437.555267 
z"/>
<path fill="#E6823A" opacity="1.000000" stroke="none" 
	d="
M459.705139,453.385803 
	C459.097046,453.705597 458.095947,453.895569 456.995056,453.819519 
	C457.700867,453.454315 458.506531,453.355164 459.705139,453.385803 
z"/>
<path fill="#E6823A" opacity="1.000000" stroke="none" 
	d="
M421.180206,490.367188 
	C421.491028,491.148865 421.665833,492.320984 421.649841,493.740051 
	C421.320770,492.910553 421.182465,491.834106 421.180206,490.367188 
z"/>
<path fill="#E6823A" opacity="1.000000" stroke="none" 
	d="
M433.314453,521.193726 
	C433.762207,521.181824 434.239624,521.455139 434.734924,522.020386 
	C434.283264,522.034485 433.813690,521.756714 433.314453,521.193726 
z"/>
<path fill="#E6823A" opacity="1.000000" stroke="none" 
	d="
M571.284790,430.495697 
	C571.067871,430.647186 570.686462,430.546997 570.148682,430.181580 
	C570.368286,430.025604 570.744324,430.134796 571.284790,430.495697 
z"/>
<path fill="#E6823A" opacity="1.000000" stroke="none" 
	d="
M488.491974,521.349365 
	C488.374237,521.079407 488.533234,520.717224 489.003876,520.314636 
	C489.133240,520.601868 488.950958,520.929504 488.491974,521.349365 
z"/>
<path fill="#E6823A" opacity="1.000000" stroke="none" 
	d="
M612.422852,456.200562 
	C612.313293,455.941071 612.481140,455.612366 612.932129,455.223389 
	C613.043579,455.485840 612.871948,455.808594 612.422852,456.200562 
z"/>
<path fill="#F0F0F0" opacity="1.000000" stroke="none" 
	d="
M657.085938,572.181885 
	C667.844482,572.651978 672.304932,578.761963 668.999634,587.910034 
	C667.040039,593.333435 662.355591,595.228394 653.442505,593.917175 
	C653.442505,587.568420 653.319946,581.129944 653.585083,574.707397 
	C653.621521,573.824768 655.583679,573.021606 657.085938,572.181885 
z"/>
<path fill="#F3F3F3" opacity="1.000000" stroke="none" 
	d="
M330.398682,574.507324 
	C334.619995,579.398193 334.572662,584.606506 331.969757,589.578308 
	C328.941315,595.362976 323.179688,594.347412 317.565491,594.362427 
	C317.565491,587.005432 317.565491,579.859375 317.565491,571.417908 
	C322.023499,572.424683 326.065002,573.337463 330.398682,574.507324 
z"/>
<path fill="#F5F5F5" opacity="1.000000" stroke="none" 
	d="
M1038.305176,625.876709 
	C1041.750244,625.908752 1044.807983,625.565186 1047.698975,626.108398 
	C1049.527832,626.451965 1052.378662,627.980530 1052.513306,629.222595 
	C1052.736816,631.282104 1051.715088,634.143616 1050.193237,635.587036 
	C1047.003174,638.612549 1037.487793,638.778748 1034.186035,635.886475 
	C1032.784668,634.658936 1031.971436,631.897217 1032.141235,629.941223 
	C1032.397827,626.983948 1034.657227,625.439087 1038.305176,625.876709 
z"/>
<path fill="#F5F5F5" opacity="1.000000" stroke="none" 
	d="
M1042.773315,606.178955 
	C1038.345825,606.525818 1036.023682,604.383789 1035.331665,600.716553 
	C1034.561768,596.636414 1033.799194,591.913147 1037.855835,589.397888 
	C1039.760254,588.217102 1043.971069,588.465820 1045.767090,589.847351 
	C1050.407227,593.416260 1048.511475,603.396606 1042.773315,606.178955 
z"/>
<path fill="#FAFAFA" opacity="1.000000" stroke="none" 
	d="
M16.273716,598.592468 
	C16.863752,592.380615 16.966106,586.499329 18.243080,580.885193 
	C19.611506,574.868835 23.680544,571.858093 28.637890,571.686829 
	C33.744755,571.510376 37.703358,574.183594 39.676598,580.094727 
	C43.085976,590.308105 43.282066,600.722168 39.950642,611.007935 
	C38.100700,616.719666 34.357304,619.490906 29.486490,619.450195 
	C23.867540,619.403259 20.452446,616.188232 18.881098,611.187561 
	C17.645933,607.256653 17.135460,603.098022 16.273716,598.592468 
z"/>
<path fill="#F7F7F7" opacity="1.000000" stroke="none" 
	d="
M509.740540,610.247925 
	C508.954254,612.515747 508.485687,614.516968 507.464203,616.178284 
	C504.475983,621.038086 498.389954,621.165344 495.040375,616.582520 
	C491.140045,611.246094 490.915466,597.283936 494.640045,591.699768 
	C498.075317,586.549255 505.277557,586.540833 507.344452,592.392090 
	C509.260529,597.816406 509.069092,603.985168 509.740540,610.247925 
z"/>
<path fill="#EAEAEA" opacity="1.000000" stroke="none" 
	d="
M706.124756,593.372314 
	C708.125183,589.439880 710.904602,586.968933 715.031555,588.342773 
	C719.623535,589.871399 719.524353,594.235779 720.201050,598.464722 
	C714.979858,598.464722 710.246216,598.464722 704.845886,598.464722 
	C705.256897,596.766174 705.623047,595.252808 706.124756,593.372314 
z"/>
<path fill="#EAEAEA" opacity="1.000000" stroke="none" 
	d="
M370.366455,592.628662 
	C372.382355,589.087036 375.103943,587.128784 378.749054,588.303894 
	C383.372223,589.794250 383.426514,594.091553 384.001312,598.397461 
	C378.992767,598.397461 374.283691,598.397461 368.855194,598.397461 
	C369.306915,596.539368 369.741241,594.752991 370.366455,592.628662 
z"/>
<path fill="#EAEAEA" opacity="1.000000" stroke="none" 
	d="
M248.914154,588.023315 
	C254.963577,589.123413 254.840637,593.670349 255.604553,598.326538 
	C250.453201,598.326538 245.675095,598.326538 240.883713,598.326538 
	C241.207596,591.680298 242.810898,589.543518 248.914154,588.023315 
z"/>
<path fill="#EAEAEA" opacity="1.000000" stroke="none" 
	d="
M578.996338,591.145996 
	C581.861389,590.036682 585.623413,587.791138 586.942078,588.785583 
	C589.552795,590.754456 590.813660,594.513184 593.208374,598.487854 
	C586.665222,598.487854 581.933899,598.487854 576.316589,598.487854 
	C577.220886,595.922363 578.004700,593.698547 578.996338,591.145996 
z"/>
<path fill="#FC6904" opacity="1.000000" stroke="none" 
	d="
M474.551086,264.446075 
	C474.599823,264.525513 474.398834,264.553986 474.398834,264.553986 
	C474.398834,264.553986 474.502350,264.366638 474.551086,264.446075 
z"/>
</svg>