<svg width="21" height="20" viewBox="0 0 21 20" fill="none" xmlns="http://www.w3.org/2000/svg">
<g clip-path="url(#clip0_494_2446)">
<path d="M0.5 18C0.5 18.5304 0.710714 19.0391 1.08579 19.4142C1.46086 19.7893 1.96957 20 2.5 20H18.5C19.0304 20 19.5391 19.7893 19.9142 19.4142C20.2893 19.0391 20.5 18.5304 20.5 18V8H0.5V18ZM14.5 10.5C14.5 10.3674 14.5527 10.2402 14.6464 10.1464C14.7402 10.0527 14.8674 10 15 10H16C16.1326 10 16.2598 10.0527 16.3536 10.1464C16.4473 10.2402 16.5 10.3674 16.5 10.5V11.5C16.5 11.6326 16.4473 11.7598 16.3536 11.8536C16.2598 11.9473 16.1326 12 16 12H15C14.8674 12 14.7402 11.9473 14.6464 11.8536C14.5527 11.7598 14.5 11.6326 14.5 11.5V10.5ZM14.5 14.5C14.5 14.3674 14.5527 14.2402 14.6464 14.1464C14.7402 14.0527 14.8674 14 15 14H16C16.1326 14 16.2598 14.0527 16.3536 14.1464C16.4473 14.2402 16.5 14.3674 16.5 14.5V15.5C16.5 15.6326 16.4473 15.7598 16.3536 15.8536C16.2598 15.9473 16.1326 16 16 16H15C14.8674 16 14.7402 15.9473 14.6464 15.8536C14.5527 15.7598 14.5 15.6326 14.5 15.5V14.5ZM9.5 10.5C9.5 10.3674 9.55268 10.2402 9.64645 10.1464C9.74021 10.0527 9.86739 10 10 10H11C11.1326 10 11.2598 10.0527 11.3536 10.1464C11.4473 10.2402 11.5 10.3674 11.5 10.5V11.5C11.5 11.6326 11.4473 11.7598 11.3536 11.8536C11.2598 11.9473 11.1326 12 11 12H10C9.86739 12 9.74021 11.9473 9.64645 11.8536C9.55268 11.7598 9.5 11.6326 9.5 11.5V10.5ZM9.5 14.5C9.5 14.3674 9.55268 14.2402 9.64645 14.1464C9.74021 14.0527 9.86739 14 10 14H11C11.1326 14 11.2598 14.0527 11.3536 14.1464C11.4473 14.2402 11.5 14.3674 11.5 14.5V15.5C11.5 15.6326 11.4473 15.7598 11.3536 15.8536C11.2598 15.9473 11.1326 16 11 16H10C9.86739 16 9.74021 15.9473 9.64645 15.8536C9.55268 15.7598 9.5 15.6326 9.5 15.5V14.5ZM4.5 10.5C4.5 10.3674 4.55268 10.2402 4.64645 10.1464C4.74021 10.0527 4.86739 10 5 10H6C6.13261 10 6.25979 10.0527 6.35355 10.1464C6.44732 10.2402 6.5 10.3674 6.5 10.5V11.5C6.5 11.6326 6.44732 11.7598 6.35355 11.8536C6.25979 11.9473 6.13261 12 6 12H5C4.86739 12 4.74021 11.9473 4.64645 11.8536C4.55268 11.7598 4.5 11.6326 4.5 11.5V10.5ZM4.5 14.5C4.5 14.3674 4.55268 14.2402 4.64645 14.1464C4.74021 14.0527 4.86739 14 5 14H6C6.13261 14 6.25979 14.0527 6.35355 14.1464C6.44732 14.2402 6.5 14.3674 6.5 14.5V15.5C6.5 15.6326 6.44732 15.7598 6.35355 15.8536C6.25979 15.9473 6.13261 16 6 16H5C4.86739 16 4.74021 15.9473 4.64645 15.8536C4.55268 15.7598 4.5 15.6326 4.5 15.5V14.5Z" fill="#87207D"/>
<path d="M20.5 4C20.5 3.46957 20.2893 2.96086 19.9142 2.58579C19.5391 2.21071 19.0304 2 18.5 2H16.5V1C16.5 0.734784 16.3946 0.48043 16.2071 0.292893C16.0196 0.105357 15.7652 0 15.5 0C15.2348 0 14.9804 0.105357 14.7929 0.292893C14.6054 0.48043 14.5 0.734784 14.5 1V2H11.5V1C11.5 0.734784 11.3946 0.48043 11.2071 0.292893C11.0196 0.105357 10.7652 0 10.5 0C10.2348 0 9.98043 0.105357 9.79289 0.292893C9.60536 0.48043 9.5 0.734784 9.5 1V2H6.5V1C6.5 0.734784 6.39464 0.48043 6.20711 0.292893C6.01957 0.105357 5.76522 0 5.5 0C5.23478 0 4.98043 0.105357 4.79289 0.292893C4.60536 0.48043 4.5 0.734784 4.5 1V2H2.5C1.96957 2 1.46086 2.21071 1.08579 2.58579C0.710714 2.96086 0.5 3.46957 0.5 4V6H20.5V4Z" fill="#87207D"/>
</g>
<defs>
<clipPath id="clip0_494_2446">
<rect width="20" height="20" fill="white" transform="translate(0.5)"/>
</clipPath>
</defs>
</svg>
