<svg width="21" height="20" viewBox="0 0 21 20" fill="none" xmlns="http://www.w3.org/2000/svg">
<path d="M19.7728 0.863C19.7671 0.79265 19.7534 0.723188 19.7318 0.656C19.7035 0.588797 19.6676 0.52505 19.6248 0.466C19.6057 0.42595 19.584 0.3872 19.5598 0.35C19.5518 0.34 19.5398 0.337 19.5318 0.328C19.479 0.276093 19.4207 0.230151 19.3578 0.191C19.3134 0.155704 19.2662 0.12394 19.2168 0.0959999C19.1613 0.0755391 19.1041 0.0598165 19.0458 0.049C18.9785 0.0279678 18.9091 0.0142223 18.8389 0.0079999C18.8259 0.0069999 18.8149 0 18.8009 0H15.5941C15.3289 0 15.0746 0.105357 14.887 0.292893C14.6995 0.48043 14.5942 0.734783 14.5942 1C14.5942 1.26522 14.6995 1.51957 14.887 1.70711C15.0746 1.89464 15.3289 2 15.5941 2H16.094L11.5424 5.9L8.04263 5.026C7.89333 4.98866 7.73742 4.98628 7.58705 5.01907C7.43668 5.05185 7.29591 5.1189 7.17569 5.215L2.17605 9.215C1.96893 9.38076 1.83614 9.62201 1.80689 9.88569C1.77763 10.1494 1.85431 10.4139 2.02006 10.621C2.18581 10.8281 2.42705 10.9609 2.6907 10.9902C2.95436 11.0194 3.21884 10.9428 3.42596 10.777L8.03963 7.09L11.5594 7.97C11.7141 8.00849 11.8758 8.00942 12.0309 7.97272C12.1861 7.93601 12.3302 7.86274 12.4513 7.759L17.8009 3.173V4.207C17.8009 4.47222 17.9063 4.72657 18.0938 4.91411C18.2813 5.10164 18.5357 5.207 18.8009 5.207C19.066 5.207 19.3204 5.10164 19.5079 4.91411C19.6954 4.72657 19.8008 4.47222 19.8008 4.207V1C19.795 0.953676 19.7857 0.907871 19.7728 0.863Z" fill="#87207D"/>
<path d="M14.3012 9C13.2135 9 12.1502 9.32257 11.2458 9.92692C10.3414 10.5313 9.63646 11.3902 9.22021 12.3952C8.80395 13.4002 8.69504 14.5061 8.90725 15.573C9.11945 16.6399 9.64324 17.6199 10.4124 18.3891C11.1815 19.1583 12.1614 19.6821 13.2283 19.8943C14.2951 20.1065 15.4009 19.9976 16.4058 19.5813C17.4107 19.1651 18.2696 18.4601 18.8739 17.5556C19.4782 16.6512 19.8008 15.5878 19.8008 14.5C19.8008 13.0413 19.2214 11.6424 18.19 10.6109C17.1586 9.57946 15.7598 9 14.3012 9ZM14.5412 13.591C15.3423 13.7754 16.0379 14.2694 16.476 14.965C16.62 15.1995 16.7149 15.4608 16.7552 15.733C16.7954 16.0053 16.78 16.2829 16.71 16.549C16.6103 16.8835 16.4343 17.1903 16.1959 17.4452C15.9575 17.7001 15.6632 17.8962 15.3361 18.018C15.3241 18.262 15.2215 18.4927 15.0486 18.6651C14.8756 18.8375 14.6445 18.9393 14.4006 18.9505C14.1566 18.9618 13.9172 18.8817 13.7291 18.7259C13.541 18.5701 13.4177 18.3498 13.3832 18.108C12.8102 17.9569 12.2961 17.6362 11.9083 17.188C11.7382 16.9843 11.656 16.7214 11.6797 16.457C11.7034 16.1927 11.8312 15.9486 12.0348 15.7785C12.2385 15.6084 12.5014 15.5261 12.7657 15.5498C13.03 15.5736 13.2741 15.7013 13.4442 15.905C13.5787 16.0523 13.756 16.1538 13.9512 16.195C14.0922 16.2489 14.2459 16.2605 14.3934 16.2286C14.541 16.1966 14.676 16.1224 14.7821 16.015C14.7013 15.8912 14.5965 15.7849 14.4738 15.7022C14.3512 15.6196 14.2133 15.5624 14.0682 15.534C13.2671 15.35 12.5717 14.8559 12.1343 14.16C11.9907 13.9253 11.8961 13.664 11.8561 13.3918C11.816 13.1196 11.8314 12.8421 11.9014 12.576C12.0059 12.2293 12.1922 11.9127 12.4445 11.6529C12.6968 11.3931 13.0077 11.1977 13.3512 11.083V11.053C13.3512 10.7878 13.4566 10.5334 13.6441 10.3459C13.8316 10.1584 14.086 10.053 14.3512 10.053C14.6164 10.053 14.8707 10.1584 15.0582 10.3459C15.2458 10.5334 15.3511 10.7878 15.3511 11.053C15.8677 11.2116 16.3303 11.5099 16.688 11.915C16.7734 12.0151 16.8382 12.131 16.8787 12.2561C16.9193 12.3812 16.9348 12.5131 16.9244 12.6442C16.914 12.7753 16.8779 12.9031 16.8181 13.0203C16.7583 13.1374 16.6761 13.2416 16.576 13.327C16.476 13.4124 16.3601 13.4772 16.235 13.5177C16.1098 13.5583 15.978 13.5738 15.8469 13.5634C15.7158 13.553 15.588 13.5169 15.4708 13.4571C15.3537 13.3973 15.2495 13.3151 15.1641 13.215C15.0287 13.0696 14.8516 12.9697 14.6572 12.929C14.5164 12.8752 14.3631 12.8635 14.2159 12.8955C14.0686 12.9275 13.9339 13.0017 13.8282 13.109C13.9091 13.2326 14.0138 13.3389 14.1362 13.4217C14.2586 13.5045 14.3963 13.562 14.5412 13.591Z" fill="#87207D"/>
<path d="M6.80172 20C6.53652 20 6.28218 19.8946 6.09466 19.7071C5.90714 19.5196 5.80179 19.2652 5.80179 19V13C5.80179 12.7348 5.90714 12.4804 6.09466 12.2929C6.28218 12.1054 6.53652 12 6.80172 12C7.06691 12 7.32125 12.1054 7.50877 12.2929C7.6963 12.4804 7.80165 12.7348 7.80165 13V19C7.80165 19.2652 7.6963 19.5196 7.50877 19.7071C7.32125 19.8946 7.06691 20 6.80172 20Z" fill="#87207D"/>
<path d="M2.80201 20C2.53681 20 2.28247 19.8946 2.09495 19.7071C1.90743 19.5196 1.80208 19.2652 1.80208 19V15C1.80208 14.7348 1.90743 14.4804 2.09495 14.2929C2.28247 14.1054 2.53681 14 2.80201 14C3.0672 14 3.32154 14.1054 3.50906 14.2929C3.69658 14.4804 3.80193 14.7348 3.80193 15V19C3.80193 19.2652 3.69658 19.5196 3.50906 19.7071C3.32154 19.8946 3.0672 20 2.80201 20Z" fill="#87207D"/>
</svg>
