<svg width="21" height="20" viewBox="0 0 21 20" fill="none" xmlns="http://www.w3.org/2000/svg">
<path d="M17.3295 1H13.9908C13.8134 0.696959 13.558 0.445042 13.2502 0.269523C12.9423 0.0940032 12.5929 0.00105394 12.2369 0H8.16283C7.80685 0.00105394 7.45741 0.0940032 7.14957 0.269523C6.84173 0.445042 6.58631 0.696959 6.40894 1H3.07024C2.52998 1 2.01186 1.21071 1.62984 1.58579C1.24782 1.96086 1.0332 2.46957 1.0332 3V18C1.0332 18.5304 1.24782 19.0391 1.62984 19.4142C2.01186 19.7893 2.52998 20 3.07024 20H17.3295C17.8698 20 18.3879 19.7893 18.7699 19.4142C19.1519 19.0391 19.3665 18.5304 19.3665 18V3C19.3665 2.46957 19.1519 1.96086 18.7699 1.58579C18.3879 1.21071 17.8698 1 17.3295 1ZM8.16283 2H12.2369V5H8.16283V2ZM13.9684 10.289L9.91978 14.146C9.72971 14.3271 9.47526 14.4284 9.21038 14.4284C8.9455 14.4284 8.69104 14.3271 8.50098 14.146L6.43135 12.182C6.33532 12.0901 6.25866 11.9805 6.20577 11.8595C6.15287 11.7385 6.12477 11.6084 6.12307 11.4767C6.12137 11.3451 6.1461 11.2143 6.19585 11.0921C6.2456 10.9698 6.31939 10.8583 6.41302 10.764C6.50665 10.6697 6.61827 10.5945 6.74152 10.5425C6.86478 10.4906 6.99724 10.463 7.13135 10.4613C7.26546 10.4597 7.3986 10.4839 7.52315 10.5328C7.64771 10.5816 7.76124 10.6541 7.85728 10.746L9.20987 12.035L12.5506 8.854C12.6457 8.75829 12.7593 8.68226 12.8848 8.6304C13.0102 8.57855 13.145 8.55191 13.2812 8.55208C13.4173 8.55225 13.552 8.57922 13.6774 8.63139C13.8027 8.68355 13.9162 8.75987 14.011 8.85581C14.1058 8.95176 14.18 9.06539 14.2293 9.18999C14.2786 9.31458 14.3019 9.44762 14.298 9.58123C14.294 9.71485 14.2628 9.84632 14.2062 9.96789C14.1496 10.0895 14.0687 10.1986 13.9684 10.289Z" fill="#87207D"/>
</svg>
