<svg width="21" height="20" viewBox="0 0 21 20" fill="none" xmlns="http://www.w3.org/2000/svg">
<g clip-path="url(#clip0_607_3391)">
<path d="M10.5996 0C8.6218 0 6.6884 0.58649 5.04391 1.6853C3.39942 2.78412 2.11769 4.3459 1.36082 6.17316C0.603942 8.00042 0.405909 10.0111 0.791761 11.9509C1.17761 13.8907 2.13002 15.6725 3.52855 17.0711C4.92707 18.4696 6.7089 19.422 8.64871 19.8078C10.5885 20.1937 12.5992 19.9957 14.4264 19.2388C16.2537 18.4819 17.8155 17.2002 18.9143 15.5557C20.0131 13.9112 20.5996 11.9778 20.5996 10C20.5967 7.34873 19.5422 4.80688 17.6675 2.93215C15.7927 1.05741 13.2509 0.0029116 10.5996 0ZM14.3066 8.707L10.3066 12.707C10.1191 12.8945 9.86478 12.9998 9.59961 12.9998C9.33445 12.9998 9.08014 12.8945 8.89261 12.707L6.89261 10.707C6.71045 10.5184 6.60966 10.2658 6.61194 10.0036C6.61422 9.7414 6.71939 9.49059 6.90479 9.30518C7.0902 9.11977 7.34101 9.0146 7.60321 9.01232C7.86541 9.01005 8.11801 9.11084 8.30661 9.293L9.59961 10.586L12.8926 7.293C13.0812 7.11084 13.3338 7.01005 13.596 7.01232C13.8582 7.0146 14.109 7.11977 14.2944 7.30518C14.4798 7.49059 14.585 7.7414 14.5873 8.0036C14.5896 8.26579 14.4888 8.5184 14.3066 8.707Z" fill="#87207D"/>
</g>
<defs>
<clipPath id="clip0_607_3391">
<rect width="20" height="20" fill="white" transform="translate(0.599609)"/>
</clipPath>
</defs>
</svg>
