<svg width="20" height="20" viewBox="0 0 20 20" fill="none" xmlns="http://www.w3.org/2000/svg">
<g clip-path="url(#clip0_494_2424)">
<path d="M6.5 9.47368C8.98528 9.47368 11 7.35293 11 4.73684C11 2.12076 8.98528 0 6.5 0C4.01472 0 2 2.12076 2 4.73684C2 7.35293 4.01472 9.47368 6.5 9.47368Z" fill="#87207D"/>
<path d="M8 10.5263H5C3.67441 10.528 2.40356 11.083 1.46622 12.0697C0.528882 13.0564 0.00158786 14.3941 0 15.7895V18.9474C0 19.2265 0.105357 19.4943 0.292893 19.6917C0.48043 19.8891 0.734784 20 1 20H12C12.2652 20 12.5196 19.8891 12.7071 19.6917C12.8946 19.4943 13 19.2265 13 18.9474V15.7895C12.9984 14.3941 12.4711 13.0564 11.5338 12.0697C10.5964 11.083 9.32559 10.528 8 10.5263Z" fill="#87207D"/>
<path d="M19 7.36842H17V5.26316C17 4.98398 16.8946 4.71624 16.7071 4.51884C16.5196 4.32143 16.2652 4.21053 16 4.21053C15.7348 4.21053 15.4804 4.32143 15.2929 4.51884C15.1054 4.71624 15 4.98398 15 5.26316V7.36842H13C12.7348 7.36842 12.4804 7.47932 12.2929 7.67673C12.1054 7.87414 12 8.14188 12 8.42105C12 8.70023 12.1054 8.96797 12.2929 9.16538C12.4804 9.36278 12.7348 9.47368 13 9.47368H15V11.5789C15 11.8581 15.1054 12.1259 15.2929 12.3233C15.4804 12.5207 15.7348 12.6316 16 12.6316C16.2652 12.6316 16.5196 12.5207 16.7071 12.3233C16.8946 12.1259 17 11.8581 17 11.5789V9.47368H19C19.2652 9.47368 19.5196 9.36278 19.7071 9.16538C19.8946 8.96797 20 8.70023 20 8.42105C20 8.14188 19.8946 7.87414 19.7071 7.67673C19.5196 7.47932 19.2652 7.36842 19 7.36842Z" fill="#87207D"/>
</g>
<defs>
<clipPath id="clip0_494_2424">
<rect width="20" height="20" fill="white"/>
</clipPath>
</defs>
</svg>
