<svg width="21" height="20" viewBox="0 0 21 20" fill="none" xmlns="http://www.w3.org/2000/svg">
<g clip-path="url(#clip0_607_3373)">
<path d="M10.4004 0C8.42258 0 6.48918 0.58649 4.84469 1.6853C3.2002 2.78412 1.91848 4.3459 1.1616 6.17316C0.404723 8.00042 0.20669 10.0111 0.592542 11.9509C0.978394 13.8907 1.9308 15.6725 3.32933 17.0711C4.72785 18.4696 6.50968 19.422 8.44949 19.8078C10.3893 20.1937 12.4 19.9957 14.2272 19.2388C16.0545 18.4819 17.6163 17.2002 18.7151 15.5557C19.8139 13.9112 20.4004 11.9778 20.4004 10C20.3975 7.34873 19.343 4.80688 17.4682 2.93215C15.5935 1.05741 13.0517 0.0029116 10.4004 0ZM14.3824 13.982C14.1949 14.1695 13.9406 14.2748 13.6754 14.2748C13.4102 14.2748 13.1559 14.1695 12.9684 13.982L9.69439 10.708C9.50734 10.5197 9.40175 10.2654 9.40039 10V6C9.40039 5.73478 9.50575 5.48043 9.69329 5.29289C9.88082 5.10536 10.1352 5 10.4004 5C10.6656 5 10.92 5.10536 11.1075 5.29289C11.295 5.48043 11.4004 5.73478 11.4004 6V9.586L14.3824 12.568C14.5699 12.7555 14.6752 13.0098 14.6752 13.275C14.6752 13.5402 14.5699 13.7945 14.3824 13.982Z" fill="#87207D"/>
</g>
<defs>
<clipPath id="clip0_607_3373">
<rect width="20" height="20" fill="white" transform="translate(0.400391)"/>
</clipPath>
</defs>
</svg>
