<svg width="21" height="20" viewBox="0 0 21 20" fill="none" xmlns="http://www.w3.org/2000/svg">
<path d="M17.8803 1H14.5416C14.3642 0.696959 14.1088 0.445042 13.801 0.269523C13.4931 0.0940032 13.1437 0.00105394 12.7877 0H8.71361C8.35763 0.00105394 8.00819 0.0940032 7.70035 0.269523C7.39251 0.445042 7.13709 0.696959 6.95973 1H3.62102C3.08077 1 2.56264 1.21071 2.18062 1.58579C1.7986 1.96086 1.58398 2.46957 1.58398 3V18C1.58398 18.5304 1.7986 19.0391 2.18062 19.4142C2.56264 19.7893 3.08077 20 3.62102 20H17.8803C18.4205 20 18.9387 19.7893 19.3207 19.4142C19.7027 19.0391 19.9173 18.5304 19.9173 18V3C19.9173 2.46957 19.7027 1.96086 19.3207 1.58579C18.9387 1.21071 18.4205 1 17.8803 1ZM8.71361 2H12.7877V5H8.71361V2ZM14.5192 10.289L10.4706 14.146C10.2805 14.3271 10.026 14.4284 9.76116 14.4284C9.49628 14.4284 9.24183 14.3271 9.05176 14.146L6.98213 12.182C6.8861 12.0901 6.80944 11.9805 6.75655 11.8595C6.70365 11.7385 6.67555 11.6084 6.67385 11.4767C6.67215 11.3451 6.69688 11.2143 6.74663 11.0921C6.79638 10.9698 6.87017 10.8583 6.9638 10.764C7.05743 10.6697 7.16905 10.5945 7.29231 10.5425C7.41556 10.4906 7.54802 10.463 7.68213 10.4613C7.81624 10.4597 7.94938 10.4839 8.07393 10.5328C8.19849 10.5816 8.31202 10.6541 8.40806 10.746L9.76065 12.035L13.1014 8.854C13.1964 8.75829 13.3101 8.68226 13.4355 8.6304C13.561 8.57855 13.6958 8.55191 13.832 8.55208C13.9681 8.55225 14.1028 8.57922 14.2282 8.63139C14.3535 8.68355 14.4669 8.75987 14.5617 8.85581C14.6565 8.95176 14.7308 9.06539 14.7801 9.18999C14.8294 9.31458 14.8527 9.44762 14.8488 9.58123C14.8448 9.71485 14.8136 9.84632 14.757 9.96789C14.7004 10.0895 14.6195 10.1986 14.5192 10.289Z" fill="#87207D"/>
</svg>
