<svg width="20" height="20" viewBox="0 0 20 20" fill="none" xmlns="http://www.w3.org/2000/svg">
<g clip-path="url(#clip0_607_3371)">
<path d="M17.1303 1H13.7916C13.6142 0.696959 13.3588 0.445042 13.051 0.269523C12.7431 0.0940032 12.3937 0.00105394 12.0377 0H7.96361C7.60763 0.00105394 7.25819 0.0940032 6.95035 0.269523C6.64251 0.445042 6.38709 0.696959 6.20973 1H2.87102C2.33077 1 1.81264 1.21071 1.43062 1.58579C1.0486 1.96086 0.833984 2.46957 0.833984 3V18C0.833984 18.5304 1.0486 19.0391 1.43062 19.4142C1.81264 19.7893 2.33077 20 2.87102 20H17.1303C17.6705 20 18.1887 19.7893 18.5707 19.4142C18.9527 19.0391 19.1673 18.5304 19.1673 18V3C19.1673 2.46957 18.9527 1.96086 18.5707 1.58579C18.1887 1.21071 17.6705 1 17.1303 1ZM7.96361 2H12.0377V4H7.96361V2ZM5.92658 15C5.72513 15 5.52821 14.9414 5.36072 14.8315C5.19322 14.7216 5.06268 14.5654 4.98559 14.3827C4.9085 14.2 4.88833 13.9989 4.92763 13.8049C4.96693 13.6109 5.06393 13.4327 5.20638 13.2929C5.34882 13.153 5.5303 13.0578 5.72787 13.0192C5.92545 12.9806 6.13024 13.0004 6.31635 13.0761C6.50246 13.1518 6.66153 13.28 6.77344 13.4444C6.88536 13.6089 6.9451 13.8022 6.9451 14C6.9451 14.2652 6.83779 14.5196 6.64678 14.7071C6.45577 14.8946 6.19671 15 5.92658 15ZM5.92658 11C5.72513 11 5.52821 10.9414 5.36072 10.8315C5.19322 10.7216 5.06268 10.5654 4.98559 10.3827C4.9085 10.2 4.88833 9.99889 4.92763 9.80491C4.96693 9.61093 5.06393 9.43275 5.20638 9.29289C5.34882 9.15304 5.5303 9.0578 5.72787 9.01921C5.92545 8.98063 6.13024 9.00043 6.31635 9.07612C6.50246 9.15181 6.66153 9.27998 6.77344 9.44443C6.88536 9.60888 6.9451 9.80222 6.9451 10C6.9451 10.2652 6.83779 10.5196 6.64678 10.7071C6.45577 10.8946 6.19671 11 5.92658 11ZM14.0747 15H8.98213C8.71201 15 8.45294 14.8946 8.26193 14.7071C8.07092 14.5196 7.96361 14.2652 7.96361 14C7.96361 13.7348 8.07092 13.4804 8.26193 13.2929C8.45294 13.1054 8.71201 13 8.98213 13H14.0747C14.3449 13 14.6039 13.1054 14.7949 13.2929C14.9859 13.4804 15.0932 13.7348 15.0932 14C15.0932 14.2652 14.9859 14.5196 14.7949 14.7071C14.6039 14.8946 14.3449 15 14.0747 15ZM14.0747 11H8.98213C8.71201 11 8.45294 10.8946 8.26193 10.7071C8.07092 10.5196 7.96361 10.2652 7.96361 10C7.96361 9.73478 8.07092 9.48043 8.26193 9.29289C8.45294 9.10536 8.71201 9 8.98213 9H14.0747C14.3449 9 14.6039 9.10536 14.7949 9.29289C14.9859 9.48043 15.0932 9.73478 15.0932 10C15.0932 10.2652 14.9859 10.5196 14.7949 10.7071C14.6039 10.8946 14.3449 11 14.0747 11Z" fill="#87207D"/>
</g>
<defs>
<clipPath id="clip0_607_3371">
<rect width="20" height="20" fill="white"/>
</clipPath>
</defs>
</svg>
