<svg width="14" height="15" viewBox="0 0 14 15" fill="none" xmlns="http://www.w3.org/2000/svg">
<path d="M5.60007 11.7C4.49248 11.7 3.40976 11.3716 2.48884 10.7562C1.56791 10.1409 0.850138 9.26629 0.426282 8.24302C0.0024264 7.21976 -0.108474 6.09379 0.107606 5.00749C0.323686 3.9212 0.857041 2.92338 1.64022 2.1402C2.42341 1.35703 3.42124 0.823682 4.50755 0.607605C5.59386 0.391528 6.71984 0.502426 7.74312 0.926277C8.7664 1.35013 9.64101 2.06789 10.2564 2.98881C10.8717 3.90972 11.2001 4.99242 11.2001 6.1C11.1985 7.5847 10.6079 9.00811 9.55807 10.058C8.50822 11.1078 7.08479 11.6983 5.60007 11.7ZM5.60007 1.9C4.76938 1.9 3.95734 2.14633 3.26665 2.60783C2.57595 3.06933 2.03762 3.72528 1.71973 4.49273C1.40184 5.26018 1.31866 6.10466 1.48072 6.91938C1.64278 7.7341 2.0428 8.48247 2.63018 9.06985C3.21757 9.65723 3.96595 10.0572 4.78068 10.2193C5.59541 10.3814 6.4399 10.2982 7.20736 9.98029C7.97482 9.6624 8.63077 9.12408 9.09228 8.43339C9.55379 7.74271 9.80012 6.93068 9.80012 6.1C9.799 4.98643 9.35614 3.91879 8.56872 3.13138C7.7813 2.34397 6.71365 1.90111 5.60007 1.9Z" fill="#6B7280"/>
<path d="M13.3001 14.5C13.1145 14.5 12.9365 14.4262 12.8052 14.2949L10.0052 11.4949C9.87769 11.3629 9.80713 11.1861 9.80873 11.0025C9.81032 10.819 9.88394 10.6434 10.0137 10.5136C10.1435 10.3838 10.3191 10.3102 10.5026 10.3086C10.6862 10.307 10.863 10.3776 10.995 10.5051L13.795 13.3051C13.8929 13.403 13.9596 13.5277 13.9866 13.6635C14.0136 13.7992 13.9997 13.94 13.9467 14.0679C13.8938 14.1957 13.8041 14.3051 13.689 14.382C13.5739 14.4589 13.4386 14.5 13.3001 14.5Z" fill="#6B7280"/>
</svg>
