<svg width="48" height="48" viewBox="0 0 48 48" fill="none" xmlns="http://www.w3.org/2000/svg">
<path d="M0 8C0 3.58172 3.58172 0 8 0H40C44.4183 0 48 3.58172 48 8V40C48 44.4183 44.4183 48 40 48H8C3.58172 48 0 44.4183 0 40V8Z" fill="#F3F5F7"/>
<path d="M34 15.6C34 13.6152 32.2585 12 30.1185 12C27.9785 12 26.237 13.6152 26.237 15.6C26.237 16.9368 27.0353 18.0924 28.2049 18.7128C28.0717 20.3232 26.6316 21.6 24.8617 21.6H22.5457C21.2946 21.6 20.1353 21.9636 19.1753 22.5768V18.9792C20.6774 18.4824 21.763 17.1624 21.763 15.6C21.763 13.6152 20.0215 12 17.8815 12C15.7415 12 14 13.6152 14 15.6C14 17.1624 15.0855 18.4824 16.5877 18.9792V29.022C15.0855 29.5176 14 30.8376 14 32.4C14 34.3848 15.7415 36 17.8815 36C20.0215 36 21.763 34.3848 21.763 32.4C21.763 30.8376 20.6774 29.5176 19.1753 29.0208V27.1248C19.1753 25.4016 20.6865 24 22.5457 24H24.8617C27.9009 24 30.3876 21.8712 30.7473 19.1412C32.5884 18.8604 34 17.3856 34 15.6Z" fill="#FF6800"/>
</svg>
