<svg width="48" height="48" viewBox="0 0 48 48" fill="none" xmlns="http://www.w3.org/2000/svg">
<path d="M0 8C0 3.58172 3.58172 0 8 0H40C44.4183 0 48 3.58172 48 8V40C48 44.4183 44.4183 48 40 48H8C3.58172 48 0 44.4183 0 40V8Z" fill="#F3F5F7"/>
<path d="M33.6 13H14.4C13.0764 13 12 14.0963 12 15.4444V32.5556C12 33.9037 13.0764 35 14.4 35H33.6C34.9236 35 36 33.9037 36 32.5556V15.4444C36 14.0963 34.9236 13 33.6 13ZM24.6 16.6667C25.2624 16.6667 25.8 17.2142 25.8 17.8889C25.8 18.5636 25.2624 19.1111 24.6 19.1111C23.9376 19.1111 23.4 18.5636 23.4 17.8889C23.4 17.2142 23.9376 16.6667 24.6 16.6667ZM21 16.6667C21.6624 16.6667 22.2 17.2142 22.2 17.8889C22.2 18.5636 21.6624 19.1111 21 19.1111C20.3376 19.1111 19.8 18.5636 19.8 17.8889C19.8 17.2142 20.3376 16.6667 21 16.6667ZM17.4 16.6667C18.0624 16.6667 18.6 17.2142 18.6 17.8889C18.6 18.5636 18.0624 19.1111 17.4 19.1111C16.7376 19.1111 16.2 18.5636 16.2 17.8889C16.2 17.2142 16.7376 16.6667 17.4 16.6667ZM14.4 32.5556V22.7778H33.6012L33.6024 32.5556H14.4Z" fill="#FF6800"/>
</svg>
