<svg width="48" height="48" viewBox="0 0 48 48" fill="none" xmlns="http://www.w3.org/2000/svg">
<path d="M0 8C0 3.58172 3.58172 0 8 0H40C44.4183 0 48 3.58172 48 8V40C48 44.4183 44.4183 48 40 48H8C3.58172 48 0 44.4183 0 40V8Z" fill="#F3F5F7"/>
<g clip-path="url(#clip0_39_8011)">
<path d="M34.6667 26.6667H31.0373L22.6667 35.0373C22.3014 35.3993 21.8992 35.722 21.4667 36H34.6667C35.0203 36 35.3594 35.8595 35.6095 35.6095C35.8595 35.3594 36 35.0203 36 34.6667V28C36 27.6464 35.8595 27.3072 35.6095 27.0572C35.3594 26.8071 35.0203 26.6667 34.6667 26.6667Z" fill="#FF6800"/>
<path d="M20 12H13.3333C12.9797 12 12.6406 12.1405 12.3905 12.3905C12.1405 12.6406 12 12.9797 12 13.3333V31.3333C12 32.571 12.4917 33.758 13.3668 34.6332C14.242 35.5083 15.429 36 16.6667 36C17.9043 36 19.0913 35.5083 19.9665 34.6332C20.8417 33.758 21.3333 32.571 21.3333 31.3333V13.3333C21.3333 12.9797 21.1929 12.6406 20.9428 12.3905C20.6928 12.1405 20.3536 12 20 12ZM16.6667 32.6667C16.403 32.6667 16.1452 32.5885 15.9259 32.442C15.7066 32.2955 15.5357 32.0872 15.4348 31.8436C15.3339 31.5999 15.3075 31.3319 15.359 31.0732C15.4104 30.8146 15.5374 30.577 15.7239 30.3905C15.9103 30.2041 16.1479 30.0771 16.4065 30.0256C16.6652 29.9742 16.9333 30.0006 17.1769 30.1015C17.4205 30.2024 17.6288 30.3733 17.7753 30.5926C17.9218 30.8118 18 31.0696 18 31.3333C18 31.687 17.8595 32.0261 17.6095 32.2761C17.3594 32.5262 17.0203 32.6667 16.6667 32.6667Z" fill="#FF6800"/>
<path d="M33.5093 18.5333L28.8 13.824C28.55 13.574 28.2109 13.4336 27.8573 13.4336C27.5038 13.4336 27.1647 13.574 26.9147 13.824L24 16.7333V29.9333L33.5093 20.424C33.6339 20.3001 33.7328 20.1528 33.8002 19.9906C33.8677 19.8283 33.9024 19.6544 33.9024 19.4787C33.9024 19.303 33.8677 19.129 33.8002 18.9668C33.7328 18.8045 33.6339 18.6572 33.5093 18.5333Z" fill="#FF6800"/>
</g>
<defs>
<clipPath id="clip0_39_8011">
<rect width="24" height="24" fill="white" transform="translate(12 12)"/>
</clipPath>
</defs>
</svg>
