<svg width="48" height="48" viewBox="0 0 48 48" fill="none" xmlns="http://www.w3.org/2000/svg">
<path d="M0 8C0 3.58172 3.58172 0 8 0H40C44.4183 0 48 3.58172 48 8V40C48 44.4183 44.4183 48 40 48H8C3.58172 48 0 44.4183 0 40V8Z" fill="#F3F5F7"/>
<g clip-path="url(#clip0_39_8006)">
<path d="M34.9526 21.4726L33.8826 20.4012C33.6562 20.176 33.5323 19.8757 33.5323 19.5575V18.0416C33.5323 16.0704 31.9285 14.4663 29.9577 14.4663H28.4421C28.1287 14.4663 27.8213 14.3388 27.5996 14.1171L26.5284 13.0458C25.1343 11.6514 22.868 11.6514 21.4739 13.0458L20.4004 14.1171C20.1787 14.3388 19.8713 14.4663 19.5579 14.4663H18.0423C16.0715 14.4663 14.4677 16.0704 14.4677 18.0416V19.5575C14.4677 19.8757 14.3438 20.176 14.1186 20.4012L13.0474 21.4714C12.3718 22.1471 12 23.0457 12 24.0003C12 24.9549 12.373 25.8535 13.0474 26.528L14.1174 27.5994C14.3438 27.8246 14.4677 28.1249 14.4677 28.4431V29.959C14.4677 31.9302 16.0715 33.5343 18.0423 33.5343H19.5579C19.8713 33.5343 20.1787 33.6618 20.4004 33.8835L21.4716 34.956C22.1686 35.652 23.0837 36 23.9988 36C24.9139 36 25.829 35.652 26.5261 34.9548L27.5973 33.8835C27.8213 33.6618 28.1287 33.5343 28.4421 33.5343H29.9577C31.9285 33.5343 33.5323 31.9302 33.5323 29.959V28.4431C33.5323 28.1249 33.6562 27.8246 33.8826 27.5994L34.9526 26.5292C35.627 25.8535 36 24.9561 36 24.0003C36 23.0445 35.6282 22.1471 34.9526 21.4726ZM29.4275 22.6083L22.2782 27.3753C22.0769 27.51 21.8457 27.5755 21.6169 27.5755C21.3095 27.5755 21.0045 27.4564 20.7745 27.2264L18.3914 24.8429C17.9255 24.3769 17.9255 23.6237 18.3914 23.1577C18.8573 22.6918 19.6104 22.6918 20.0763 23.1577L21.7682 24.85L28.1049 20.6253C28.6542 20.2594 29.3929 20.4072 29.7575 20.9554C30.1233 21.5036 29.9756 22.2437 29.4275 22.6083Z" fill="#FF6800"/>
</g>
<defs>
<clipPath id="clip0_39_8006">
<rect width="24" height="24" fill="white" transform="translate(12 12)"/>
</clipPath>
</defs>
</svg>
