<svg width="16" height="16" viewBox="0 0 16 16" fill="none" xmlns="http://www.w3.org/2000/svg">
<g clip-path="url(#clip0_801_6061)">
<path d="M4.03485 9.1392V0.8C4.03485 0.587827 3.95132 0.384344 3.80263 0.234315C3.65395 0.0842854 3.45229 0 3.24202 0C3.03174 0 2.83009 0.0842854 2.6814 0.234315C2.53272 0.384344 2.44919 0.587827 2.44919 0.8V9.1392C1.93165 9.30539 1.47992 9.6334 1.15936 10.0758C0.838795 10.5182 0.666016 11.052 0.666016 11.6C0.666016 12.148 0.838795 12.6818 1.15936 13.1242C1.47992 13.5666 1.93165 13.8946 2.44919 14.0608V15.2C2.44919 15.4122 2.53272 15.6157 2.6814 15.7657C2.83009 15.9157 3.03174 16 3.24202 16C3.45229 16 3.65395 15.9157 3.80263 15.7657C3.95132 15.6157 4.03485 15.4122 4.03485 15.2V14.0608C4.55239 13.8946 5.00411 13.5666 5.32467 13.1242C5.64524 12.6818 5.81802 12.148 5.81802 11.6C5.81802 11.052 5.64524 10.5182 5.32467 10.0758C5.00411 9.6334 4.55239 9.30539 4.03485 9.1392Z" fill="#788596"/>
<path d="M15.3327 11.6C15.3308 11.0523 15.1572 10.5193 14.8368 10.0773C14.5163 9.63526 14.0655 9.30689 13.5488 9.1392V0.8C13.5488 0.587827 13.4653 0.384344 13.3166 0.234315C13.1679 0.0842854 12.9663 0 12.756 0C12.5457 0 12.3441 0.0842854 12.1954 0.234315C12.0467 0.384344 11.9632 0.587827 11.9632 0.8V9.1392C11.4456 9.30539 10.9939 9.6334 10.6733 10.0758C10.3528 10.5182 10.18 11.052 10.18 11.6C10.18 12.148 10.3528 12.6818 10.6733 13.1242C10.9939 13.5666 11.4456 13.8946 11.9632 14.0608V15.2C11.9632 15.4122 12.0467 15.6157 12.1954 15.7657C12.3441 15.9157 12.5457 16 12.756 16C12.9663 16 13.1679 15.9157 13.3166 15.7657C13.4653 15.6157 13.5488 15.4122 13.5488 15.2V14.0608C14.0655 13.8931 14.5163 13.5647 14.8368 13.1227C15.1572 12.6807 15.3308 12.1477 15.3327 11.6Z" fill="#788596"/>
<path d="M10.5757 4.4C10.5738 3.85234 10.4002 3.31933 10.0798 2.8773C9.75936 2.43526 9.30852 2.10689 8.79183 1.9392V0.8C8.79183 0.587827 8.7083 0.384344 8.55962 0.234315C8.41093 0.0842854 8.20927 0 7.999 0C7.78873 0 7.58707 0.0842854 7.43838 0.234315C7.2897 0.384344 7.20617 0.587827 7.20617 0.8V1.9392C6.68863 2.10539 6.23691 2.4334 5.91634 2.87578C5.59578 3.31816 5.423 3.85198 5.423 4.4C5.423 4.94802 5.59578 5.48184 5.91634 5.92422C6.23691 6.3666 6.68863 6.69461 7.20617 6.8608V15.2C7.20617 15.4122 7.2897 15.6157 7.43838 15.7657C7.58707 15.9157 7.78873 16 7.999 16C8.20927 16 8.41093 15.9157 8.55962 15.7657C8.7083 15.6157 8.79183 15.4122 8.79183 15.2V6.8608C9.30852 6.69311 9.75936 6.36474 10.0798 5.9227C10.4002 5.48067 10.5738 4.94766 10.5757 4.4Z" fill="#788596"/>
</g>
<defs>
<clipPath id="clip0_801_6061">
<rect width="16" height="16" fill="white"/>
</clipPath>
</defs>
</svg>
