<svg width="80" height="80" viewBox="0 0 80 80" fill="none" xmlns="http://www.w3.org/2000/svg">
<g clip-path="url(#clip0_622_5272)">
<path d="M40 0C32.0888 0 24.3552 2.34596 17.7772 6.74121C11.1992 11.1365 6.07234 17.3836 3.04484 24.6927C0.0173314 32.0017 -0.774802 40.0444 0.768607 47.8036C2.31202 55.5628 6.12165 62.6902 11.7157 68.2842C17.3098 73.8783 24.4372 77.688 32.1964 79.2314C39.9556 80.7748 47.9983 79.9827 55.3073 76.9552C62.6164 73.9277 68.8635 68.8008 73.2588 62.2228C77.654 55.6448 80 47.9112 80 40C79.9884 29.3949 75.7703 19.2275 68.2714 11.7286C60.7725 4.22966 50.6051 0.0116464 40 0ZM54.828 34.828L38.828 50.828C38.0779 51.5779 37.0607 51.9991 36 51.9991C34.9394 51.9991 33.9221 51.5779 33.172 50.828L25.172 42.828C24.4434 42.0736 24.0402 41.0632 24.0493 40.0144C24.0584 38.9656 24.4791 37.9623 25.2207 37.2207C25.9624 36.4791 26.9656 36.0584 28.0144 36.0493C29.0632 36.0402 30.0736 36.4434 30.828 37.172L36 42.344L49.172 29.172C49.9264 28.4434 50.9368 28.0402 51.9856 28.0493C53.0344 28.0584 54.0377 28.4791 54.7793 29.2207C55.5209 29.9623 55.9416 30.9656 55.9507 32.0144C55.9598 33.0632 55.5566 34.0736 54.828 34.828Z" fill="#FF6800"/>
</g>
<defs>
<clipPath id="clip0_622_5272">
<rect width="80" height="80" fill="white"/>
</clipPath>
</defs>
</svg>
