<svg width="16" height="16" viewBox="0 0 16 16" fill="none" xmlns="http://www.w3.org/2000/svg">
<g clip-path="url(#clip0_494_2846)">
<path d="M15.7656 9.00533C14.024 10.7007 11.012 11.5488 8 11.5488C4.988 11.5488 1.976 10.7007 0.2344 9.00533L0 8.77715V13.7761C0 14.1892 0.168571 14.5854 0.468629 14.8775C0.768687 15.1696 1.17565 15.3337 1.6 15.3337H14.4C14.8243 15.3337 15.2313 15.1696 15.5314 14.8775C15.8314 14.5854 16 14.1892 16 13.7761V8.77715L15.7656 9.00533Z" fill="#788596"/>
<path d="M14.4 3.78209H12V3.00332C12 2.38368 11.7471 1.78943 11.2971 1.35129C10.847 0.91314 10.2365 0.666992 9.6 0.666992H6.4C5.76348 0.666992 5.15303 0.91314 4.70294 1.35129C4.25286 1.78943 4 2.38368 4 3.00332V3.78209H1.6C1.17565 3.78209 0.768687 3.94619 0.468629 4.23829C0.168571 4.53039 0 4.92655 0 5.33964V6.57478L1.3656 7.90415C4.28 10.7389 11.72 10.7389 14.6344 7.90415L16 6.57478V5.33964C16 4.92655 15.8314 4.53039 15.5314 4.23829C15.2313 3.94619 14.8243 3.78209 14.4 3.78209ZM8 8.45474C7.84177 8.45474 7.6871 8.40907 7.55554 8.32349C7.42398 8.23792 7.32145 8.11629 7.2609 7.97399C7.20035 7.83169 7.1845 7.6751 7.21537 7.52403C7.24624 7.37297 7.32243 7.2342 7.43431 7.12529C7.5462 7.01638 7.68874 6.9422 7.84393 6.91216C7.99911 6.88211 8.15997 6.89753 8.30615 6.95647C8.45233 7.01542 8.57727 7.11523 8.66518 7.2433C8.75308 7.37137 8.8 7.52194 8.8 7.67597C8.8 7.88251 8.71571 8.08059 8.56569 8.22664C8.41566 8.37269 8.21217 8.45474 8 8.45474ZM10.4 3.78209H5.6V3.00332C5.6 2.79677 5.68429 2.59869 5.83431 2.45264C5.98434 2.30659 6.18783 2.22454 6.4 2.22454H9.6C9.81217 2.22454 10.0157 2.30659 10.1657 2.45264C10.3157 2.59869 10.4 2.79677 10.4 3.00332V3.78209Z" fill="#788596"/>
</g>
<defs>
<clipPath id="clip0_494_2846">
<rect width="16" height="16" fill="white"/>
</clipPath>
</defs>
</svg>
