<svg width="16" height="16" viewBox="0 0 16 16" fill="none" xmlns="http://www.w3.org/2000/svg">
<path d="M5.50073 4V0.104C5.09411 0.211983 4.72313 0.41829 4.42326 0.7032L2.06667 2.9656C1.7699 3.25348 1.555 3.60963 1.44252 4H5.50073Z" fill="#788596"/>
<path d="M12.8072 12.38C12.65 12.5257 12.4395 12.6064 12.221 12.6045C12.0025 12.6027 11.7935 12.5186 11.639 12.3703C11.4845 12.2219 11.3969 12.0213 11.395 11.8115C11.3931 11.6018 11.4771 11.3997 11.6289 11.2488L12.5122 10.4H7.16734C6.94634 10.4 6.73438 10.3157 6.57811 10.1657C6.42183 10.0157 6.33404 9.81217 6.33404 9.6C6.33404 9.38783 6.42183 9.18434 6.57811 9.03432C6.73438 8.88429 6.94634 8.8 7.16734 8.8H12.5122L11.6289 7.9512C11.5493 7.8774 11.4858 7.78913 11.4421 7.69152C11.3985 7.59392 11.3755 7.48894 11.3745 7.38272C11.3735 7.2765 11.3946 7.17115 11.4365 7.07284C11.4784 6.97452 11.5403 6.8852 11.6185 6.81008C11.6968 6.73497 11.7898 6.67557 11.8922 6.63534C11.9946 6.59512 12.1044 6.57488 12.215 6.5758C12.3257 6.57672 12.435 6.59879 12.5367 6.64072C12.6383 6.68265 12.7303 6.74359 12.8072 6.82L14.6671 8.6056V1.6C14.674 1.1829 14.5083 0.780194 14.2063 0.480239C13.9044 0.180284 13.4908 0.00757422 13.0563 0H7.16734V4C7.16734 4.42435 6.99175 4.83131 6.6792 5.13137C6.36665 5.43143 5.94274 5.6 5.50073 5.6H1.33419V14.4C1.32728 14.8171 1.49299 15.2198 1.79497 15.5198C2.09694 15.8197 2.51052 15.9924 2.94498 16H13.0005C13.4425 16 13.8664 15.8314 14.179 15.5314C14.4915 15.2313 14.6671 14.8243 14.6671 14.4V10.5944L12.8072 12.38Z" fill="#788596"/>
</svg>
